<svg width="32" height="32" viewBox="0 0 32 32" fill="none" xmlns="http://www.w3.org/2000/svg">
<path d="M28.707 23.08V22.8667C28.707 20.2933 27.4003 19 24.8403 19C22.2803 19 20.9737 20.3067 20.9737 22.8667V23.08C19.5737 23.4267 19.0137 24.3867 19.0137 26.3067V27.2933C19.0137 29.76 19.9337 30.6667 22.387 30.6667H27.2937C29.7603 30.6667 30.667 29.7467 30.667 27.2933V26.3067C30.667 24.4 30.107 23.4267 28.707 23.08ZM24.827 20.84C26.547 20.84 26.8537 21.4933 26.8537 22.8667V22.9333H22.8003V22.8667C22.8003 21.4933 23.107 20.84 24.827 20.84Z" fill="#323740"/>
<path d="M9.32757 2.71686C9.87948 2.66383 10.3327 3.11811 10.3327 3.67256V9.40033C10.3327 9.95261 9.88497 10.4003 9.33268 10.4003H3.66601C3.11373 10.4003 2.66038 9.95062 2.70939 9.40051C3.05552 5.51511 5.45727 3.08874 9.32757 2.71686Z" fill="#DD3636"/>
<path d="M27.906 10.4003H22.666C22.1137 10.4003 21.666 9.95261 21.666 9.40033V3.67324C21.666 3.11852 22.1195 2.66414 22.6717 2.71762C26.3749 3.07629 28.7368 5.31552 29.2393 8.90699C29.346 9.69366 28.706 10.4003 27.906 10.4003Z" fill="#DD3636"/>
<path d="M9.33268 21.7334C9.88497 21.7334 10.3327 22.1811 10.3327 22.7334V27.8934C10.3327 28.6934 9.62602 29.3334 8.82601 29.2267C5.29058 28.7007 3.10204 26.3788 2.7238 22.7451C2.66611 22.1908 3.12152 21.7334 3.67875 21.7334H9.33268Z" fill="#DD3636"/>
<path d="M10.3327 13.4004C10.3327 12.8481 9.88497 12.4004 9.33268 12.4004H3.66601C3.11373 12.4004 2.66602 12.8481 2.66602 13.4004V18.7337C2.66602 19.286 3.11373 19.7337 3.66602 19.7337H9.33268C9.88497 19.7337 10.3327 19.286 10.3327 18.7337V13.4004Z" fill="#DD3636"/>
<path d="M19.6673 13.4004C19.6673 12.8481 19.2196 12.4004 18.6673 12.4004H13.334C12.7817 12.4004 12.334 12.8481 12.334 13.4004V18.7337C12.334 19.286 12.7817 19.7337 13.334 19.7337H18.334C19.0673 19.7337 19.6673 19.1337 19.6673 18.4004V13.4004Z" fill="#DD3636"/>
<path d="M19.6673 3.66699C19.6673 3.11471 19.2196 2.66699 18.6673 2.66699H13.334C12.7817 2.66699 12.334 3.11471 12.334 3.66699V9.40033C12.334 9.95261 12.7817 10.4003 13.334 10.4003H18.6673C19.2196 10.4003 19.6673 9.95261 19.6673 9.40033V3.66699Z" fill="#DD3636"/>
</svg>
