<svg width="32" height="32" viewBox="0 0 32 32" fill="none" xmlns="http://www.w3.org/2000/svg">
<path d="M14.3992 7.68716C12.7077 6.86288 10.8075 6.40039 8.79922 6.40039C6.79097 6.40039 4.89073 6.86288 3.19922 7.68716V23.6872C4.89073 22.8629 6.79097 22.4004 8.79922 22.4004C11.469 22.4004 13.9478 23.2177 15.9992 24.6159C18.0506 23.2177 20.5295 22.4004 23.1992 22.4004C25.2075 22.4004 27.1077 22.8629 28.7992 23.6872V7.68716C27.1077 6.86288 25.2075 6.40039 23.1992 6.40039C21.191 6.40039 19.2907 6.86288 17.5992 7.68716V19.2004C17.5992 20.084 16.8829 20.8004 15.9992 20.8004C15.1156 20.8004 14.3992 20.084 14.3992 19.2004V7.68716Z" fill="#DD3636"/>
</svg>
