<svg width="32" height="32" viewBox="0 0 32 32" fill="none" xmlns="http://www.w3.org/2000/svg">
<path fill-rule="evenodd" clip-rule="evenodd" d="M9.60039 3.2002C7.83308 3.2002 6.40039 4.63289 6.40039 6.4002V25.6002C6.40039 27.3675 7.83308 28.8002 9.60039 28.8002H22.4004C24.1677 28.8002 25.6004 27.3675 25.6004 25.6002V11.8629C25.6004 11.0142 25.2633 10.2003 24.6631 9.60019L19.2004 4.13745C18.6003 3.53734 17.7863 3.2002 16.9376 3.2002H9.60039ZM12.8004 19.2002C12.8004 18.3165 12.084 17.6002 11.2004 17.6002C10.3167 17.6002 9.60039 18.3165 9.60039 19.2002V24.0002C9.60039 24.8839 10.3167 25.6002 11.2004 25.6002C12.084 25.6002 12.8004 24.8839 12.8004 24.0002V19.2002ZM16.0004 14.4002C16.884 14.4002 17.6004 15.1165 17.6004 16.0002V24.0002C17.6004 24.8838 16.884 25.6002 16.0004 25.6002C15.1167 25.6002 14.4004 24.8838 14.4004 24.0002V16.0002C14.4004 15.1165 15.1167 14.4002 16.0004 14.4002ZM22.4004 12.8002C22.4004 11.9165 21.684 11.2002 20.8004 11.2002C19.9167 11.2002 19.2004 11.9165 19.2004 12.8002V24.0002C19.2004 24.8838 19.9167 25.6002 20.8004 25.6002C21.684 25.6002 22.4004 24.8838 22.4004 24.0002V12.8002Z" fill="#DD3636"/>
</svg>
