<svg width="32" height="32" viewBox="0 0 32 32" fill="none" xmlns="http://www.w3.org/2000/svg">
<path d="M16.0008 3.2002C10.6989 3.2002 6.40083 7.49826 6.40083 12.8002V18.5375L5.26946 19.6688C4.81186 20.1264 4.67497 20.8146 4.92262 21.4125C5.17027 22.0104 5.75369 22.4002 6.40083 22.4002H25.6008C26.248 22.4002 26.8314 22.0104 27.079 21.4125C27.3267 20.8146 27.1898 20.1264 26.7322 19.6688L25.6008 18.5375V12.8002C25.6008 7.49826 21.3028 3.2002 16.0008 3.2002Z" fill="#DD3636"/>
<path d="M16.0008 28.8002C13.3498 28.8002 11.2008 26.6512 11.2008 24.0002H20.8008C20.8008 26.6512 18.6517 28.8002 16.0008 28.8002Z" fill="#DD3636"/>
</svg>
