<svg width="136" height="40" viewBox="0 0 136 40" fill="none" xmlns="http://www.w3.org/2000/svg">
<rect width="136" height="40" rx="4" fill="#0D0D0D"/>
<rect x="0.919922" y="2" width="33.1034" height="36" rx="16.5517" fill="#0D0D0D"/>
<path d="M17.603 14.5585C16.7858 14.5585 15.5207 13.548 14.1885 13.5845C12.4309 13.6089 10.8188 14.6924 9.91196 16.4091C8.08716 19.8545 9.44177 24.9436 11.2218 27.7437C12.095 29.1073 13.125 30.6413 14.4908 30.5926C15.8006 30.5317 16.2932 29.6673 17.8829 29.6673C19.4614 29.6673 19.9092 30.5926 21.2974 30.5561C22.708 30.5317 23.6036 29.1682 24.4656 27.7924C25.462 26.2097 25.8762 24.6757 25.8986 24.5905C25.865 24.5783 23.1558 23.4461 23.1222 20.0371C23.0998 17.1883 25.2605 15.8247 25.3613 15.7638C24.1298 13.8037 22.2378 13.5845 21.5773 13.5358C19.8532 13.3898 18.4091 14.5585 17.603 14.5585ZM20.5138 11.6853C21.2414 10.7357 21.7228 9.40862 21.5885 8.09375C20.5473 8.14245 19.2935 8.84858 18.5434 9.79821C17.8717 10.6383 17.2896 11.9897 17.4463 13.2802C18.5994 13.3776 19.7861 12.6349 20.5138 11.6853Z" fill="white"/>
<path d="M42.3789 10.42C42.3789 10.9567 42.2939 11.445 42.1239 11.885C41.9539 12.325 41.7139 12.7017 41.4039 13.015C41.0939 13.3283 40.7206 13.5717 40.2839 13.745C39.8506 13.915 39.3706 14 38.8439 14H36.1689V6.835H38.8439C39.3706 6.835 39.8506 6.92167 40.2839 7.095C40.7206 7.265 41.0939 7.50833 41.4039 7.825C41.7139 8.13833 41.9539 8.515 42.1239 8.955C42.2939 9.395 42.3789 9.88333 42.3789 10.42ZM41.3839 10.42C41.3839 9.98 41.3239 9.58667 41.2039 9.24C41.0839 8.89333 40.9139 8.6 40.6939 8.36C40.4739 8.12 40.2072 7.93667 39.8939 7.81C39.5806 7.68333 39.2306 7.62 38.8439 7.62H37.1389V13.215H38.8439C39.2306 13.215 39.5806 13.1517 39.8939 13.025C40.2072 12.8983 40.4739 12.7167 40.6939 12.48C40.9139 12.24 41.0839 11.9467 41.2039 11.6C41.3239 11.2533 41.3839 10.86 41.3839 10.42ZM45.633 8.855C46.003 8.855 46.3363 8.91667 46.633 9.04C46.9296 9.16333 47.183 9.33833 47.393 9.565C47.603 9.79167 47.763 10.0667 47.873 10.39C47.9863 10.71 48.043 11.0683 48.043 11.465C48.043 11.865 47.9863 12.225 47.873 12.545C47.763 12.865 47.603 13.1383 47.393 13.365C47.183 13.5917 46.9296 13.7667 46.633 13.89C46.3363 14.01 46.003 14.07 45.633 14.07C45.2596 14.07 44.923 14.01 44.623 13.89C44.3263 13.7667 44.073 13.5917 43.863 13.365C43.653 13.1383 43.4913 12.865 43.378 12.545C43.268 12.225 43.213 11.865 43.213 11.465C43.213 11.0683 43.268 10.71 43.378 10.39C43.4913 10.0667 43.653 9.79167 43.863 9.565C44.073 9.33833 44.3263 9.16333 44.623 9.04C44.923 8.91667 45.2596 8.855 45.633 8.855ZM45.633 13.375C46.133 13.375 46.5063 13.2083 46.753 12.875C46.9996 12.5383 47.123 12.07 47.123 11.47C47.123 10.8667 46.9996 10.3967 46.753 10.06C46.5063 9.72333 46.133 9.555 45.633 9.555C45.3796 9.555 45.158 9.59833 44.968 9.685C44.7813 9.77167 44.6246 9.89667 44.498 10.06C44.3746 10.2233 44.2813 10.425 44.218 10.665C44.158 10.9017 44.128 11.17 44.128 11.47C44.128 12.07 44.2513 12.5383 44.498 12.875C44.748 13.2083 45.1263 13.375 45.633 13.375ZM56.0787 8.935L54.4387 14H53.7337C53.647 14 53.587 13.9433 53.5537 13.83L52.4337 10.395C52.407 10.3183 52.3853 10.2417 52.3687 10.165C52.352 10.085 52.3353 10.0067 52.3187 9.93C52.302 10.0067 52.2853 10.085 52.2687 10.165C52.252 10.2417 52.2303 10.32 52.2037 10.4L51.0637 13.83C51.0337 13.9433 50.967 14 50.8637 14H50.1937L48.5537 8.935H49.2537C49.3237 8.935 49.382 8.95333 49.4287 8.99C49.4787 9.02667 49.512 9.07 49.5287 9.12L50.4987 12.38C50.5553 12.62 50.6003 12.8467 50.6337 13.06C50.6637 12.95 50.6937 12.8383 50.7237 12.725C50.757 12.6117 50.792 12.4967 50.8287 12.38L51.8987 9.1C51.9153 9.05 51.9437 9.00833 51.9837 8.975C52.027 8.94167 52.0787 8.925 52.1387 8.925H52.5287C52.5953 8.925 52.6503 8.94167 52.6937 8.975C52.737 9.00833 52.767 9.05 52.7837 9.1L53.8287 12.38C53.8653 12.4967 53.8987 12.6117 53.9287 12.725C53.9587 12.8383 53.987 12.95 54.0137 13.06C54.0303 12.95 54.0503 12.84 54.0737 12.73C54.1003 12.6167 54.1287 12.5 54.1587 12.38L55.1487 9.12C55.1653 9.06667 55.197 9.02333 55.2437 8.99C55.2903 8.95333 55.3453 8.935 55.4087 8.935H56.0787ZM57.7852 9.67C57.8952 9.54667 58.0119 9.435 58.1352 9.335C58.2586 9.235 58.3886 9.15 58.5252 9.08C58.6652 9.00667 58.8119 8.95167 58.9652 8.915C59.1219 8.875 59.2902 8.855 59.4702 8.855C59.7469 8.855 59.9902 8.90167 60.2002 8.995C60.4136 9.085 60.5902 9.215 60.7302 9.385C60.8736 9.55167 60.9819 9.75333 61.0552 9.99C61.1286 10.2267 61.1652 10.4883 61.1652 10.775V14H60.2702V10.775C60.2702 10.3917 60.1819 10.095 60.0052 9.885C59.8319 9.67167 59.5669 9.565 59.2102 9.565C58.9469 9.565 58.7002 9.62833 58.4702 9.755C58.2436 9.88167 58.0336 10.0533 57.8402 10.27V14H56.9452V8.935H57.4802C57.6069 8.935 57.6852 8.99667 57.7152 9.12L57.7852 9.67ZM63.4414 6.635V14H62.5514V6.635H63.4414ZM67.0197 8.855C67.3897 8.855 67.723 8.91667 68.0197 9.04C68.3164 9.16333 68.5697 9.33833 68.7797 9.565C68.9897 9.79167 69.1497 10.0667 69.2597 10.39C69.373 10.71 69.4297 11.0683 69.4297 11.465C69.4297 11.865 69.373 12.225 69.2597 12.545C69.1497 12.865 68.9897 13.1383 68.7797 13.365C68.5697 13.5917 68.3164 13.7667 68.0197 13.89C67.723 14.01 67.3897 14.07 67.0197 14.07C66.6464 14.07 66.3097 14.01 66.0097 13.89C65.713 13.7667 65.4597 13.5917 65.2497 13.365C65.0397 13.1383 64.878 12.865 64.7647 12.545C64.6547 12.225 64.5997 11.865 64.5997 11.465C64.5997 11.0683 64.6547 10.71 64.7647 10.39C64.878 10.0667 65.0397 9.79167 65.2497 9.565C65.4597 9.33833 65.713 9.16333 66.0097 9.04C66.3097 8.91667 66.6464 8.855 67.0197 8.855ZM67.0197 13.375C67.5197 13.375 67.893 13.2083 68.1397 12.875C68.3864 12.5383 68.5097 12.07 68.5097 11.47C68.5097 10.8667 68.3864 10.3967 68.1397 10.06C67.893 9.72333 67.5197 9.555 67.0197 9.555C66.7664 9.555 66.5447 9.59833 66.3547 9.685C66.168 9.77167 66.0114 9.89667 65.8847 10.06C65.7614 10.2233 65.668 10.425 65.6047 10.665C65.5447 10.9017 65.5147 11.17 65.5147 11.47C65.5147 12.07 65.638 12.5383 65.8847 12.875C66.1347 13.2083 66.513 13.375 67.0197 13.375ZM73.3035 11.72C72.8935 11.7333 72.5435 11.7667 72.2535 11.82C71.9668 11.87 71.7318 11.9367 71.5485 12.02C71.3685 12.1033 71.2368 12.2017 71.1535 12.315C71.0735 12.4283 71.0335 12.555 71.0335 12.695C71.0335 12.8283 71.0552 12.9433 71.0985 13.04C71.1418 13.1367 71.2002 13.2167 71.2735 13.28C71.3502 13.34 71.4385 13.385 71.5385 13.415C71.6418 13.4417 71.7518 13.455 71.8685 13.455C72.0252 13.455 72.1685 13.44 72.2985 13.41C72.4285 13.3767 72.5502 13.33 72.6635 13.27C72.7802 13.21 72.8902 13.1383 72.9935 13.055C73.1002 12.9717 73.2035 12.8767 73.3035 12.77V11.72ZM70.4285 9.65C70.7085 9.38 71.0102 9.17833 71.3335 9.045C71.6568 8.91167 72.0152 8.845 72.4085 8.845C72.6918 8.845 72.9435 8.89167 73.1635 8.985C73.3835 9.07833 73.5685 9.20833 73.7185 9.375C73.8685 9.54167 73.9818 9.74333 74.0585 9.98C74.1352 10.2167 74.1735 10.4767 74.1735 10.76V14H73.7785C73.6918 14 73.6252 13.9867 73.5785 13.96C73.5318 13.93 73.4952 13.8733 73.4685 13.79L73.3685 13.31C73.2352 13.4333 73.1052 13.5433 72.9785 13.64C72.8518 13.7333 72.7185 13.8133 72.5785 13.88C72.4385 13.9433 72.2885 13.9917 72.1285 14.025C71.9718 14.0617 71.7968 14.08 71.6035 14.08C71.4068 14.08 71.2218 14.0533 71.0485 14C70.8752 13.9433 70.7235 13.86 70.5935 13.75C70.4668 13.64 70.3652 13.5017 70.2885 13.335C70.2152 13.165 70.1785 12.965 70.1785 12.735C70.1785 12.535 70.2335 12.3433 70.3435 12.16C70.4535 11.9733 70.6318 11.8083 70.8785 11.665C71.1252 11.5217 71.4468 11.405 71.8435 11.315C72.2402 11.2217 72.7268 11.1683 73.3035 11.155V10.76C73.3035 10.3667 73.2185 10.07 73.0485 9.87C72.8785 9.66667 72.6302 9.565 72.3035 9.565C72.0835 9.565 71.8985 9.59333 71.7485 9.65C71.6018 9.70333 71.4735 9.765 71.3635 9.835C71.2568 9.90167 71.1635 9.96333 71.0835 10.02C71.0068 10.0733 70.9302 10.1 70.8535 10.1C70.7935 10.1 70.7418 10.085 70.6985 10.055C70.6552 10.0217 70.6185 9.98167 70.5885 9.935L70.4285 9.65ZM78.8292 10.14C78.6626 9.91667 78.4826 9.76167 78.2892 9.675C78.0959 9.585 77.8792 9.54 77.6392 9.54C77.1692 9.54 76.8076 9.70833 76.5542 10.045C76.3009 10.3817 76.1742 10.8617 76.1742 11.485C76.1742 11.815 76.2026 12.0983 76.2592 12.335C76.3159 12.5683 76.3992 12.7617 76.5092 12.915C76.6192 13.065 76.7542 13.175 76.9142 13.245C77.0742 13.315 77.2559 13.35 77.4592 13.35C77.7526 13.35 78.0076 13.2833 78.2242 13.15C78.4442 13.0167 78.6459 12.8283 78.8292 12.585V10.14ZM79.7192 6.635V14H79.1892C79.0626 14 78.9826 13.9383 78.9492 13.815L78.8692 13.2C78.6526 13.46 78.4059 13.67 78.1292 13.83C77.8526 13.99 77.5326 14.07 77.1692 14.07C76.8792 14.07 76.6159 14.015 76.3792 13.905C76.1426 13.7917 75.9409 13.6267 75.7742 13.41C75.6076 13.1933 75.4792 12.9233 75.3892 12.6C75.2992 12.2767 75.2542 11.905 75.2542 11.485C75.2542 11.1117 75.3042 10.765 75.4042 10.445C75.5042 10.1217 75.6476 9.84167 75.8342 9.605C76.0209 9.36833 76.2492 9.18333 76.5192 9.05C76.7926 8.91333 77.0992 8.845 77.4392 8.845C77.7492 8.845 78.0142 8.89833 78.2342 9.005C78.4576 9.10833 78.6559 9.25333 78.8292 9.44V6.635H79.7192ZM85.8185 8.855C86.1885 8.855 86.5218 8.91667 86.8185 9.04C87.1152 9.16333 87.3685 9.33833 87.5785 9.565C87.7885 9.79167 87.9485 10.0667 88.0585 10.39C88.1718 10.71 88.2285 11.0683 88.2285 11.465C88.2285 11.865 88.1718 12.225 88.0585 12.545C87.9485 12.865 87.7885 13.1383 87.5785 13.365C87.3685 13.5917 87.1152 13.7667 86.8185 13.89C86.5218 14.01 86.1885 14.07 85.8185 14.07C85.4452 14.07 85.1085 14.01 84.8085 13.89C84.5118 13.7667 84.2585 13.5917 84.0485 13.365C83.8385 13.1383 83.6768 12.865 83.5635 12.545C83.4535 12.225 83.3985 11.865 83.3985 11.465C83.3985 11.0683 83.4535 10.71 83.5635 10.39C83.6768 10.0667 83.8385 9.79167 84.0485 9.565C84.2585 9.33833 84.5118 9.16333 84.8085 9.04C85.1085 8.91667 85.4452 8.855 85.8185 8.855ZM85.8185 13.375C86.3185 13.375 86.6918 13.2083 86.9385 12.875C87.1852 12.5383 87.3085 12.07 87.3085 11.47C87.3085 10.8667 87.1852 10.3967 86.9385 10.06C86.6918 9.72333 86.3185 9.555 85.8185 9.555C85.5652 9.555 85.3435 9.59833 85.1535 9.685C84.9668 9.77167 84.8102 9.89667 84.6835 10.06C84.5602 10.2233 84.4668 10.425 84.4035 10.665C84.3435 10.9017 84.3135 11.17 84.3135 11.47C84.3135 12.07 84.4368 12.5383 84.6835 12.875C84.9335 13.2083 85.3118 13.375 85.8185 13.375ZM90.1973 9.67C90.3073 9.54667 90.424 9.435 90.5473 9.335C90.6707 9.235 90.8007 9.15 90.9373 9.08C91.0773 9.00667 91.224 8.95167 91.3773 8.915C91.534 8.875 91.7023 8.855 91.8823 8.855C92.159 8.855 92.4023 8.90167 92.6123 8.995C92.8257 9.085 93.0023 9.215 93.1423 9.385C93.2857 9.55167 93.394 9.75333 93.4673 9.99C93.5407 10.2267 93.5773 10.4883 93.5773 10.775V14H92.6823V10.775C92.6823 10.3917 92.594 10.095 92.4173 9.885C92.244 9.67167 91.979 9.565 91.6223 9.565C91.359 9.565 91.1123 9.62833 90.8823 9.755C90.6557 9.88167 90.4457 10.0533 90.2523 10.27V14H89.3573V8.935H89.8923C90.019 8.935 90.0973 8.99667 90.1273 9.12L90.1973 9.67ZM99.0471 14.08C98.6471 14.08 98.3388 13.9683 98.1221 13.745C97.9088 13.5217 97.8021 13.2 97.8021 12.78V9.68H97.1921C97.1388 9.68 97.0938 9.665 97.0571 9.635C97.0204 9.60167 97.0021 9.55167 97.0021 9.485V9.13L97.8321 9.025L98.0371 7.46C98.0471 7.41 98.0688 7.37 98.1021 7.34C98.1388 7.30667 98.1854 7.29 98.2421 7.29H98.6921V9.035H100.157V9.68H98.6921V12.72C98.6921 12.9333 98.7438 13.0917 98.8471 13.195C98.9504 13.2983 99.0838 13.35 99.2471 13.35C99.3404 13.35 99.4204 13.3383 99.4871 13.315C99.5571 13.2883 99.6171 13.26 99.6671 13.23C99.7171 13.2 99.7588 13.1733 99.7921 13.15C99.8288 13.1233 99.8604 13.11 99.8871 13.11C99.9338 13.11 99.9754 13.1383 100.012 13.195L100.272 13.62C100.119 13.7633 99.9338 13.8767 99.7171 13.96C99.5004 14.04 99.2771 14.08 99.0471 14.08ZM101.971 9.61C102.188 9.38 102.428 9.19667 102.691 9.06C102.954 8.92333 103.258 8.855 103.601 8.855C103.878 8.855 104.121 8.90167 104.331 8.995C104.544 9.085 104.721 9.215 104.861 9.385C105.004 9.55167 105.113 9.75333 105.186 9.99C105.259 10.2267 105.296 10.4883 105.296 10.775V14H104.401V10.775C104.401 10.3917 104.313 10.095 104.136 9.885C103.963 9.67167 103.698 9.565 103.341 9.565C103.078 9.565 102.831 9.62833 102.601 9.755C102.374 9.88167 102.164 10.0533 101.971 10.27V14H101.076V6.635H101.971V9.61ZM110.042 10.915C110.042 10.7083 110.012 10.52 109.952 10.35C109.896 10.1767 109.811 10.0283 109.697 9.905C109.587 9.77833 109.452 9.68167 109.292 9.615C109.132 9.545 108.951 9.51 108.747 9.51C108.321 9.51 107.982 9.635 107.732 9.885C107.486 10.1317 107.332 10.475 107.272 10.915H110.042ZM110.762 13.29C110.652 13.4233 110.521 13.54 110.367 13.64C110.214 13.7367 110.049 13.8167 109.872 13.88C109.699 13.9433 109.519 13.99 109.332 14.02C109.146 14.0533 108.961 14.07 108.777 14.07C108.427 14.07 108.104 14.0117 107.807 13.895C107.514 13.775 107.259 13.6017 107.042 13.375C106.829 13.145 106.662 12.8617 106.542 12.525C106.422 12.1883 106.362 11.8017 106.362 11.365C106.362 11.0117 106.416 10.6817 106.522 10.375C106.632 10.0683 106.789 9.80333 106.992 9.58C107.196 9.35333 107.444 9.17667 107.737 9.05C108.031 8.92 108.361 8.855 108.727 8.855C109.031 8.855 109.311 8.90667 109.567 9.01C109.827 9.11 110.051 9.25667 110.237 9.45C110.427 9.64 110.576 9.87667 110.682 10.16C110.789 10.44 110.842 10.76 110.842 11.12C110.842 11.26 110.827 11.3533 110.797 11.4C110.767 11.4467 110.711 11.47 110.627 11.47H107.242C107.252 11.79 107.296 12.0683 107.372 12.305C107.452 12.5417 107.562 12.74 107.702 12.9C107.842 13.0567 108.009 13.175 108.202 13.255C108.396 13.3317 108.612 13.37 108.852 13.37C109.076 13.37 109.267 13.345 109.427 13.295C109.591 13.2417 109.731 13.185 109.847 13.125C109.964 13.065 110.061 13.01 110.137 12.96C110.217 12.9067 110.286 12.88 110.342 12.88C110.416 12.88 110.472 12.9083 110.512 12.965L110.762 13.29ZM41.8619 26.276L40.2869 22.195C40.2402 22.0737 40.1912 21.9337 40.1399 21.775C40.0886 21.6117 40.0396 21.439 39.9929 21.257C39.8949 21.635 39.7946 21.95 39.6919 22.202L38.1169 26.276H41.8619ZM44.6899 30H43.6399C43.5186 30 43.4206 29.9697 43.3459 29.909C43.2712 29.8483 43.2152 29.7713 43.1779 29.678L42.2399 27.256H37.7389L36.8009 29.678C36.7729 29.762 36.7192 29.8367 36.6399 29.902C36.5606 29.9673 36.4626 30 36.3459 30H35.2959L39.3069 19.969H40.6789L44.6899 30ZM46.9412 28.292C47.1698 28.6 47.4195 28.817 47.6902 28.943C47.9608 29.069 48.2642 29.132 48.6002 29.132C49.2628 29.132 49.7715 28.8963 50.1262 28.425C50.4808 27.9537 50.6582 27.2817 50.6582 26.409C50.6582 25.947 50.6162 25.5503 50.5322 25.219C50.4528 24.8877 50.3362 24.617 50.1822 24.407C50.0282 24.1923 49.8392 24.036 49.6152 23.938C49.3912 23.84 49.1368 23.791 48.8522 23.791C48.4462 23.791 48.0892 23.8843 47.7812 24.071C47.4778 24.2577 47.1978 24.5213 46.9412 24.862V28.292ZM46.8782 24.008C47.1768 23.6393 47.5222 23.343 47.9142 23.119C48.3062 22.895 48.7542 22.783 49.2582 22.783C49.6688 22.783 50.0398 22.8623 50.3712 23.021C50.7025 23.175 50.9848 23.406 51.2182 23.714C51.4515 24.0173 51.6312 24.3953 51.7572 24.848C51.8832 25.3007 51.9462 25.821 51.9462 26.409C51.9462 26.9317 51.8762 27.4193 51.7362 27.872C51.5962 28.32 51.3932 28.7097 51.1272 29.041C50.8658 29.3677 50.5438 29.6267 50.1612 29.818C49.7832 30.0047 49.3562 30.098 48.8802 30.098C48.4462 30.098 48.0728 30.0257 47.7602 29.881C47.4522 29.7317 47.1792 29.5263 46.9412 29.265V32.401H45.6882V22.909H46.4372C46.6145 22.909 46.7242 22.9953 46.7662 23.168L46.8782 24.008ZM54.7888 28.292C55.0175 28.6 55.2672 28.817 55.5378 28.943C55.8085 29.069 56.1118 29.132 56.4478 29.132C57.1105 29.132 57.6192 28.8963 57.9738 28.425C58.3285 27.9537 58.5058 27.2817 58.5058 26.409C58.5058 25.947 58.4638 25.5503 58.3798 25.219C58.3005 24.8877 58.1838 24.617 58.0298 24.407C57.8758 24.1923 57.6868 24.036 57.4628 23.938C57.2388 23.84 56.9845 23.791 56.6998 23.791C56.2938 23.791 55.9368 23.8843 55.6288 24.071C55.3255 24.2577 55.0455 24.5213 54.7888 24.862V28.292ZM54.7258 24.008C55.0245 23.6393 55.3698 23.343 55.7618 23.119C56.1538 22.895 56.6018 22.783 57.1058 22.783C57.5165 22.783 57.8875 22.8623 58.2188 23.021C58.5502 23.175 58.8325 23.406 59.0658 23.714C59.2992 24.0173 59.4788 24.3953 59.6048 24.848C59.7308 25.3007 59.7938 25.821 59.7938 26.409C59.7938 26.9317 59.7238 27.4193 59.5838 27.872C59.4438 28.32 59.2408 28.7097 58.9748 29.041C58.7135 29.3677 58.3915 29.6267 58.0088 29.818C57.6308 30.0047 57.2038 30.098 56.7278 30.098C56.2938 30.098 55.9205 30.0257 55.6078 29.881C55.2998 29.7317 55.0268 29.5263 54.7888 29.265V32.401H53.5358V22.909H54.2848C54.4622 22.909 54.5718 22.9953 54.6138 23.168L54.7258 24.008ZM65.5135 24.078C65.4575 24.1807 65.3712 24.232 65.2545 24.232C65.1845 24.232 65.1052 24.2063 65.0165 24.155C64.9278 24.1037 64.8182 24.0477 64.6875 23.987C64.5615 23.9217 64.4098 23.8633 64.2325 23.812C64.0552 23.756 63.8452 23.728 63.6025 23.728C63.3925 23.728 63.2035 23.756 63.0355 23.812C62.8675 23.8633 62.7228 23.9357 62.6015 24.029C62.4848 24.1223 62.3938 24.232 62.3285 24.358C62.2678 24.4793 62.2375 24.6123 62.2375 24.757C62.2375 24.939 62.2888 25.0907 62.3915 25.212C62.4988 25.3333 62.6388 25.4383 62.8115 25.527C62.9842 25.6157 63.1802 25.695 63.3995 25.765C63.6188 25.8303 63.8428 25.9027 64.0715 25.982C64.3048 26.0567 64.5312 26.1407 64.7505 26.234C64.9698 26.3273 65.1658 26.444 65.3385 26.584C65.5112 26.724 65.6488 26.8967 65.7515 27.102C65.8588 27.3027 65.9125 27.5453 65.9125 27.83C65.9125 28.1567 65.8542 28.46 65.7375 28.74C65.6208 29.0153 65.4482 29.2557 65.2195 29.461C64.9908 29.6617 64.7108 29.8203 64.3795 29.937C64.0482 30.0537 63.6655 30.112 63.2315 30.112C62.7368 30.112 62.2888 30.0327 61.8875 29.874C61.4862 29.7107 61.1455 29.503 60.8655 29.251L61.1595 28.775C61.1968 28.7143 61.2412 28.6677 61.2925 28.635C61.3438 28.6023 61.4092 28.586 61.4885 28.586C61.5725 28.586 61.6612 28.6187 61.7545 28.684C61.8478 28.7493 61.9598 28.8217 62.0905 28.901C62.2258 28.9803 62.3892 29.0527 62.5805 29.118C62.7718 29.1833 63.0098 29.216 63.2945 29.216C63.5372 29.216 63.7495 29.1857 63.9315 29.125C64.1135 29.0597 64.2652 28.9733 64.3865 28.866C64.5078 28.7587 64.5965 28.635 64.6525 28.495C64.7132 28.355 64.7435 28.2057 64.7435 28.047C64.7435 27.851 64.6898 27.69 64.5825 27.564C64.4798 27.4333 64.3422 27.3237 64.1695 27.235C63.9968 27.1417 63.7985 27.0623 63.5745 26.997C63.3552 26.927 63.1288 26.8547 62.8955 26.78C62.6668 26.7053 62.4405 26.6213 62.2165 26.528C61.9972 26.43 61.8012 26.3087 61.6285 26.164C61.4558 26.0193 61.3158 25.842 61.2085 25.632C61.1058 25.4173 61.0545 25.1583 61.0545 24.855C61.0545 24.5843 61.1105 24.3253 61.2225 24.078C61.3345 23.826 61.4978 23.6067 61.7125 23.42C61.9272 23.2287 62.1908 23.077 62.5035 22.965C62.8162 22.853 63.1732 22.797 63.5745 22.797C64.0412 22.797 64.4588 22.8717 64.8275 23.021C65.2008 23.1657 65.5228 23.3663 65.7935 23.623L65.5135 24.078ZM69.6171 30.112C69.0571 30.112 68.6255 29.9557 68.3221 29.643C68.0235 29.3303 67.8741 28.88 67.8741 28.292V23.952H67.0201C66.9455 23.952 66.8825 23.931 66.8311 23.889C66.7798 23.8423 66.7541 23.7723 66.7541 23.679V23.182L67.9161 23.035L68.2031 20.844C68.2171 20.774 68.2475 20.718 68.2941 20.676C68.3455 20.6293 68.4108 20.606 68.4901 20.606H69.1201V23.049H71.1711V23.952H69.1201V28.208C69.1201 28.5067 69.1925 28.7283 69.3371 28.873C69.4818 29.0177 69.6685 29.09 69.8971 29.09C70.0278 29.09 70.1398 29.0737 70.2331 29.041C70.3311 29.0037 70.4151 28.964 70.4851 28.922C70.5551 28.88 70.6135 28.8427 70.6601 28.81C70.7115 28.7727 70.7558 28.754 70.7931 28.754C70.8585 28.754 70.9168 28.7937 70.9681 28.873L71.3321 29.468C71.1175 29.6687 70.8585 29.8273 70.5551 29.944C70.2518 30.056 69.9391 30.112 69.6171 30.112ZM75.4057 22.797C75.9237 22.797 76.3904 22.8833 76.8057 23.056C77.221 23.2287 77.5757 23.4737 77.8697 23.791C78.1637 24.1083 78.3877 24.4933 78.5417 24.946C78.7004 25.394 78.7797 25.8957 78.7797 26.451C78.7797 27.011 78.7004 27.515 78.5417 27.963C78.3877 28.411 78.1637 28.7937 77.8697 29.111C77.5757 29.4283 77.221 29.6733 76.8057 29.846C76.3904 30.014 75.9237 30.098 75.4057 30.098C74.883 30.098 74.4117 30.014 73.9917 29.846C73.5764 29.6733 73.2217 29.4283 72.9277 29.111C72.6337 28.7937 72.4074 28.411 72.2487 27.963C72.0947 27.515 72.0177 27.011 72.0177 26.451C72.0177 25.8957 72.0947 25.394 72.2487 24.946C72.4074 24.4933 72.6337 24.1083 72.9277 23.791C73.2217 23.4737 73.5764 23.2287 73.9917 23.056C74.4117 22.8833 74.883 22.797 75.4057 22.797ZM75.4057 29.125C76.1057 29.125 76.6284 28.8917 76.9737 28.425C77.319 27.9537 77.4917 27.298 77.4917 26.458C77.4917 25.6133 77.319 24.9553 76.9737 24.484C76.6284 24.0127 76.1057 23.777 75.4057 23.777C75.051 23.777 74.7407 23.8377 74.4747 23.959C74.2134 24.0803 73.994 24.2553 73.8167 24.484C73.644 24.7127 73.5134 24.995 73.4247 25.331C73.3407 25.6623 73.2987 26.038 73.2987 26.458C73.2987 27.298 73.4714 27.9537 73.8167 28.425C74.1667 28.8917 74.6964 29.125 75.4057 29.125ZM81.543 24.33C81.767 23.8447 82.0424 23.4667 82.369 23.196C82.6957 22.9207 83.0947 22.783 83.566 22.783C83.7154 22.783 83.8577 22.7993 83.993 22.832C84.133 22.8647 84.2567 22.916 84.364 22.986L84.273 23.917C84.245 24.0337 84.175 24.092 84.063 24.092C83.9977 24.092 83.902 24.078 83.776 24.05C83.65 24.022 83.5077 24.008 83.349 24.008C83.125 24.008 82.9244 24.0407 82.747 24.106C82.5744 24.1713 82.418 24.2693 82.278 24.4C82.1427 24.526 82.019 24.6847 81.907 24.876C81.7997 25.0627 81.7017 25.2773 81.613 25.52V30H80.36V22.909H81.074C81.2094 22.909 81.3027 22.9347 81.354 22.986C81.4054 23.0373 81.4404 23.126 81.459 23.252L81.543 24.33ZM89.9185 25.681C89.9185 25.3917 89.8765 25.128 89.7925 24.89C89.7132 24.6473 89.5942 24.4397 89.4355 24.267C89.2815 24.0897 89.0925 23.9543 88.8685 23.861C88.6445 23.763 88.3902 23.714 88.1055 23.714C87.5082 23.714 87.0345 23.889 86.6845 24.239C86.3392 24.5843 86.1245 25.065 86.0405 25.681H89.9185ZM90.9265 29.006C90.7725 29.1927 90.5882 29.356 90.3735 29.496C90.1589 29.6313 89.9279 29.7433 89.6805 29.832C89.4379 29.9207 89.1859 29.986 88.9245 30.028C88.6632 30.0747 88.4042 30.098 88.1475 30.098C87.6575 30.098 87.2049 30.0163 86.7895 29.853C86.3789 29.685 86.0219 29.4423 85.7185 29.125C85.4199 28.803 85.1865 28.4063 85.0185 27.935C84.8505 27.4637 84.7665 26.9223 84.7665 26.311C84.7665 25.8163 84.8412 25.3543 84.9905 24.925C85.1445 24.4957 85.3639 24.1247 85.6485 23.812C85.9332 23.4947 86.2809 23.2473 86.6915 23.07C87.1022 22.888 87.5642 22.797 88.0775 22.797C88.5022 22.797 88.8942 22.8693 89.2535 23.014C89.6175 23.154 89.9302 23.3593 90.1915 23.63C90.4575 23.896 90.6652 24.2273 90.8145 24.624C90.9639 25.016 91.0385 25.464 91.0385 25.968C91.0385 26.164 91.0175 26.2947 90.9755 26.36C90.9335 26.4253 90.8542 26.458 90.7375 26.458H85.9985C86.0125 26.906 86.0732 27.2957 86.1805 27.627C86.2925 27.9583 86.4465 28.236 86.6425 28.46C86.8385 28.6793 87.0719 28.845 87.3425 28.957C87.6132 29.0643 87.9165 29.118 88.2525 29.118C88.5652 29.118 88.8335 29.083 89.0575 29.013C89.2862 28.9383 89.4822 28.859 89.6455 28.775C89.8089 28.691 89.9442 28.614 90.0515 28.544C90.1635 28.4693 90.2592 28.432 90.3385 28.432C90.4412 28.432 90.5205 28.4717 90.5765 28.551L90.9265 29.006Z" fill="white"/>
</svg>
