    <svg width="35" height="35" viewBox="0 0 35 35" fill="none" xmlns="http://www.w3.org/2000/svg">
            <path opacity="0.6" d="M14.7431 5.83325C14.6264 6.27075 14.5827 6.752 14.5827 7.29159V11.6666H7.29102V8.74992C7.29102 7.14575 8.60352 5.83325 10.2077 5.83325H14.7431Z" fill="#292D32"/>
            <path d="M14.5827 27.7084V11.6667H7.29102C4.37435 11.6667 2.91602 13.1251 2.91602 16.0417V27.7084C2.91602 30.6251 4.37435 32.0834 7.29102 32.0834H18.9577C16.041 32.0834 14.5827 30.6251 14.5827 27.7084ZM9.8431 24.7917C9.8431 25.3897 9.34727 25.8855 8.74935 25.8855C8.15143 25.8855 7.6556 25.3897 7.6556 24.7917V18.9584C7.6556 18.3605 8.15143 17.8647 8.74935 17.8647C9.34727 17.8647 9.8431 18.3605 9.8431 18.9584V24.7917Z" fill="#292D32"/>
            <path opacity="0.4" d="M20.4173 32.0834H18.959C16.0423 32.0834 14.584 30.6251 14.584 27.7084V7.29175C14.584 4.37508 16.0423 2.91675 18.959 2.91675H27.709C30.6257 2.91675 32.084 4.37508 32.084 7.29175V27.7084C32.084 30.6251 30.6257 32.0834 27.709 32.0834H26.2507" fill="#292D32"/>
            <path d="M26.2493 26.2501V32.0834H20.416V26.2501C20.416 25.448 21.0723 24.7917 21.8743 24.7917H24.791C25.5931 24.7917 26.2493 25.448 26.2493 26.2501Z" fill="#292D32"/>
            <path d="M20.416 20.0522C19.8181 20.0522 19.3223 19.5563 19.3223 18.9584V11.6667C19.3223 11.0688 19.8181 10.573 20.416 10.573C21.0139 10.573 21.5098 11.0688 21.5098 11.6667V18.9584C21.5098 19.5563 21.0139 20.0522 20.416 20.0522Z" fill="#292D32"/>
            <path d="M26.25 20.0522C25.6521 20.0522 25.1562 19.5563 25.1562 18.9584V11.6667C25.1562 11.0688 25.6521 10.573 26.25 10.573C26.8479 10.573 27.3438 11.0688 27.3438 11.6667V18.9584C27.3438 19.5563 26.8479 20.0522 26.25 20.0522Z" fill="#292D32"/>
            </svg>