<svg width="144" height="19" viewBox="0 0 144 19" fill="none" xmlns="http://www.w3.org/2000/svg">
<g clip-path="url(#clip0_1419_1625)">
<path d="M6.54545 9.5L3.30169 11.628L0 9.5L3.30169 7.334L6.54545 9.5ZM14.4811 4.294L20.0998 7.98L23.4014 5.814L14.4811 0L5.61866 5.814L8.92035 7.98L14.4811 4.294ZM25.6605 7.334L22.4167 9.5L25.7184 11.666L28.9622 9.5L25.6605 7.334ZM14.4811 14.706L8.86243 11.02L5.56074 13.186L14.4811 19L23.3435 13.186L20.0998 11.02L14.4811 14.706ZM14.4811 11.628L17.7828 9.462L14.4811 7.334L11.1794 9.5L14.4811 11.628ZM49.004 11.856C49.004 10.412 47.8455 9.728 46.0499 9.272C47.2084 8.854 48.1352 8.208 48.1352 7.03V6.992C48.1352 5.358 46.1078 4.294 42.922 4.294H35.5076V14.706H43.0378C46.6291 14.706 49.004 13.756 49.004 11.856ZM44.6018 7.41C44.6018 8.208 43.6171 8.512 42.111 8.512H38.8673V6.308H42.3427C43.7908 6.308 44.6018 6.688 44.6018 7.41ZM45.5286 11.552C45.5286 12.312 44.6018 12.692 43.0957 12.692H38.9252V10.412H42.9799C44.7176 10.412 45.5286 10.83 45.5286 11.552ZM56.3025 14.706V4.294H52.7691V14.706H56.3025ZM75.07 14.706V4.294H71.5945V10.716L64.1802 4.294H60.9364V14.706H64.4119V8.094L72.1159 14.706H75.07ZM94.4167 14.706L87.5817 4.218H84.3379L77.5028 14.706H81.0941L82.5422 12.35H89.2615L90.7096 14.706H94.4167ZM88.0451 10.336H83.8166L85.9598 6.954L88.0451 10.336ZM111.099 14.706V4.294H107.623V10.716L100.209 4.294H96.9654V14.706H100.441V8.094L108.145 14.706H111.099ZM129.113 13.034L126.854 11.552C125.58 12.312 124.479 12.768 122.684 12.768C119.961 12.768 118.05 11.286 118.05 9.5V9.462C118.05 7.676 119.961 6.232 122.684 6.232C124.248 6.232 125.522 6.688 126.739 7.41L128.998 5.738C127.549 4.788 125.754 4.142 122.742 4.142C117.876 4.142 114.459 6.574 114.459 9.538V9.5C114.459 12.502 117.934 14.858 122.626 14.858C125.638 14.896 127.492 14.174 129.113 13.034ZM144 14.706V12.654H135.369V10.45H142.842V8.398H135.369V6.27H143.884V4.218H131.894V14.63L144 14.706Z" fill="#F0B90B"/>
</g>
<defs>
<clipPath id="clip0_1419_1625">
<rect width="144" height="19" fill="white"/>
</clipPath>
</defs>
</svg>
