<svg width="48" height="48" viewBox="0 0 48 48" fill="none" xmlns="http://www.w3.org/2000/svg">
<path d="M47.28 29.8038C44.0779 42.6789 31.036 50.484 18.1942 47.2819C5.3525 44.0798 -2.48597 31.0379 0.716131 18.1962C3.91823 5.32109 16.9601 -2.48402 29.8019 0.718079C42.677 3.88682 50.4821 16.9287 47.28 29.8038Z" fill="#F7931A"/>
<path d="M34.5714 20.5638C35.0384 17.3617 32.6035 15.6606 29.3013 14.4931L30.3687 10.157L27.7336 9.48985L26.6996 13.6926C25.9992 13.5258 25.2987 13.359 24.5982 13.1923L25.6656 8.95617L23.0306 8.28906L21.9632 12.6252C21.3962 12.4918 20.8291 12.3584 20.2954 12.225L16.6597 11.3244L15.9593 14.1262C15.9593 14.1262 17.9272 14.5598 17.8605 14.5932C18.9279 14.86 19.128 15.5605 19.0946 16.1275L17.8605 21.0641C17.9272 21.0975 18.0273 21.0975 18.1273 21.1642C18.0273 21.1308 17.9606 21.1308 17.8605 21.0975L16.126 28.002C15.9926 28.3355 15.6591 28.8025 14.9252 28.6357C14.9586 28.6691 13.024 28.1688 13.024 28.1688L11.7231 31.1707L15.1587 32.038C15.7925 32.2047 16.4262 32.3715 17.0266 32.5383L15.9259 36.9078L18.561 37.5749L19.6283 33.2387C20.3621 33.4389 21.0292 33.6056 21.7297 33.7724L20.6623 38.0752L23.2974 38.7423L24.3981 34.3728C28.9011 35.2067 32.2699 34.8731 33.7042 30.8038C34.8383 27.535 33.6375 25.6338 31.2693 24.3996C32.937 24.0327 34.2379 22.8986 34.5714 20.5638ZM28.5675 29.0026C27.767 32.2714 22.23 30.5036 20.4622 30.07L21.8965 24.2662C23.6977 24.6998 29.4014 25.6004 28.5675 29.0026ZM29.368 20.5304C28.6342 23.499 24.0312 21.998 22.5636 21.6311L23.8644 16.361C25.3654 16.7279 30.1686 17.4284 29.368 20.5304Z" fill="white"/>
</svg>
