<svg width="82" height="25" viewBox="0 0 82 25" fill="none" xmlns="http://www.w3.org/2000/svg">
<g clip-path="url(#clip0_456_1131)">
<mask id="mask0_456_1131" style="mask-type:luminance" maskUnits="userSpaceOnUse" x="0" y="0" width="82" height="25">
<path d="M0 0H82V25H0V0Z" fill="white"/>
</mask>
<g mask="url(#mask0_456_1131)">
<path d="M32.1404 12.5574C32.7574 12.2137 33.251 11.7855 33.6109 11.2809C34.0198 10.7103 34.2361 10.0283 34.2295 9.33086C34.2295 7.98555 33.7168 6.93477 32.7065 6.20898C31.7082 5.49023 30.3349 5.12695 28.6232 5.12695H22.4342V20.7137H28.8708C30.6732 20.7137 32.1166 20.3027 33.1603 19.491C34.2119 18.6723 34.7461 17.5262 34.7461 16.0832C34.7461 15.2043 34.4946 14.4488 34.0002 13.8371C33.5567 13.2902 32.9318 12.8605 32.1404 12.5574ZM25.7835 7.93633H28.3541C29.1606 7.93633 29.7688 8.08945 30.1645 8.3918C30.5546 8.68867 30.7456 9.08086 30.7456 9.58711C30.7456 10.0949 30.5546 10.5059 30.1645 10.8051C29.7688 11.1066 29.1606 11.2598 28.3541 11.2598H25.7835V7.93633ZM30.623 17.3762C30.1772 17.727 29.4965 17.9043 28.6009 17.9043H25.7835V14.0902H28.6017C29.4965 14.0902 30.178 14.2621 30.6254 14.598C31.0689 14.934 31.2838 15.377 31.2838 15.9543C31.2838 16.5621 31.0681 17.027 30.623 17.3762ZM39.2721 9.0582H35.8997V20.7129H39.2713L39.2721 9.0582ZM72.5744 10.8121C72.0346 10.184 71.3543 9.68675 70.5865 9.35898C69.8015 9.01758 68.9186 8.84414 67.9641 8.84414C66.7938 8.84414 65.7382 9.10508 64.825 9.61914C63.922 10.1235 63.1762 10.8598 62.6675 11.7488C62.1493 12.6473 61.8873 13.6879 61.8873 14.8434C61.8873 15.9996 62.1421 17.109 62.6436 18.0207C63.1338 18.9215 63.8807 19.6626 64.7932 20.1535C65.7143 20.6527 66.7962 20.9059 68.0095 20.9059C69.4982 20.9059 70.7617 20.5387 71.7671 19.8129C72.7344 19.1152 73.3992 18.1316 73.7622 16.8988H70.3676C70.1892 17.3184 69.9377 17.6754 69.577 17.927C69.1511 18.2238 68.601 18.3738 67.9418 18.3738C67.3702 18.3738 66.8798 18.2379 66.4849 17.9691C66.0892 17.6996 65.7867 17.3027 65.5877 16.7863C65.4606 16.447 65.3753 16.094 65.3337 15.7348H73.8211L73.8378 15.6316C73.9891 14.6918 73.9509 13.8012 73.7232 12.9848C73.5055 12.1871 73.1135 11.4455 72.5744 10.8113V10.8121ZM65.3879 13.5777C65.4394 13.3363 65.5099 13.0991 65.5988 12.8684C65.8058 12.3449 66.1044 11.9426 66.4873 11.6738C66.8686 11.4051 67.3431 11.2699 67.8972 11.2699C68.5922 11.2699 69.163 11.491 69.5929 11.9262C70.0014 12.3402 70.2322 12.9059 70.2816 13.577L65.3879 13.5777ZM39.3421 5.12695H35.8297V7.93633H39.3421V5.12695ZM57.8056 10.3809C57.4255 9.92547 56.9505 9.5552 56.4124 9.29492C55.7835 8.9957 55.0471 8.84414 54.2239 8.84414C53.2168 8.84414 52.3132 9.08867 51.541 9.56836C50.7688 10.0488 50.1558 10.727 49.7219 11.5832C49.288 12.4379 49.0683 13.441 49.0683 14.566C49.0683 15.691 49.2991 16.6355 49.7561 17.4957C50.2139 18.359 50.8484 19.0465 51.6421 19.5402C52.4366 20.0348 53.3434 20.2863 54.337 20.2863C55.0869 20.2863 55.7724 20.127 56.3726 19.8121C56.8354 19.5729 57.24 19.2384 57.5589 18.8316V20.1004C57.5589 20.8871 57.3487 21.491 56.9347 21.8934C56.5191 22.2957 55.887 22.4988 55.0559 22.4988C54.3394 22.4988 53.7765 22.3395 53.3824 22.0246C53.06 21.7668 52.7782 21.4293 52.7129 20.7137H49.4616C49.4918 21.7152 49.7911 22.3895 50.2147 22.9809C50.6884 23.6426 51.3555 24.1605 52.1994 24.5184C53.0337 24.8715 54.0034 25.0512 55.0782 25.0512C56.8837 25.0512 58.3207 24.6059 59.3493 23.7285C60.3843 22.8465 60.9081 21.6113 60.9081 20.0582V9.0582H57.8064L57.8056 10.3809ZM57.2125 16.1145C57.0171 16.5275 56.7056 16.8771 56.3145 17.1223C55.9324 17.3566 55.4706 17.477 54.9436 17.477C54.1793 17.477 53.5862 17.2215 53.1285 16.6973C52.6715 16.1746 52.4398 15.4574 52.4398 14.5652C52.4398 13.673 52.6707 12.9559 53.1277 12.4332C53.5807 11.916 54.1913 11.6535 54.9428 11.6535C55.6951 11.6535 56.3591 11.9191 56.8264 12.4449C57.2977 12.9754 57.5366 13.6957 57.5366 14.5855C57.5366 15.1629 57.4275 15.6762 57.2125 16.1137V16.1145ZM82.0012 11.8465V9.05898H79.5675V5.12695H76.2182V9.05898H74.1396V11.8465H76.2182V16.409C76.2182 18.9457 76.7277 20.8098 79.9011 20.752L81.8937 20.7129V18.1012H80.905C79.4942 18.1012 79.5731 17.2941 79.5731 15.7949L79.5675 11.8473L82.0012 11.8465ZM48.2491 11.8465V9.05898H45.8153V5.12695H42.4661V9.05898H40.3866V11.8465H42.4645V16.409C42.4645 18.9457 42.974 20.8098 46.1481 20.752L48.14 20.7129V18.1012H47.1536C45.7429 18.1012 45.8209 17.2941 45.8209 15.7949L45.8153 11.8473L48.2491 11.8465ZM8.40662 7.93633H13.4644L18.6383 12.9809C18.9751 13.309 18.9767 13.8434 18.6415 14.173L12.0059 20.7176H6.79688L8.37239 19.2145L14.1554 13.5754L8.44563 7.93555" fill="#06ABC2"/>
<path d="M10.4844 13.5625H5.42831L0.25355 8.51797C0.173472 8.43995 0.109859 8.3472 0.0663521 8.24502C0.0228453 8.14285 0.000298735 8.03326 2.94858e-06 7.92252C-0.000292838 7.81179 0.0216679 7.70208 0.0646284 7.59969C0.107589 7.49729 0.170705 7.40421 0.250366 7.32578L6.886 0.78125H12.0958L10.5211 2.28438L4.73728 7.92344L10.4478 13.5625" fill="#06ABC2"/>
</g>
</g>
<defs>
<clipPath id="clip0_456_1131">
<rect width="82" height="25" fill="white"/>
</clipPath>
</defs>
</svg>
