<svg width="102" height="23" viewBox="0 0 102 23" fill="none" xmlns="http://www.w3.org/2000/svg">
<path d="M72.6992 17.1533V2.0293H77.9679V17.1533H72.6992Z" fill="#F7A600"/>
<path d="M11.2951 21.6455H0V6.52148H10.8409C16.1097 6.52148 19.1796 8.17829 19.1796 10.7699C19.1796 12.4475 17.208 13.5316 15.8433 13.8926C17.4722 14.3172 19.5574 15.2728 19.5574 17.2918C19.5574 20.116 16.1097 21.6455 11.2951 21.6455ZM10.4239 9.15592H5.26871V12.6395H10.4239C12.6598 12.6395 13.9109 11.9385 13.9109 10.8972C13.9109 9.85702 12.6598 9.15592 10.4239 9.15592ZM10.7645 15.2948H5.26871V19.0122H10.7645C13.1532 19.0122 14.2887 18.163 14.2887 17.1425C14.2887 16.1232 13.1511 15.2948 10.7645 15.2948Z" fill="black"/>
<path d="M35.6273 15.4429V21.6455H30.3958V15.4429L22.2842 6.52148H28.0071L33.0487 12.6176L38.014 6.52148H43.7369L35.6273 15.4429Z" fill="black"/>
<path d="M58.6741 21.6455H47.3789V6.52148H58.2199C63.4886 6.52148 66.5585 8.17829 66.5585 10.7699C66.5585 12.4475 64.5869 13.5316 63.2222 13.8926C64.8512 14.3172 66.9364 15.2728 66.9364 17.2918C66.9364 20.116 63.4886 21.6455 58.6741 21.6455ZM57.8028 9.15592H52.6476V12.6395H57.8028C60.0388 12.6395 61.2898 11.9385 61.2898 10.8972C61.2898 9.85702 60.0388 9.15592 57.8028 9.15592ZM58.1434 15.2948H52.6476V19.0122H58.1434C60.5321 19.0122 61.6676 18.163 61.6676 17.1425C61.6676 16.1232 60.5321 15.2948 58.1434 15.2948Z" fill="black"/>
<path d="M94.949 9.15592V21.6466H89.6803V9.15592H82.6299V6.52148H101.999V9.15592H94.949Z" fill="black"/>
</svg>
