<svg width="122" height="23" viewBox="0 0 122 23" fill="none" xmlns="http://www.w3.org/2000/svg">
<path d="M24.6228 6.64198C20.1908 6.64198 16.7279 10.0383 16.7279 14.585C16.7279 19.1316 20.1034 22.4989 24.6228 22.4989C29.1423 22.4989 32.5765 19.0735 32.5765 14.5559C32.5765 10.0674 29.201 6.64198 24.6228 6.64198ZM24.6527 19.2222C22.1289 19.2222 20.2794 17.2434 20.2794 14.5861C20.2794 11.8985 22.099 9.92091 24.6228 9.92091C27.1766 9.92091 29.0249 11.9287 29.0249 14.5861C29.0249 17.2434 27.1766 19.2222 24.6527 19.2222ZM33.5443 10.0975H35.7459V22.2049H39.2676V6.93712H33.5443V10.0975ZM7.86504 9.91979C9.71446 9.91979 11.1818 11.0713 11.7389 12.784H15.4665C14.791 9.12269 11.7976 6.64198 7.89494 6.64198C3.46296 6.64198 0 10.0383 0 14.5861C0 19.1339 3.37548 22.5 7.89494 22.5C11.7101 22.5 14.7622 20.0193 15.4377 16.3278H11.7389C11.2106 18.0405 9.74325 19.2222 7.89383 19.2222C5.34007 19.2222 3.55045 17.2434 3.55045 14.5861C3.55156 11.8985 5.31239 9.91979 7.86504 9.91979ZM100.458 13.1093L97.8755 12.7258C96.6429 12.5492 95.7625 12.1356 95.7625 11.1607C95.7625 10.0975 96.9076 9.56652 98.4625 9.56652C100.165 9.56652 101.251 10.3044 101.486 11.5151H104.89C104.508 8.4441 102.16 6.6431 98.5511 6.6431C94.8234 6.6431 92.3583 8.5626 92.3583 11.2792C92.3583 13.8773 93.9729 15.3843 97.2299 15.8561L99.8124 16.2395C101.075 16.4162 101.779 16.9192 101.779 17.8639C101.779 19.0746 100.547 19.5766 98.8445 19.5766C96.7603 19.5766 95.5864 18.7202 95.4104 17.4212H91.9474C92.2708 20.4039 94.5886 22.5 98.8146 22.5C102.66 22.5 105.212 20.7281 105.212 17.6861C105.212 14.9695 103.364 13.552 100.458 13.1093ZM37.5068 0.647568C36.2155 0.647568 35.2465 1.59223 35.2465 2.89128C35.2465 4.19033 36.2144 5.13499 37.5068 5.13499C38.798 5.13499 39.7671 4.19033 39.7671 2.89128C39.7671 1.59223 38.798 0.647568 37.5068 0.647568ZM89.1888 12.1646C89.1888 8.85774 87.1932 6.6431 82.9672 6.6431C78.976 6.6431 76.7456 8.68111 76.3048 11.8113H79.7977C79.9738 10.6006 80.9129 9.5967 82.9085 9.5967C84.6992 9.5967 85.5796 10.3938 85.5796 11.3686C85.5796 12.6386 83.965 12.9628 81.9694 13.1696C79.2694 13.4648 75.9239 14.4094 75.9239 17.9533C75.9239 20.7001 77.9494 22.4709 81.1776 22.4709C83.7014 22.4709 85.2862 21.4078 86.0791 19.7241C86.1965 21.23 87.3117 22.2049 88.8676 22.2049H90.9219V19.0456H89.1899V12.1646H89.1888ZM85.7258 16.0036C85.7258 18.0416 83.965 19.5475 81.8221 19.5475C80.5009 19.5475 79.3857 18.9863 79.3857 17.8058C79.3857 16.2999 81.1764 15.8862 82.8199 15.7096C84.4046 15.562 85.285 15.2077 85.7258 14.5279V16.0036ZM67.0311 6.64198C65.0643 6.64198 63.4209 7.46926 62.247 8.85662V0.5H58.7253V22.2049H62.1883V20.197C63.3622 21.6437 65.0355 22.5 67.0311 22.5C71.2571 22.5 74.4565 19.1339 74.4565 14.5861C74.4565 10.0383 71.1984 6.64198 67.0311 6.64198ZM66.5029 19.2222C63.979 19.2222 62.1296 17.2434 62.1296 14.5861C62.1296 11.9287 64.0078 9.92091 66.5317 9.92091C69.0854 9.92091 70.875 11.8997 70.875 14.5861C70.875 17.2434 69.0267 19.2222 66.5029 19.2222ZM50.3021 6.64198C48.0131 6.64198 46.5158 7.58664 45.6354 8.91587V6.93712H42.1425V22.2037H45.6642V13.9064C45.6642 11.5732 47.1315 9.91979 49.3032 9.91979C51.3287 9.91979 52.5901 11.3664 52.5901 13.4637V22.2049H56.1118V13.1987C56.1129 9.35858 54.1472 6.64198 50.3021 6.64198ZM122 14.0841C122 9.71409 118.83 6.6431 114.575 6.6431C110.055 6.6431 106.738 10.0685 106.738 14.5861C106.738 19.3407 110.29 22.5 114.633 22.5C118.302 22.5 121.178 20.3144 121.911 17.2144H118.242C117.714 18.5727 116.423 19.3407 114.691 19.3407C112.431 19.3407 110.728 17.9231 110.348 15.4424H121.999V14.0841H122ZM110.553 12.9025C111.112 10.7761 112.696 9.74315 114.516 9.74315C116.512 9.74315 118.038 10.8946 118.39 12.9025H110.553Z" fill="#0052FF"/>
</svg>
