<svg width="20" height="20" viewBox="0 0 20 20" fill="none" xmlns="http://www.w3.org/2000/svg">
<g clip-path="url(#clip0_6164_8995)">
<path d="M2 14.666C2.00106 15.5497 2.35259 16.397 2.97748 17.0219C3.60237 17.6468 4.4496 17.9983 5.33333 17.9993H14.6667C15.5504 17.9983 16.3976 17.6468 17.0225 17.0219C17.6474 16.397 17.9989 15.5497 18 14.666V8.66602H2V14.666ZM13.3333 11.666C13.5311 11.666 13.7245 11.7247 13.8889 11.8345C14.0534 11.9444 14.1815 12.1006 14.2572 12.2833C14.3329 12.4661 14.3527 12.6671 14.3141 12.8611C14.2755 13.0551 14.1803 13.2333 14.0404 13.3731C13.9006 13.513 13.7224 13.6082 13.5284 13.6468C13.3344 13.6854 13.1334 13.6656 12.9507 13.5899C12.7679 13.5142 12.6117 13.386 12.5019 13.2216C12.392 13.0571 12.3333 12.8638 12.3333 12.666C12.3333 12.4008 12.4387 12.1464 12.6262 11.9589C12.8138 11.7714 13.0681 11.666 13.3333 11.666ZM10 11.666C10.1978 11.666 10.3911 11.7247 10.5556 11.8345C10.72 11.9444 10.8482 12.1006 10.9239 12.2833C10.9996 12.4661 11.0194 12.6671 10.9808 12.8611C10.9422 13.0551 10.847 13.2333 10.7071 13.3731C10.5673 13.513 10.3891 13.6082 10.1951 13.6468C10.0011 13.6854 9.80004 13.6656 9.61732 13.5899C9.43459 13.5142 9.27841 13.386 9.16853 13.2216C9.05865 13.0571 9 12.8638 9 12.666C9 12.4008 9.10536 12.1464 9.29289 11.9589C9.48043 11.7714 9.73478 11.666 10 11.666ZM6.66667 11.666C6.86445 11.666 7.05779 11.7247 7.22224 11.8345C7.38669 11.9444 7.51486 12.1006 7.59055 12.2833C7.66623 12.4661 7.68604 12.6671 7.64745 12.8611C7.60887 13.0551 7.51363 13.2333 7.37377 13.3731C7.23392 13.513 7.05574 13.6082 6.86176 13.6468C6.66778 13.6854 6.46671 13.6656 6.28398 13.5899C6.10126 13.5142 5.94508 13.386 5.8352 13.2216C5.72532 13.0571 5.66667 12.8638 5.66667 12.666C5.66667 12.4008 5.77202 12.1464 5.95956 11.9589C6.1471 11.7714 6.40145 11.666 6.66667 11.666Z" fill="#858D9D"/>
<path d="M14.6667 3.33333H14V2.66667C14 2.48986 13.9298 2.32029 13.8047 2.19526C13.6797 2.07024 13.5101 2 13.3333 2C13.1565 2 12.987 2.07024 12.8619 2.19526C12.7369 2.32029 12.6667 2.48986 12.6667 2.66667V3.33333H7.33333V2.66667C7.33333 2.48986 7.2631 2.32029 7.13807 2.19526C7.01305 2.07024 6.84348 2 6.66667 2C6.48986 2 6.32029 2.07024 6.19526 2.19526C6.07024 2.32029 6 2.48986 6 2.66667V3.33333H5.33333C4.4496 3.33439 3.60237 3.68592 2.97748 4.31081C2.35259 4.93571 2.00106 5.78294 2 6.66667L2 7.33333H18V6.66667C17.9989 5.78294 17.6474 4.93571 17.0225 4.31081C16.3976 3.68592 15.5504 3.33439 14.6667 3.33333Z" fill="#858D9D"/>
</g>
<defs>
<clipPath id="clip0_6164_8995">
<rect width="16" height="16" fill="white" transform="translate(2 2)"/>
</clipPath>
</defs>
</svg>
