<svg width="14" height="14" viewBox="0 0 14 14" fill="none" xmlns="http://www.w3.org/2000/svg">
<g clip-path="url(#clip0_6155_8672)">
<path d="M1.67761 10.5683C1.70441 10.3271 1.71781 10.2065 1.7543 10.0938C1.78668 9.99374 1.83242 9.89857 1.89029 9.81081C1.95552 9.7119 2.04132 9.62609 2.21293 9.45449L9.9166 1.75083C10.5609 1.10649 11.6056 1.1065 12.2499 1.75083C12.8943 2.39516 12.8943 3.43983 12.2499 4.08416L4.54626 11.7878C4.37465 11.9594 4.28885 12.0452 4.18994 12.1105C4.10218 12.1683 4.007 12.2141 3.907 12.2464C3.79427 12.2829 3.67367 12.2963 3.43247 12.3231L1.45825 12.5425L1.67761 10.5683Z" stroke="#667085" stroke-width="1.5" stroke-linecap="round" stroke-linejoin="round"/>
</g>
<defs>
<clipPath id="clip0_6155_8672">
<rect width="14" height="14" fill="white"/>
</clipPath>
</defs>
</svg>
