<svg width="20" height="20" viewBox="0 0 20 20" fill="none" xmlns="http://www.w3.org/2000/svg">
<g clip-path="url(#clip0_6164_8999)">
<path d="M2.66747 5.16715H4.49129C4.85126 6.49158 6.21671 7.27344 7.54115 6.91348C8.39178 6.68228 9.05628 6.01779 9.28747 5.16715H17.3327C17.7008 5.16715 17.9993 4.86871 17.9993 4.50056C17.9993 4.13241 17.7008 3.83397 17.3327 3.83397H9.28747C8.92751 2.50951 7.56205 1.72765 6.23762 2.08762C5.38699 2.31881 4.72249 2.98331 4.49129 3.83394H2.66747C2.29932 3.83394 2.00089 4.13238 2.00089 4.50053C2.00089 4.86868 2.29932 5.16715 2.66747 5.16715Z" fill="#858D9D"/>
<path d="M17.3327 9.3346H15.5089C15.1496 8.01036 13.7849 7.22806 12.4607 7.58727C11.6093 7.81822 10.9443 8.48325 10.7133 9.3346H2.66747C2.29932 9.3346 2.00089 9.63304 2.00089 10.0012C2.00089 10.3693 2.29932 10.6678 2.66747 10.6678H10.7133C11.0726 11.992 12.4373 12.7743 13.7615 12.4151C14.6128 12.1842 15.2779 11.5191 15.5089 10.6678H17.3327C17.7008 10.6678 17.9993 10.3693 17.9993 10.0012C17.9993 9.63304 17.7008 9.3346 17.3327 9.3346Z" fill="#858D9D"/>
<path d="M17.3327 14.832H9.28747C8.92751 13.5076 7.56205 12.7257 6.23762 13.0857C5.38699 13.3169 4.72249 13.9814 4.49129 14.832H2.66747C2.29932 14.832 2.00089 15.1304 2.00089 15.4986C2.00089 15.8667 2.29932 16.1652 2.66747 16.1652H4.49129C4.85126 17.4896 6.21671 18.2714 7.54115 17.9115C8.39178 17.6803 9.05628 17.0158 9.28747 16.1652H17.3327C17.7008 16.1652 17.9993 15.8667 17.9993 15.4986C17.9993 15.1304 17.7008 14.832 17.3327 14.832Z" fill="#858D9D"/>
</g>
<defs>
<clipPath id="clip0_6164_8999">
<rect width="16" height="16" fill="white" transform="translate(2 2)"/>
</clipPath>
</defs>
</svg>
