   <svg
              width="20"
              height="20"
              viewBox="0 0 20 20"
              fill="none"
              xmlns="http://www.w3.org/2000/svg"
            >
              <rect
                x="0.5"
                y="0.5"
                width="19"
                height="19"
                rx="9.5"
                stroke="#690571"
              />
              <g clip-path="url(#clip0_6290_6352)">
                <path
                  d="M15.625 13.5436C15.74 13.5436 15.8333 13.4503 15.8333 13.3353C15.8333 13.2202 15.74 13.127 15.625 13.127C15.5099 13.127 15.4167 13.2202 15.4167 13.3353C15.4167 13.4503 15.5099 13.5436 15.625 13.5436Z"
                  fill="#690571"
                />
                <path
                  d="M5.20833 5.00065C5.32339 5.00065 5.41667 4.90738 5.41667 4.79232C5.41667 4.67726 5.32339 4.58398 5.20833 4.58398C5.09327 4.58398 5 4.67726 5 4.79232C5 4.90738 5.09327 5.00065 5.20833 5.00065Z"
                  fill="#690571"
                />
                <path
                  d="M4.72916 6.55384C4.69009 6.51477 4.63711 6.49283 4.58186 6.49283C4.52661 6.49283 4.47363 6.51477 4.43456 6.55384L4.27481 6.71361L4.11504 6.55384C4.09582 6.53394 4.07283 6.51807 4.04741 6.50715C4.02199 6.49623 3.99466 6.49048 3.96699 6.49024C3.93933 6.49 3.9119 6.49527 3.8863 6.50575C3.86069 6.51622 3.83743 6.53169 3.81787 6.55125C3.79831 6.57081 3.78284 6.59408 3.77237 6.61968C3.76189 6.64528 3.75662 6.67272 3.75686 6.70038C3.7571 6.72804 3.76285 6.75538 3.77377 6.7808C3.78468 6.80621 3.80055 6.8292 3.82045 6.84842L3.98022 7.00823L3.82045 7.16804C3.80062 7.18728 3.78482 7.21026 3.77395 7.23566C3.76309 7.26106 3.75739 7.28837 3.75718 7.316C3.75697 7.34362 3.76225 7.37101 3.77272 7.39657C3.7832 7.42214 3.79865 7.44536 3.81818 7.4649C3.83772 7.48443 3.86094 7.49989 3.8865 7.51036C3.91207 7.52084 3.93946 7.52612 3.96708 7.52591C3.99471 7.5257 4.02201 7.52 4.04741 7.50914C4.07281 7.49828 4.0958 7.48248 4.11504 7.46265L4.27481 7.30286L4.43456 7.46265C4.45381 7.4824 4.47679 7.49813 4.50217 7.50892C4.52755 7.51972 4.55483 7.52537 4.58241 7.52554C4.60999 7.52572 4.63733 7.52041 4.66284 7.50994C4.68836 7.49947 4.71154 7.48403 4.73104 7.46453C4.75054 7.44502 4.76598 7.42184 4.77645 7.39633C4.78693 7.37081 4.79223 7.34347 4.79206 7.31589C4.79188 7.28831 4.78623 7.26104 4.77543 7.23566C4.76464 7.21028 4.74891 7.1873 4.72916 7.16804L4.56937 7.00823L4.72916 6.8484C4.76821 6.80933 4.79015 6.75635 4.79015 6.70112C4.79015 6.64588 4.76821 6.5929 4.72916 6.55384Z"
                  fill="#690571"
                />
                <path
                  d="M6.875 5.41797C6.99861 5.41797 7.11945 5.38131 7.22223 5.31264C7.32501 5.24396 7.40512 5.14635 7.45242 5.03215C7.49973 4.91794 7.51211 4.79228 7.48799 4.67104C7.46388 4.5498 7.40435 4.43844 7.31694 4.35103C7.22953 4.26362 7.11817 4.20409 6.99693 4.17998C6.87569 4.15586 6.75003 4.16824 6.63582 4.21554C6.52162 4.26285 6.42401 4.34296 6.35533 4.44574C6.28666 4.54852 6.25 4.66936 6.25 4.79297C6.25018 4.95867 6.31609 5.11754 6.43326 5.23471C6.55043 5.35188 6.7093 5.41779 6.875 5.41797ZM6.875 4.58464C6.9162 4.58464 6.95648 4.59685 6.99074 4.61975C7.025 4.64264 7.05171 4.67518 7.06747 4.71324C7.08324 4.75131 7.08737 4.7932 7.07933 4.83361C7.07129 4.87403 7.05145 4.91115 7.02231 4.94028C6.99318 4.96942 6.95606 4.98926 6.91564 4.9973C6.87523 5.00534 6.83334 5.00121 6.79527 4.98544C6.75721 4.96968 6.72467 4.94297 6.70178 4.90871C6.67889 4.87445 6.66667 4.83417 6.66667 4.79297C6.66674 4.73774 6.68871 4.68479 6.72777 4.64573C6.76682 4.60668 6.81977 4.58471 6.875 4.58464Z"
                  fill="#690571"
                />
                <path
                  d="M9.99999 5.62695C9.01108 5.62695 8.04438 5.9202 7.22214 6.46961C6.39989 7.01901 5.75903 7.79991 5.38059 8.71354C5.00215 9.62717 4.90313 10.6325 5.09606 11.6024C5.28899 12.5723 5.76519 13.4632 6.46445 14.1625C7.16372 14.8617 8.05463 15.338 9.02454 15.5309C9.99444 15.7238 10.9998 15.6248 11.9134 15.2464C12.827 14.8679 13.6079 14.2271 14.1573 13.4048C14.7067 12.5826 15 11.6159 15 10.627C14.9985 9.30134 14.4712 8.03045 13.5338 7.09309C12.5965 6.15574 11.3256 5.62847 9.99999 5.62695ZM9.99999 15.2103C9.09349 15.2103 8.20735 14.9415 7.45362 14.4379C6.6999 13.9342 6.11244 13.2184 5.76554 12.3809C5.41864 11.5434 5.32787 10.6219 5.50472 9.73279C5.68157 8.84371 6.11809 8.02704 6.75908 7.38605C7.40007 6.74506 8.21674 6.30854 9.10582 6.13169C9.9949 5.95484 10.9165 6.0456 11.754 6.39251C12.5914 6.73941 13.3073 7.32686 13.8109 8.08059C14.3145 8.83431 14.5833 9.72046 14.5833 10.627C14.582 11.8421 14.0986 13.0071 13.2394 13.8663C12.3801 14.7256 11.2151 15.2089 9.99999 15.2103Z"
                  fill="#690571"
                />
                <path
                  d="M9.17602 9.25755C9.19295 9.2931 9.2196 9.32312 9.25289 9.34413C9.28618 9.36515 9.32475 9.3763 9.36412 9.3763H10.2083C10.2636 9.3763 10.3166 9.35435 10.3556 9.31528C10.3947 9.27621 10.4167 9.22322 10.4167 9.16797C10.4167 9.11272 10.3947 9.05972 10.3556 9.02065C10.3166 8.98158 10.2636 8.95964 10.2083 8.95964H9.80112L10.3702 8.25743C10.3949 8.22685 10.4105 8.18989 10.4152 8.15081C10.4198 8.11174 10.4133 8.07216 10.3963 8.03664C10.3794 8.00112 10.3528 7.97113 10.3195 7.95013C10.2862 7.92913 10.2477 7.91798 10.2083 7.91797H9.375C9.31974 7.91797 9.26675 7.93992 9.22768 7.97899C9.18861 8.01806 9.16666 8.07105 9.16666 8.1263C9.16666 8.18156 9.18861 8.23455 9.22768 8.27362C9.26675 8.31269 9.31974 8.33464 9.375 8.33464H9.77131L9.20227 9.03684C9.1775 9.0674 9.1619 9.10435 9.15725 9.1434C9.15261 9.18246 9.15911 9.22204 9.17602 9.25755Z"
                  fill="#690571"
                />
                <path
                  d="M11.875 7.70964H11.4678L12.0369 7.00743C12.0616 6.97685 12.0772 6.93989 12.0818 6.90081C12.0865 6.86174 12.0799 6.82216 12.063 6.78664C12.0461 6.75112 12.0194 6.72113 11.9862 6.70013C11.9529 6.67913 11.9143 6.66798 11.875 6.66797H11.0417C10.9864 6.66797 10.9334 6.68992 10.8944 6.72899C10.8553 6.76806 10.8333 6.82105 10.8333 6.8763C10.8333 6.93156 10.8553 6.98455 10.8944 7.02362C10.9334 7.06269 10.9864 7.08464 11.0417 7.08464H11.438L10.8689 7.78684C10.8442 7.81742 10.8286 7.85438 10.8239 7.89346C10.8193 7.93253 10.8258 7.97212 10.8428 8.00763C10.8597 8.04315 10.8864 8.07314 10.9196 8.09414C10.9529 8.11515 10.9914 8.12629 11.0308 8.1263H11.875C11.9303 8.1263 11.9832 8.10435 12.0223 8.06528C12.0614 8.02621 12.0833 7.97322 12.0833 7.91797C12.0833 7.86272 12.0614 7.80972 12.0223 7.77065C11.9832 7.73158 11.9303 7.70964 11.875 7.70964Z"
                  fill="#690571"
                />
                <path
                  d="M12.926 6.13255C12.9429 6.1681 12.9696 6.19812 13.0029 6.21913C13.0362 6.24015 13.0747 6.2513 13.1141 6.2513H13.9583C14.0136 6.2513 14.0666 6.22935 14.1056 6.19028C14.1447 6.15121 14.1667 6.09822 14.1667 6.04297C14.1667 5.98772 14.1447 5.93472 14.1056 5.89565C14.0666 5.85658 14.0136 5.83464 13.9583 5.83464H13.5511L14.1202 5.13243C14.1449 5.10185 14.1605 5.06489 14.1652 5.02581C14.1698 4.98674 14.1633 4.94716 14.1463 4.91164C14.1294 4.87612 14.1028 4.84613 14.0695 4.82513C14.0362 4.80413 13.9977 4.79298 13.9583 4.79297H13.125C13.0697 4.79297 13.0168 4.81492 12.9777 4.85399C12.9386 4.89306 12.9167 4.94605 12.9167 5.0013C12.9167 5.05656 12.9386 5.10955 12.9777 5.14862C13.0168 5.18769 13.0697 5.20964 13.125 5.20964H13.5213L12.9523 5.91184C12.9275 5.9424 12.9119 5.97935 12.9073 6.0184C12.9026 6.05746 12.9091 6.09704 12.926 6.13255Z"
                  fill="#690571"
                />
                <path
                  d="M9.15741 10.9608C9.17296 10.9082 9.16715 10.8516 9.14124 10.8033C9.11532 10.7549 9.07139 10.7187 9.01898 10.7026C8.96656 10.6864 8.90989 10.6916 8.86127 10.717C8.81264 10.7424 8.77598 10.7859 8.75924 10.8381C8.74488 10.8844 8.7163 10.925 8.67758 10.9541C8.63885 10.9832 8.59194 10.9994 8.54349 11.0004C8.49504 11.0014 8.44752 10.987 8.40766 10.9595C8.3678 10.9319 8.33763 10.8925 8.32143 10.8468C8.303 10.7947 8.26463 10.7521 8.21476 10.7283C8.16489 10.7045 8.10761 10.7015 8.05551 10.7199C8.00341 10.7383 7.96077 10.7767 7.93696 10.8266C7.91315 10.8764 7.91012 10.9337 7.92855 10.9858C7.97397 11.1141 8.05866 11.2248 8.17058 11.3022C8.28249 11.3796 8.41596 11.4198 8.552 11.417C8.68805 11.4142 8.81977 11.3687 8.92845 11.2868C9.03713 11.2049 9.11724 11.0908 9.15741 10.9608Z"
                  fill="#690571"
                />
                <path
                  d="M11.9363 10.7008C11.9102 10.6926 11.8827 10.6898 11.8554 10.6923C11.8282 10.6948 11.8017 10.7027 11.7775 10.7155C11.7533 10.7283 11.7319 10.7458 11.7144 10.7669C11.697 10.788 11.6839 10.8123 11.6759 10.8385C11.6615 10.8848 11.633 10.9254 11.5943 10.9545C11.5555 10.9836 11.5086 10.9998 11.4602 11.0008C11.4117 11.0018 11.3642 10.9875 11.3243 10.9599C11.2845 10.9323 11.2543 10.8929 11.2381 10.8473C11.2197 10.7952 11.1813 10.7525 11.1314 10.7287C11.0816 10.7049 11.0243 10.7019 10.9722 10.7203C10.9201 10.7387 10.8774 10.7771 10.8536 10.827C10.8298 10.8768 10.8268 10.9341 10.8452 10.9862C10.8906 11.1145 10.9753 11.2252 11.0872 11.3026C11.1992 11.38 11.3326 11.4202 11.4687 11.4174C11.6047 11.4146 11.7364 11.3691 11.8451 11.2872C11.9538 11.2053 12.0339 11.0912 12.0741 10.9612C12.0903 10.9084 12.085 10.8513 12.0591 10.8025C12.0333 10.7536 11.9891 10.717 11.9363 10.7008Z"
                  fill="#690571"
                />
                <path
                  d="M10 12.709C9.39792 12.709 8.75 12.9046 8.75 13.334C8.75 13.7634 9.39792 13.959 10 13.959C10.6021 13.959 11.25 13.7634 11.25 13.334C11.25 12.9046 10.6021 12.709 10 12.709Z"
                  fill="#690571"
                />
              </g>
              <defs>
                <clipPath id="clip0_6290_6352">
                  <rect
                    x="3.33333"
                    y="3.33398"
                    width="13.3333"
                    height="13.3333"
                    rx="6.66667"
                    fill="white"
                  />
                </clipPath>
              </defs>
            </svg>