 <svg
              width="20"
              height="20"
              viewBox="0 0 20 20"
              fill="none"
              xmlns="http://www.w3.org/2000/svg"
            >
              <rect
                x="0.5"
                y="0.5"
                width="19"
                height="19"
                rx="9.5"
                stroke="#990000"
              />
              <path
                d="M7.24364 6.74217C7.24364 6.74217 7.07387 6.65303 6.96353 6.14798C6.8532 5.64292 7.82087 4.7092 7.82087 4.7092C7.82087 4.7092 8.11795 4.56489 9.34878 4.58612C10.5796 4.60734 10.8724 4.80681 11.1271 5.11239C12.2374 6.44475 14.323 9.0977 14.8181 11.1896C14.9307 11.5012 15.0865 11.331 15.0865 11.8343C15.0865 12.1949 14.8891 12.2942 14.8365 12.353C13.5548 13.7875 10.4141 14.2629 9.01348 14.2629C7.61287 14.2629 7.62137 13.9403 7.23092 13.9403C6.84048 13.9403 6.40753 15.2306 5.44198 15.4173C4.72259 13.9743 4.75228 11.0543 5.44198 9.5115C7.06539 9.5115 7.32428 10.1354 7.99487 10.1354C8.56787 10.1354 8.4787 9.77889 9.38273 9.77889C10.2868 9.77889 11.5345 10.8102 11.5345 10.8102C10.8279 9.93167 11.6157 7.79109 10.0894 6.36656C9.80292 6.09917 9.66923 6.97773 8.77792 6.97773C8.64648 7.05525 8.17359 7.11742 8.17359 7.11742"
                stroke="#990000"
                stroke-linecap="round"
                stroke-linejoin="round"
              />
              <path
                d="M11.9122 11.1738C12.1605 11.4571 12.6709 11.8413 13.1452 11.8349"
                stroke="#990000"
                stroke-linecap="round"
                stroke-linejoin="round"
              />
              <path
                d="M6.79801 11.5391C6.25051 12.1969 6.17834 12.91 5.62662 13.207"
                stroke="#990000"
                stroke-linecap="round"
                stroke-linejoin="round"
              />
              <path
                d="M7.64261 11.835C8.466 12.6711 9.95569 12.6159 10.8257 11.7246"
                stroke="#990000"
                stroke-linecap="round"
                stroke-linejoin="round"
              />
              <path
                d="M10.8629 5.76172C10.8247 5.92089 10.621 6.16597 10.4714 6.20736"
                stroke="#990000"
                stroke-linecap="round"
                stroke-linejoin="round"
              />
              <path
                d="M8.53601 5.125C8.42459 5.25869 7.88345 5.94625 7.8962 6.05767C7.90895 6.16908 7.82937 6.72614 7.99806 6.78661C8.16676 6.84708 8.73973 6.74522 8.73337 6.50331C8.72701 6.26139 8.67926 6.13725 8.69198 6.01947C8.7047 5.90169 9.0867 5.31917 9.0867 5.31917"
                stroke="#990000"
                stroke-linecap="round"
                stroke-linejoin="round"
              />
              <path
                d="M7.98533 5.02344C7.84527 5.19213 7.38372 5.84469 7.39008 6.11844C7.39644 6.39219 7.42511 6.59272 7.48875 6.65322C7.55239 6.71372 7.89647 6.57149 7.89647 6.57149"
                stroke="#990000"
                stroke-linecap="round"
                stroke-linejoin="round"
              />
              <path
                d="M8.01966 6.79204C8.01966 6.79204 8.15722 6.94201 8.17314 7.10434C8.18905 7.26668 7.96305 7.42265 7.75614 7.47995C7.54922 7.53726 7.25955 7.1489 7.25955 7.00248C7.25955 6.85607 7.48875 6.65234 7.48875 6.65234"
                stroke="#990000"
                stroke-linecap="round"
                stroke-linejoin="round"
              />
              <path
                d="M9.32714 6.01953C9.33433 6.22564 9.38466 6.44856 9.2073 6.51325C9.02994 6.57795 8.72244 6.56231 8.72244 6.56231"
                stroke="#990000"
                stroke-linecap="round"
                stroke-linejoin="round"
              />
            </svg>