<svg
              width="20"
              height="20"
              viewBox="0 0 20 20"
              fill="none"
              xmlns="http://www.w3.org/2000/svg"
            >
              <rect
                x="0.5"
                y="0.5"
                width="19"
                height="19"
                rx="9.5"
                stroke="#FF6600"
              />
              <g clip-path="url(#clip0_6290_6385)">
                <path
                  d="M13.4946 7.79997C13.4371 7.74372 13.3583 7.70914 13.2717 7.70914C13.2513 7.70914 13.2313 7.71122 13.2117 7.71456L13.2138 7.71414C13.1104 7.73497 13.0267 7.80456 12.9867 7.89706L12.9858 7.89914C12.7925 8.33997 12.4988 8.70581 12.1325 8.97956L12.1254 8.98456C12.1558 8.78039 12.1733 8.54497 12.1733 8.30581C12.1733 7.57664 12.0113 6.88539 11.7213 6.26581L11.7338 6.29539C11.2254 5.23414 10.3738 4.40497 9.32543 3.93789L9.2946 3.92581C9.25793 3.90956 9.21543 3.90039 9.17085 3.90039C8.99793 3.90039 8.85793 4.04039 8.85793 4.21331C8.85793 4.23206 8.8596 4.25039 8.86293 4.26831L8.86251 4.26622C8.86376 4.29789 8.8646 4.33539 8.8646 4.37289C8.8646 5.26289 8.47001 6.06081 7.84626 6.60122L7.84251 6.60456C7.62293 6.82706 7.38835 7.03747 7.1546 7.24789C6.6221 7.68872 6.15876 8.18456 5.7646 8.73331L5.74876 8.75664C5.31293 9.46581 5.0546 10.3254 5.0546 11.2446C5.0546 11.6996 5.11793 12.14 5.23626 12.5575L5.22793 12.5237C5.5346 13.7783 6.30543 14.8154 7.34335 15.4646L7.36335 15.4762C8.12043 15.9596 9.04251 16.2491 10.0321 16.2541H10.0333C10.035 16.2541 10.0375 16.2541 10.0396 16.2541C10.25 16.2541 10.4575 16.2404 10.6604 16.2133L10.6367 16.2158C12.5242 15.94 14.0546 14.6541 14.6767 12.9329L14.6879 12.8979C14.8458 12.4304 14.9367 11.8921 14.9367 11.3325C14.9367 9.95664 14.3863 8.70914 13.4933 7.79872L13.4942 7.79956L13.4946 7.79997ZM14.0958 12.6975C13.5429 14.2316 12.2058 15.3558 10.5808 15.5933L10.5571 15.5962C10.4004 15.6162 10.2192 15.6275 10.0354 15.6275C9.16668 15.6275 8.35751 15.3733 7.67793 14.9354L7.69501 14.9458C6.77293 14.3704 6.10168 13.4666 5.84043 12.4021L5.8346 12.3737C5.73626 12.0358 5.6796 11.6475 5.6796 11.2458C5.6796 10.4529 5.90043 9.71122 6.28376 9.07956L6.27335 9.09831C6.65293 8.57331 7.08085 8.11789 7.56043 7.72331L7.57293 7.71331C7.81626 7.49497 8.0596 7.27581 8.28835 7.04414C8.93251 6.45581 9.37376 5.65581 9.50251 4.75456L9.50501 4.73414C10.2283 5.16706 10.7992 5.78997 11.1571 6.53414L11.1679 6.55956C11.4083 7.07164 11.5488 7.67164 11.5488 8.30456C11.5488 8.73372 11.4842 9.14789 11.3642 9.53789L11.3721 9.50831C11.3633 9.53539 11.3588 9.56664 11.3588 9.59914C11.3588 9.77164 11.4988 9.91164 11.6713 9.91164C11.7133 9.91164 11.7538 9.90331 11.79 9.88831L11.7879 9.88914C12.4442 9.61706 12.9779 9.15872 13.3367 8.58081L13.3446 8.56664C13.9479 9.31622 14.3129 10.28 14.3129 11.3287C14.3129 11.8183 14.2333 12.2891 14.0867 12.7296L14.0958 12.6983V12.6975Z"
                  fill="#FF6600"
                />
              </g>
              <defs>
                <clipPath id="clip0_6290_6385">
                  <rect
                    x="3.33334"
                    y="3.33398"
                    width="13.3333"
                    height="13.3333"
                    rx="6.66667"
                    fill="white"
                  />
                </clipPath>
              </defs>
            </svg>