<svg
              width="20"
              height="20"
              viewBox="0 0 20 20"
              fill="none"
              xmlns="http://www.w3.org/2000/svg"
            >
              <rect
                x="0.5"
                y="0.5"
                width="19"
                height="19"
                rx="9.5"
                stroke="#00CC99"
              />
              <g clip-path="url(#clip0_6290_6342)">
                <path
                  d="M7.49445 14.9664C6.34234 14.4013 5.4151 13.4632 4.86328 12.3047C4.31147 11.1461 4.16749 9.83507 4.45471 8.58437C4.74194 7.33367 5.44351 6.21679 6.44551 5.41508C7.44751 4.61336 8.69109 4.17389 9.97433 4.16803C11.2576 4.16217 12.5051 4.59025 13.5144 5.38278C14.5237 6.1753 15.2354 7.28573 15.5341 8.53375C15.8327 9.78177 15.7007 11.0941 15.1595 12.2576C14.6183 13.4212 13.6997 14.3676 12.5528 14.9433"
                  stroke="#00CC99"
                  stroke-linecap="round"
                  stroke-linejoin="round"
                />
                <path
                  d="M12.1712 14.0586L11.6182 15.2707L12.7976 15.8346"
                  stroke="#00CC99"
                  stroke-linecap="round"
                  stroke-linejoin="round"
                />
                <path
                  d="M10.3642 7.33693C10.7032 7.33693 10.978 7.06213 10.978 6.72315C10.978 6.38417 10.7032 6.10938 10.3642 6.10938C10.0252 6.10938 9.75041 6.38417 9.75041 6.72315C9.75041 7.06213 10.0252 7.33693 10.3642 7.33693Z"
                  stroke="#00CC99"
                  stroke-width="0.8"
                  stroke-linecap="round"
                  stroke-linejoin="round"
                />
                <path
                  d="M8.80641 11.7285L7.99568 12.7163C7.60732 13.1657 8.16791 13.5598 8.57888 13.1708L9.37305 12.1704L9.63371 11.1924L10.0528 11.6114L10.3322 13.0579C10.517 13.4603 11.1177 13.4382 11.0981 12.9207L10.684 11.3752L10.0906 10.3474L10.4229 9.1071L10.7937 9.20644C10.7885 9.24881 10.7959 9.29179 10.8151 9.32994C10.8343 9.36809 10.8644 9.3997 10.9015 9.42077C11.0307 9.48974 11.9592 9.77416 11.9592 9.77416C12.5433 9.95355 12.6092 9.36558 12.1372 9.22863L11.3639 9.0213L10.9811 8.38383L10.3592 7.82672L9.40832 7.80469L8.06452 8.61599L7.56541 9.94983C7.45507 10.3226 7.98944 10.4196 8.13707 10.1297C8.2088 10.0024 8.56991 9.14308 8.56991 9.14308L9.35455 8.75377L8.97071 10.5131L8.80641 11.7285Z"
                  stroke="#00CC99"
                  stroke-width="0.8"
                  stroke-linecap="round"
                  stroke-linejoin="round"
                />
              </g>
              <defs>
                <clipPath id="clip0_6290_6342">
                  <rect
                    width="13.3333"
                    height="13.3333"
                    fill="white"
                    transform="translate(3.33333 3.33398)"
                  />
                </clipPath>
              </defs>
            </svg>