 <svg
              width="20"
              height="20"
              viewBox="0 0 20 20"
              fill="none"
              xmlns="http://www.w3.org/2000/svg"
            >
              <rect
                x="0.5"
                y="0.5"
                width="19"
                height="19"
                rx="9.5"
                stroke="#3366CC"
              />
              <path
                d="M11.4286 11.6699L11.9048 12.6949C11.9048 12.6949 14.0476 13.15 14.0476 14.2325C14.0476 15.0013 13.0952 15.0013 13.0952 15.0013H10.5556L9.30557 14.3068"
                stroke="#3366CC"
                stroke-linecap="round"
                stroke-linejoin="round"
              />
              <path
                d="M8.57147 11.6699L8.09528 12.6949C8.09528 12.6949 5.95242 13.15 5.95242 14.2325C5.95242 15.0013 6.9048 15.0013 6.9048 15.0013H8.05559L9.30561 14.3068L10.8334 13.3346"
                stroke="#3366CC"
                stroke-linecap="round"
                stroke-linejoin="round"
              />
              <path
                d="M5 12.1818C5 12.1818 6.19048 11.9256 6.90476 11.6693C7.61905 8.08173 9.76189 8.33799 10 8.33799C10.2381 8.33799 12.3809 8.08173 13.0952 11.6693C13.8095 11.9256 15 12.1818 15 12.1818"
                stroke="#3366CC"
                stroke-linecap="round"
                stroke-linejoin="round"
              />
              <path
                d="M10 7.22222C10.6137 7.22222 11.1111 6.72476 11.1111 6.11111C11.1111 5.49746 10.6137 5 10 5C9.38633 5 8.88889 5.49746 8.88889 6.11111C8.88889 6.72476 9.38633 7.22222 10 7.22222Z"
                stroke="#3366CC"
                stroke-linecap="round"
                stroke-linejoin="round"
              />
            </svg>