<svg width="136" height="40" viewBox="0 0 136 40" fill="none" xmlns="http://www.w3.org/2000/svg">
<rect width="136" height="40" rx="4" fill="#0D0D0D"/>
<path d="M49.2702 12.555V15.305C48.9102 15.565 48.5252 15.76 48.1152 15.89C47.7085 16.0167 47.2618 16.08 46.7752 16.08C46.1985 16.08 45.6785 15.9917 45.2152 15.815C44.7518 15.635 44.3552 15.385 44.0252 15.065C43.6985 14.7417 43.4468 14.355 43.2702 13.905C43.0935 13.455 43.0052 12.96 43.0052 12.42C43.0052 11.8733 43.0902 11.375 43.2602 10.925C43.4335 10.475 43.6785 10.09 43.9952 9.77C44.3118 9.44667 44.6968 9.19667 45.1502 9.02C45.6035 8.84333 46.1102 8.755 46.6702 8.755C46.9535 8.755 47.2168 8.77667 47.4602 8.82C47.7035 8.86 47.9285 8.92 48.1352 9C48.3418 9.07667 48.5335 9.17167 48.7102 9.285C48.8868 9.395 49.0518 9.52 49.2052 9.66L48.9302 10.1C48.8868 10.1667 48.8302 10.21 48.7602 10.23C48.6935 10.2467 48.6185 10.23 48.5352 10.18C48.4552 10.1333 48.3635 10.0767 48.2602 10.01C48.1568 9.94333 48.0302 9.88 47.8802 9.82C47.7335 9.75667 47.5585 9.70333 47.3552 9.66C47.1552 9.61667 46.9168 9.595 46.6402 9.595C46.2368 9.595 45.8718 9.66167 45.5452 9.795C45.2185 9.925 44.9402 10.1133 44.7102 10.36C44.4802 10.6033 44.3035 10.9 44.1802 11.25C44.0568 11.5967 43.9952 11.9867 43.9952 12.42C43.9952 12.87 44.0585 13.2733 44.1852 13.63C44.3152 13.9833 44.4985 14.285 44.7352 14.535C44.9752 14.7817 45.2652 14.97 45.6052 15.1C45.9452 15.23 46.3268 15.295 46.7502 15.295C47.0835 15.295 47.3785 15.2583 47.6352 15.185C47.8952 15.1083 48.1485 15.0033 48.3952 14.87V13.295H47.2802C47.2168 13.295 47.1652 13.2767 47.1252 13.24C47.0885 13.2033 47.0702 13.1583 47.0702 13.105V12.555H49.2702ZM53.8763 12.915C53.8763 12.7083 53.8463 12.52 53.7863 12.35C53.7296 12.1767 53.6446 12.0283 53.5313 11.905C53.4213 11.7783 53.2863 11.6817 53.1263 11.615C52.9663 11.545 52.7846 11.51 52.5813 11.51C52.1546 11.51 51.8163 11.635 51.5663 11.885C51.3196 12.1317 51.1663 12.475 51.1063 12.915H53.8763ZM54.5963 15.29C54.4863 15.4233 54.3546 15.54 54.2013 15.64C54.0479 15.7367 53.8829 15.8167 53.7063 15.88C53.5329 15.9433 53.3529 15.99 53.1663 16.02C52.9796 16.0533 52.7946 16.07 52.6113 16.07C52.2613 16.07 51.9379 16.0117 51.6413 15.895C51.3479 15.775 51.0929 15.6017 50.8763 15.375C50.6629 15.145 50.4963 14.8617 50.3763 14.525C50.2563 14.1883 50.1963 13.8017 50.1963 13.365C50.1963 13.0117 50.2496 12.6817 50.3563 12.375C50.4663 12.0683 50.6229 11.8033 50.8263 11.58C51.0296 11.3533 51.2779 11.1767 51.5713 11.05C51.8646 10.92 52.1946 10.855 52.5613 10.855C52.8646 10.855 53.1446 10.9067 53.4013 11.01C53.6613 11.11 53.8846 11.2567 54.0713 11.45C54.2613 11.64 54.4096 11.8767 54.5163 12.16C54.6229 12.44 54.6763 12.76 54.6763 13.12C54.6763 13.26 54.6613 13.3533 54.6313 13.4C54.6013 13.4467 54.5446 13.47 54.4613 13.47H51.0763C51.0863 13.79 51.1296 14.0683 51.2063 14.305C51.2863 14.5417 51.3963 14.74 51.5363 14.9C51.6763 15.0567 51.8429 15.175 52.0363 15.255C52.2296 15.3317 52.4463 15.37 52.6863 15.37C52.9096 15.37 53.1013 15.345 53.2613 15.295C53.4246 15.2417 53.5646 15.185 53.6813 15.125C53.7979 15.065 53.8946 15.01 53.9713 14.96C54.0513 14.9067 54.1196 14.88 54.1763 14.88C54.2496 14.88 54.3063 14.9083 54.3463 14.965L54.5963 15.29ZM57.2854 16.08C56.8854 16.08 56.5771 15.9683 56.3604 15.745C56.1471 15.5217 56.0404 15.2 56.0404 14.78V11.68H55.4304C55.3771 11.68 55.3321 11.665 55.2954 11.635C55.2587 11.6017 55.2404 11.5517 55.2404 11.485V11.13L56.0704 11.025L56.2754 9.46C56.2854 9.41 56.3071 9.37 56.3404 9.34C56.3771 9.30667 56.4237 9.29 56.4804 9.29H56.9304V11.035H58.3954V11.68H56.9304V14.72C56.9304 14.9333 56.9821 15.0917 57.0854 15.195C57.1887 15.2983 57.3221 15.35 57.4854 15.35C57.5787 15.35 57.6587 15.3383 57.7254 15.315C57.7954 15.2883 57.8554 15.26 57.9054 15.23C57.9554 15.2 57.9971 15.1733 58.0304 15.15C58.0671 15.1233 58.0987 15.11 58.1254 15.11C58.1721 15.11 58.2137 15.1383 58.2504 15.195L58.5104 15.62C58.3571 15.7633 58.1721 15.8767 57.9554 15.96C57.7387 16.04 57.5154 16.08 57.2854 16.08ZM62.813 10.935V16H61.923V10.935H62.813ZM63.003 9.345C63.003 9.43167 62.9846 9.51333 62.948 9.59C62.9146 9.66333 62.868 9.73 62.808 9.79C62.7513 9.84667 62.683 9.89167 62.603 9.925C62.5263 9.95833 62.4446 9.975 62.358 9.975C62.2713 9.975 62.1896 9.95833 62.113 9.925C62.0396 9.89167 61.9746 9.84667 61.918 9.79C61.8613 9.73 61.8163 9.66333 61.783 9.59C61.7496 9.51333 61.733 9.43167 61.733 9.345C61.733 9.25833 61.7496 9.17667 61.783 9.1C61.8163 9.02 61.8613 8.95167 61.918 8.895C61.9746 8.835 62.0396 8.78833 62.113 8.755C62.1896 8.72167 62.2713 8.705 62.358 8.705C62.4446 8.705 62.5263 8.72167 62.603 8.755C62.683 8.78833 62.7513 8.835 62.808 8.895C62.868 8.95167 62.9146 9.02 62.948 9.1C62.9846 9.17667 63.003 9.25833 63.003 9.345ZM65.8303 16.08C65.4303 16.08 65.122 15.9683 64.9053 15.745C64.692 15.5217 64.5853 15.2 64.5853 14.78V11.68H63.9753C63.922 11.68 63.877 11.665 63.8403 11.635C63.8036 11.6017 63.7853 11.5517 63.7853 11.485V11.13L64.6153 11.025L64.8203 9.46C64.8303 9.41 64.852 9.37 64.8853 9.34C64.922 9.30667 64.9686 9.29 65.0253 9.29H65.4753V11.035H66.9403V11.68H65.4753V14.72C65.4753 14.9333 65.527 15.0917 65.6303 15.195C65.7336 15.2983 65.867 15.35 66.0303 15.35C66.1236 15.35 66.2036 15.3383 66.2703 15.315C66.3403 15.2883 66.4003 15.26 66.4503 15.23C66.5003 15.2 66.542 15.1733 66.5753 15.15C66.612 15.1233 66.6436 15.11 66.6703 15.11C66.717 15.11 66.7586 15.1383 66.7953 15.195L67.0553 15.62C66.902 15.7633 66.717 15.8767 66.5003 15.96C66.2836 16.04 66.0603 16.08 65.8303 16.08ZM72.5529 10.855C72.9229 10.855 73.2562 10.9167 73.5529 11.04C73.8496 11.1633 74.1029 11.3383 74.3129 11.565C74.5229 11.7917 74.6829 12.0667 74.7929 12.39C74.9062 12.71 74.9629 13.0683 74.9629 13.465C74.9629 13.865 74.9062 14.225 74.7929 14.545C74.6829 14.865 74.5229 15.1383 74.3129 15.365C74.1029 15.5917 73.8496 15.7667 73.5529 15.89C73.2562 16.01 72.9229 16.07 72.5529 16.07C72.1796 16.07 71.8429 16.01 71.5429 15.89C71.2462 15.7667 70.9929 15.5917 70.7829 15.365C70.5729 15.1383 70.4112 14.865 70.2979 14.545C70.1879 14.225 70.1329 13.865 70.1329 13.465C70.1329 13.0683 70.1879 12.71 70.2979 12.39C70.4112 12.0667 70.5729 11.7917 70.7829 11.565C70.9929 11.3383 71.2462 11.1633 71.5429 11.04C71.8429 10.9167 72.1796 10.855 72.5529 10.855ZM72.5529 15.375C73.0529 15.375 73.4262 15.2083 73.6729 14.875C73.9196 14.5383 74.0429 14.07 74.0429 13.47C74.0429 12.8667 73.9196 12.3967 73.6729 12.06C73.4262 11.7233 73.0529 11.555 72.5529 11.555C72.2996 11.555 72.0779 11.5983 71.8879 11.685C71.7012 11.7717 71.5446 11.8967 71.4179 12.06C71.2946 12.2233 71.2012 12.425 71.1379 12.665C71.0779 12.9017 71.0479 13.17 71.0479 13.47C71.0479 14.07 71.1712 14.5383 71.4179 14.875C71.6679 15.2083 72.0462 15.375 72.5529 15.375ZM76.9317 11.67C77.0417 11.5467 77.1584 11.435 77.2817 11.335C77.4051 11.235 77.5351 11.15 77.6717 11.08C77.8117 11.0067 77.9584 10.9517 78.1117 10.915C78.2684 10.875 78.4367 10.855 78.6167 10.855C78.8934 10.855 79.1367 10.9017 79.3467 10.995C79.5601 11.085 79.7367 11.215 79.8767 11.385C80.0201 11.5517 80.1284 11.7533 80.2017 11.99C80.2751 12.2267 80.3117 12.4883 80.3117 12.775V16H79.4167V12.775C79.4167 12.3917 79.3284 12.095 79.1517 11.885C78.9784 11.6717 78.7134 11.565 78.3567 11.565C78.0934 11.565 77.8467 11.6283 77.6167 11.755C77.3901 11.8817 77.1801 12.0533 76.9867 12.27V16H76.0917V10.935H76.6267C76.7534 10.935 76.8317 10.9967 76.8617 11.12L76.9317 11.67ZM51.9642 27.177V31.027C51.4602 31.391 50.9212 31.664 50.3472 31.846C49.7778 32.0233 49.1525 32.112 48.4712 32.112C47.6638 32.112 46.9358 31.9883 46.2872 31.741C45.6385 31.489 45.0832 31.139 44.6212 30.691C44.1638 30.2383 43.8115 29.697 43.5642 29.067C43.3168 28.437 43.1932 27.744 43.1932 26.988C43.1932 26.2227 43.3122 25.525 43.5502 24.895C43.7928 24.265 44.1358 23.726 44.5792 23.278C45.0225 22.8253 45.5615 22.4753 46.1962 22.228C46.8308 21.9807 47.5402 21.857 48.3242 21.857C48.7208 21.857 49.0895 21.8873 49.4302 21.948C49.7708 22.004 50.0858 22.088 50.3752 22.2C50.6645 22.3073 50.9328 22.4403 51.1802 22.599C51.4275 22.753 51.6585 22.928 51.8732 23.124L51.4882 23.74C51.4275 23.8333 51.3482 23.894 51.2502 23.922C51.1568 23.9453 51.0518 23.922 50.9352 23.852C50.8232 23.7867 50.6948 23.7073 50.5502 23.614C50.4055 23.5207 50.2282 23.432 50.0182 23.348C49.8128 23.2593 49.5678 23.1847 49.2832 23.124C49.0032 23.0633 48.6695 23.033 48.2822 23.033C47.7175 23.033 47.2065 23.1263 46.7492 23.313C46.2918 23.495 45.9022 23.7587 45.5802 24.104C45.2582 24.4447 45.0108 24.86 44.8382 25.35C44.6655 25.8353 44.5792 26.3813 44.5792 26.988C44.5792 27.618 44.6678 28.1827 44.8452 28.682C45.0272 29.1767 45.2838 29.599 45.6152 29.949C45.9512 30.2943 46.3572 30.558 46.8332 30.74C47.3092 30.922 47.8435 31.013 48.4362 31.013C48.9028 31.013 49.3158 30.9617 49.6752 30.859C50.0392 30.7517 50.3938 30.6047 50.7392 30.418V28.213H49.1782C49.0895 28.213 49.0172 28.1873 48.9612 28.136C48.9098 28.0847 48.8842 28.0217 48.8842 27.947V27.177H51.9642ZM56.6557 24.797C57.1737 24.797 57.6404 24.8833 58.0557 25.056C58.471 25.2287 58.8257 25.4737 59.1197 25.791C59.4137 26.1083 59.6377 26.4933 59.7917 26.946C59.9504 27.394 60.0297 27.8957 60.0297 28.451C60.0297 29.011 59.9504 29.515 59.7917 29.963C59.6377 30.411 59.4137 30.7937 59.1197 31.111C58.8257 31.4283 58.471 31.6733 58.0557 31.846C57.6404 32.014 57.1737 32.098 56.6557 32.098C56.133 32.098 55.6617 32.014 55.2417 31.846C54.8264 31.6733 54.4717 31.4283 54.1777 31.111C53.8837 30.7937 53.6574 30.411 53.4987 29.963C53.3447 29.515 53.2677 29.011 53.2677 28.451C53.2677 27.8957 53.3447 27.394 53.4987 26.946C53.6574 26.4933 53.8837 26.1083 54.1777 25.791C54.4717 25.4737 54.8264 25.2287 55.2417 25.056C55.6617 24.8833 56.133 24.797 56.6557 24.797ZM56.6557 31.125C57.3557 31.125 57.8784 30.8917 58.2237 30.425C58.569 29.9537 58.7417 29.298 58.7417 28.458C58.7417 27.6133 58.569 26.9553 58.2237 26.484C57.8784 26.0127 57.3557 25.777 56.6557 25.777C56.301 25.777 55.9907 25.8377 55.7247 25.959C55.4634 26.0803 55.244 26.2553 55.0667 26.484C54.894 26.7127 54.7634 26.995 54.6747 27.331C54.5907 27.6623 54.5487 28.038 54.5487 28.458C54.5487 29.298 54.7214 29.9537 55.0667 30.425C55.4167 30.8917 55.9464 31.125 56.6557 31.125ZM64.599 24.797C65.117 24.797 65.5837 24.8833 65.999 25.056C66.4144 25.2287 66.769 25.4737 67.063 25.791C67.357 26.1083 67.581 26.4933 67.735 26.946C67.8937 27.394 67.973 27.8957 67.973 28.451C67.973 29.011 67.8937 29.515 67.735 29.963C67.581 30.411 67.357 30.7937 67.063 31.111C66.769 31.4283 66.4144 31.6733 65.999 31.846C65.5837 32.014 65.117 32.098 64.599 32.098C64.0764 32.098 63.605 32.014 63.185 31.846C62.7697 31.6733 62.415 31.4283 62.121 31.111C61.827 30.7937 61.6007 30.411 61.442 29.963C61.288 29.515 61.211 29.011 61.211 28.451C61.211 27.8957 61.288 27.394 61.442 26.946C61.6007 26.4933 61.827 26.1083 62.121 25.791C62.415 25.4737 62.7697 25.2287 63.185 25.056C63.605 24.8833 64.0764 24.797 64.599 24.797ZM64.599 31.125C65.299 31.125 65.8217 30.8917 66.167 30.425C66.5124 29.9537 66.685 29.298 66.685 28.458C66.685 27.6133 66.5124 26.9553 66.167 26.484C65.8217 26.0127 65.299 25.777 64.599 25.777C64.2444 25.777 63.934 25.8377 63.668 25.959C63.4067 26.0803 63.1874 26.2553 63.01 26.484C62.8374 26.7127 62.7067 26.995 62.618 27.331C62.534 27.6623 62.492 28.038 62.492 28.458C62.492 29.298 62.6647 29.9537 63.01 30.425C63.36 30.8917 63.8897 31.125 64.599 31.125ZM71.9834 28.535C72.2354 28.535 72.4571 28.5 72.6484 28.43C72.8397 28.36 73.0007 28.262 73.1314 28.136C73.2621 28.01 73.3601 27.8607 73.4254 27.688C73.4907 27.5107 73.5234 27.317 73.5234 27.107C73.5234 26.673 73.3904 26.3277 73.1244 26.071C72.8631 25.8143 72.4827 25.686 71.9834 25.686C71.4794 25.686 71.0944 25.8143 70.8284 26.071C70.5671 26.3277 70.4364 26.673 70.4364 27.107C70.4364 27.317 70.4691 27.5107 70.5344 27.688C70.6044 27.8607 70.7047 28.01 70.8354 28.136C70.9661 28.262 71.1271 28.36 71.3184 28.43C71.5097 28.5 71.7314 28.535 71.9834 28.535ZM74.2304 32.385C74.2304 32.2123 74.1814 32.0723 74.0834 31.965C73.9854 31.8577 73.8524 31.7737 73.6844 31.713C73.5211 31.6523 73.3297 31.6103 73.1104 31.587C72.8911 31.559 72.6577 31.538 72.4104 31.524C72.1677 31.51 71.9204 31.496 71.6684 31.482C71.4164 31.468 71.1737 31.4447 70.9404 31.412C70.6791 31.5333 70.4644 31.6873 70.2964 31.874C70.1331 32.056 70.0514 32.2707 70.0514 32.518C70.0514 32.6767 70.0911 32.8237 70.1704 32.959C70.2544 33.099 70.3804 33.218 70.5484 33.316C70.7164 33.4187 70.9264 33.498 71.1784 33.554C71.4351 33.6147 71.7361 33.645 72.0814 33.645C72.4174 33.645 72.7184 33.6147 72.9844 33.554C73.2504 33.4933 73.4744 33.407 73.6564 33.295C73.8431 33.183 73.9854 33.05 74.0834 32.896C74.1814 32.742 74.2304 32.5717 74.2304 32.385ZM75.4974 25.189V25.651C75.4974 25.805 75.3994 25.903 75.2034 25.945L74.3984 26.05C74.5571 26.358 74.6364 26.6987 74.6364 27.072C74.6364 27.4173 74.5687 27.7323 74.4334 28.017C74.3027 28.297 74.1207 28.5373 73.8874 28.738C73.6541 28.9387 73.3741 29.0927 73.0474 29.2C72.7207 29.3073 72.3661 29.361 71.9834 29.361C71.6521 29.361 71.3394 29.3213 71.0454 29.242C70.8961 29.3353 70.7817 29.4357 70.7024 29.543C70.6231 29.6457 70.5834 29.7507 70.5834 29.858C70.5834 30.026 70.6511 30.1543 70.7864 30.243C70.9264 30.327 71.1084 30.3877 71.3324 30.425C71.5564 30.4623 71.8107 30.4857 72.0954 30.495C72.3847 30.5043 72.6787 30.5207 72.9774 30.544C73.2807 30.5627 73.5747 30.5977 73.8594 30.649C74.1487 30.7003 74.4054 30.7843 74.6294 30.901C74.8534 31.0177 75.0331 31.1787 75.1684 31.384C75.3084 31.5893 75.3784 31.8553 75.3784 32.182C75.3784 32.4853 75.3014 32.7793 75.1474 33.064C74.9981 33.3487 74.7811 33.6007 74.4964 33.82C74.2117 34.044 73.8617 34.2213 73.4464 34.352C73.0357 34.4873 72.5714 34.555 72.0534 34.555C71.5354 34.555 71.0827 34.5037 70.6954 34.401C70.3081 34.2983 69.9861 34.1607 69.7294 33.988C69.4727 33.8153 69.2791 33.6147 69.1484 33.386C69.0224 33.162 68.9594 32.9263 68.9594 32.679C68.9594 32.329 69.0691 32.0327 69.2884 31.79C69.5077 31.5473 69.8087 31.3537 70.1914 31.209C69.9814 31.1157 69.8134 30.992 69.6874 30.838C69.5661 30.6793 69.5054 30.467 69.5054 30.201C69.5054 30.0983 69.5241 29.9933 69.5614 29.886C69.5987 29.774 69.6547 29.6643 69.7294 29.557C69.8087 29.445 69.9044 29.34 70.0164 29.242C70.1284 29.144 70.2591 29.0577 70.4084 28.983C70.0584 28.787 69.7854 28.528 69.5894 28.206C69.3934 27.8793 69.2954 27.5013 69.2954 27.072C69.2954 26.7267 69.3607 26.414 69.4914 26.134C69.6267 25.8493 69.8134 25.609 70.0514 25.413C70.2894 25.2123 70.5717 25.0583 70.8984 24.951C71.2297 24.8437 71.5914 24.79 71.9834 24.79C72.2914 24.79 72.5784 24.825 72.8444 24.895C73.1104 24.9603 73.3531 25.0583 73.5724 25.189H75.4974ZM78.0738 21.689V32H76.8278V21.689H78.0738ZM84.8404 27.681C84.8404 27.3917 84.7984 27.128 84.7144 26.89C84.6351 26.6473 84.5161 26.4397 84.3574 26.267C84.2034 26.0897 84.0144 25.9543 83.7904 25.861C83.5664 25.763 83.3121 25.714 83.0274 25.714C82.4301 25.714 81.9564 25.889 81.6064 26.239C81.2611 26.5843 81.0464 27.065 80.9624 27.681H84.8404ZM85.8484 31.006C85.6944 31.1927 85.5101 31.356 85.2954 31.496C85.0808 31.6313 84.8498 31.7433 84.6024 31.832C84.3598 31.9207 84.1078 31.986 83.8464 32.028C83.5851 32.0747 83.3261 32.098 83.0694 32.098C82.5794 32.098 82.1268 32.0163 81.7114 31.853C81.3008 31.685 80.9438 31.4423 80.6404 31.125C80.3418 30.803 80.1084 30.4063 79.9404 29.935C79.7724 29.4637 79.6884 28.9223 79.6884 28.311C79.6884 27.8163 79.7631 27.3543 79.9124 26.925C80.0664 26.4957 80.2858 26.1247 80.5704 25.812C80.8551 25.4947 81.2028 25.2473 81.6134 25.07C82.0241 24.888 82.4861 24.797 82.9994 24.797C83.4241 24.797 83.8161 24.8693 84.1754 25.014C84.5394 25.154 84.8521 25.3593 85.1134 25.63C85.3794 25.896 85.5871 26.2273 85.7364 26.624C85.8858 27.016 85.9604 27.464 85.9604 27.968C85.9604 28.164 85.9394 28.2947 85.8974 28.36C85.8554 28.4253 85.7761 28.458 85.6594 28.458H80.9204C80.9344 28.906 80.9951 29.2957 81.1024 29.627C81.2144 29.9583 81.3684 30.236 81.5644 30.46C81.7604 30.6793 81.9938 30.845 82.2644 30.957C82.5351 31.0643 82.8384 31.118 83.1744 31.118C83.4871 31.118 83.7554 31.083 83.9794 31.013C84.2081 30.9383 84.4041 30.859 84.5674 30.775C84.7308 30.691 84.8661 30.614 84.9734 30.544C85.0854 30.4693 85.1811 30.432 85.2604 30.432C85.3631 30.432 85.4424 30.4717 85.4984 30.551L85.8484 31.006ZM92.3259 30.292C92.5546 30.6 92.8043 30.817 93.0749 30.943C93.3456 31.069 93.6489 31.132 93.9849 31.132C94.6476 31.132 95.1563 30.8963 95.5109 30.425C95.8656 29.9537 96.0429 29.2817 96.0429 28.409C96.0429 27.947 96.0009 27.5503 95.9169 27.219C95.8376 26.8877 95.7209 26.617 95.5669 26.407C95.4129 26.1923 95.2239 26.036 94.9999 25.938C94.7759 25.84 94.5216 25.791 94.2369 25.791C93.8309 25.791 93.4739 25.8843 93.1659 26.071C92.8626 26.2577 92.5826 26.5213 92.3259 26.862V30.292ZM92.2629 26.008C92.5616 25.6393 92.9069 25.343 93.2989 25.119C93.6909 24.895 94.1389 24.783 94.6429 24.783C95.0536 24.783 95.4246 24.8623 95.7559 25.021C96.0873 25.175 96.3696 25.406 96.6029 25.714C96.8363 26.0173 97.0159 26.3953 97.1419 26.848C97.2679 27.3007 97.3309 27.821 97.3309 28.409C97.3309 28.9317 97.2609 29.4193 97.1209 29.872C96.9809 30.32 96.7779 30.7097 96.5119 31.041C96.2506 31.3677 95.9286 31.6267 95.5459 31.818C95.1679 32.0047 94.7409 32.098 94.2649 32.098C93.8309 32.098 93.4576 32.0257 93.1449 31.881C92.8369 31.7317 92.5639 31.5263 92.3259 31.265V34.401H91.0729V24.909H91.8219C91.9993 24.909 92.1089 24.9953 92.1509 25.168L92.2629 26.008ZM100.209 21.689V32H98.9626V21.689H100.209ZM106.072 28.808C105.498 28.8267 105.008 28.8733 104.602 28.948C104.201 29.018 103.872 29.1113 103.615 29.228C103.363 29.3447 103.179 29.4823 103.062 29.641C102.95 29.7997 102.894 29.977 102.894 30.173C102.894 30.3597 102.925 30.5207 102.985 30.656C103.046 30.7913 103.128 30.9033 103.23 30.992C103.338 31.076 103.461 31.139 103.601 31.181C103.746 31.2183 103.9 31.237 104.063 31.237C104.283 31.237 104.483 31.216 104.665 31.174C104.847 31.1273 105.018 31.062 105.176 30.978C105.34 30.894 105.494 30.7937 105.638 30.677C105.788 30.5603 105.932 30.4273 106.072 30.278V28.808ZM102.047 25.91C102.439 25.532 102.862 25.2497 103.314 25.063C103.767 24.8763 104.269 24.783 104.819 24.783C105.216 24.783 105.568 24.8483 105.876 24.979C106.184 25.1097 106.443 25.2917 106.653 25.525C106.863 25.7583 107.022 26.0407 107.129 26.372C107.237 26.7033 107.29 27.0673 107.29 27.464V32H106.737C106.616 32 106.523 31.9813 106.457 31.944C106.392 31.902 106.341 31.8227 106.303 31.706L106.163 31.034C105.977 31.2067 105.795 31.3607 105.617 31.496C105.44 31.6267 105.253 31.7387 105.057 31.832C104.861 31.9207 104.651 31.9883 104.427 32.035C104.208 32.0863 103.963 32.112 103.692 32.112C103.417 32.112 103.158 32.0747 102.915 32C102.673 31.9207 102.46 31.804 102.278 31.65C102.101 31.496 101.959 31.3023 101.851 31.069C101.749 30.831 101.697 30.551 101.697 30.229C101.697 29.949 101.774 29.6807 101.928 29.424C102.082 29.1627 102.332 28.9317 102.677 28.731C103.023 28.5303 103.473 28.367 104.028 28.241C104.584 28.1103 105.265 28.0357 106.072 28.017V27.464C106.072 26.9133 105.953 26.498 105.715 26.218C105.477 25.9333 105.13 25.791 104.672 25.791C104.364 25.791 104.105 25.8307 103.895 25.91C103.69 25.9847 103.51 26.071 103.356 26.169C103.207 26.2623 103.076 26.3487 102.964 26.428C102.857 26.5027 102.75 26.54 102.642 26.54C102.558 26.54 102.486 26.519 102.425 26.477C102.365 26.4303 102.313 26.3743 102.271 26.309L102.047 25.91ZM115.142 24.909L111.187 34.093C111.145 34.1863 111.091 34.261 111.026 34.317C110.965 34.373 110.87 34.401 110.739 34.401H109.815L111.11 31.587L108.184 24.909H109.262C109.369 24.909 109.453 24.937 109.514 24.993C109.579 25.0443 109.624 25.1027 109.647 25.168L111.544 29.634C111.619 29.83 111.682 30.0353 111.733 30.25C111.798 30.0307 111.868 29.823 111.943 29.627L113.784 25.168C113.812 25.0933 113.859 25.0327 113.924 24.986C113.994 24.9347 114.071 24.909 114.155 24.909H115.142Z" fill="white"/>
<path d="M14.2978 5.46738C13.9484 5.91802 13.772 6.49492 13.8046 7.08049V32.5676C13.772 33.1532 13.9484 33.7301 14.2978 34.1808L14.3728 34.2614L27.6559 19.9969V19.6628L14.3728 5.38672L14.2978 5.46738Z" fill="url(#paint0_linear_245_13740)"/>
<path d="M32.0498 24.7556L27.6543 19.9969V19.6628L32.0498 14.8926L32.1463 14.9502L37.4102 18.1649C38.9111 19.0752 38.9111 20.573 37.4102 21.4948L32.1677 24.698L32.0498 24.7556Z" fill="url(#paint1_linear_245_13740)"/>
<path d="M32.1791 24.6866L27.6549 19.8242L14.2969 34.1809C14.6028 34.4699 14.9931 34.635 15.4002 34.6477C15.8074 34.6603 16.2059 34.5196 16.5268 34.25L32.1898 24.6866" fill="url(#paint2_linear_245_13740)"/>
<path d="M32.1801 14.9618L16.517 5.3984C16.1961 5.1288 15.7976 4.98816 15.3905 5.00078C14.9833 5.0134 14.593 5.1785 14.2871 5.46754L27.6559 19.8242L32.1801 14.9618Z" fill="url(#paint3_linear_245_13740)"/>
<path opacity="0.2" d="M32.0505 24.582L16.5161 34.0878C16.2066 34.3365 15.8305 34.4709 15.444 34.4709C15.0575 34.4709 14.6814 34.3365 14.3719 34.0878L14.2969 34.1685L14.3719 34.2491C14.6807 34.4996 15.0571 34.6351 15.444 34.6351C15.8309 34.6351 16.2073 34.4996 16.5161 34.2491L32.1791 24.6857L32.0505 24.582Z" fill="black"/>
<path opacity="0.12" d="M14.2978 34.0196C13.9484 33.569 13.772 32.9921 13.8046 32.4065V32.5793C13.772 33.1649 13.9484 33.7418 14.2978 34.1924L14.3728 34.1118L14.2978 34.0196ZM37.4118 21.3221L32.0514 24.5829L32.1479 24.6866L37.4118 21.4834C37.7105 21.3326 37.9668 21.0998 38.1551 20.8085C38.3433 20.5172 38.4567 20.1777 38.4838 19.8242C38.4236 20.1454 38.2956 20.4474 38.1097 20.707C37.9239 20.9667 37.6851 21.1771 37.4118 21.3221Z" fill="black"/>
<path opacity="0.25" d="M16.516 5.55976L37.4108 18.3264C37.6842 18.4714 37.9229 18.6818 38.1088 18.9415C38.2946 19.2011 38.4226 19.5031 38.4829 19.8243C38.4558 19.4708 38.3424 19.1313 38.1541 18.84C37.9659 18.5487 37.7095 18.3159 37.4108 18.1651L16.516 5.39845C15.0151 4.48819 13.793 5.24866 13.793 7.09222V7.26505C13.8251 5.40997 15.0259 4.6495 16.516 5.55976Z" fill="white"/>
<defs>
<linearGradient id="paint0_linear_245_13740" x1="26.4766" y1="6.81547" x2="7.19243" y2="24.7583" gradientUnits="userSpaceOnUse">
<stop stop-color="#00A0FF"/>
<stop offset="0.01" stop-color="#00A1FF"/>
<stop offset="0.26" stop-color="#00BEFF"/>
<stop offset="0.51" stop-color="#00D2FF"/>
<stop offset="0.76" stop-color="#00DFFF"/>
<stop offset="1" stop-color="#00E3FF"/>
</linearGradient>
<linearGradient id="paint1_linear_245_13740" x1="39.3721" y1="19.8241" x2="13.4386" y2="19.8241" gradientUnits="userSpaceOnUse">
<stop stop-color="#FFE000"/>
<stop offset="0.41" stop-color="#FFBD00"/>
<stop offset="0.78" stop-color="#FFA500"/>
<stop offset="1" stop-color="#FF9C00"/>
</linearGradient>
<linearGradient id="paint2_linear_245_13740" x1="29.7241" y1="22.4743" x2="3.56832" y2="46.8" gradientUnits="userSpaceOnUse">
<stop stop-color="#FF3A44"/>
<stop offset="1" stop-color="#C31162"/>
</linearGradient>
<linearGradient id="paint3_linear_245_13740" x1="10.9315" y1="-3.01281" x2="22.6077" y2="7.85124" gradientUnits="userSpaceOnUse">
<stop stop-color="#32A071"/>
<stop offset="0.07" stop-color="#2DA771"/>
<stop offset="0.48" stop-color="#15CF74"/>
<stop offset="0.8" stop-color="#06E775"/>
<stop offset="1" stop-color="#00F076"/>
</linearGradient>
</defs>
</svg>
