<svg width="12" height="12" viewBox="0 0 12 12" fill="none" xmlns="http://www.w3.org/2000/svg">
<g clip-path="url(#clip0_6582_587)">
<path d="M3.87024 10.2236C2.89095 9.74321 2.10279 8.94591 1.63375 7.96114C1.16471 6.97637 1.04233 5.86196 1.28647 4.79886C1.53061 3.73577 2.12695 2.78642 2.97864 2.10496C3.83034 1.4235 4.88738 1.04996 5.97814 1.04497C7.0689 1.03999 8.12931 1.40386 8.9872 2.07751C9.84509 2.75116 10.4501 3.69502 10.7039 4.75584C10.9578 5.81666 10.8456 6.93213 10.3855 7.92115C9.92552 8.91017 9.14468 9.71464 8.16982 10.2039" stroke="#00CC99" stroke-linecap="round" stroke-linejoin="round"/>
<path d="M7.8455 9.45117L7.37543 10.4815L8.37795 10.9608" stroke="#00CC99" stroke-linecap="round" stroke-linejoin="round"/>
<path d="M6.30952 3.73873C6.59766 3.73873 6.83123 3.50516 6.83123 3.21702C6.83123 2.92889 6.59766 2.69531 6.30952 2.69531C6.02139 2.69531 5.78781 2.92889 5.78781 3.21702C5.78781 3.50516 6.02139 3.73873 6.30952 3.73873Z" stroke="#00CC99" stroke-width="0.8" stroke-linecap="round" stroke-linejoin="round"/>
<path d="M4.98541 7.472L4.2963 8.31156C3.96619 8.69359 4.44269 9.02859 4.79201 8.69789L5.46705 7.84761L5.68862 7.01624L6.04482 7.37246L6.2823 8.60198C6.43938 8.94396 6.94997 8.92519 6.93337 8.48529L6.58138 7.17162L6.07698 6.29801L6.35946 5.24377L6.67464 5.32821C6.67019 5.36423 6.67651 5.40076 6.69281 5.43319C6.70911 5.46561 6.73466 5.49248 6.76623 5.51039C6.87602 5.56902 7.66529 5.81077 7.66529 5.81077C8.16179 5.96325 8.21779 5.46347 7.81655 5.34707L7.15926 5.17084L6.8339 4.62899L6.30525 4.15544L5.49704 4.13672L4.3548 4.82633L3.93056 5.96009C3.83678 6.27692 4.29098 6.35942 4.41648 6.11297C4.47744 6.00481 4.78438 5.27435 4.78438 5.27435L5.45133 4.94344L5.12507 6.4389L4.98541 7.472Z" stroke="#00CC99" stroke-width="0.8" stroke-linecap="round" stroke-linejoin="round"/>
</g>
<defs>
<clipPath id="clip0_6582_587">
<rect width="11.3333" height="11.3333" fill="white" transform="translate(0.333282 0.335938)"/>
</clipPath>
</defs>
</svg>
