<svg width="138" height="19" viewBox="0 0 138 19" fill="none" xmlns="http://www.w3.org/2000/svg">
<path d="M30.6903 0.869141H33.9897V8.09395L42.7882 0.869141H47.1874L39.3054 7.18134L47.554 17.8284H43.1548L36.7392 9.23471L33.8981 11.5162V17.9045H30.5986L30.6903 0.869141Z" fill="#5841D8"/>
<path d="M49.3867 0.868655H52.6861V3.83463C52.9611 3.30227 53.6026 2.54177 54.6108 1.78126C55.619 0.944706 56.8104 0.564453 58.1852 0.564453C58.2768 0.564453 58.3685 0.564453 58.5518 0.564453C58.7351 0.564453 59.01 0.564453 59.3766 0.640504V3.68253C59.1933 3.68253 59.01 3.60648 58.8267 3.60648C58.6434 3.60648 58.4601 3.60648 58.2768 3.60648C56.5355 3.60648 55.2524 4.06278 54.3358 4.97539C53.4193 5.88799 52.9611 6.9527 52.9611 8.16951V17.904H49.4784L49.3867 0.868655Z" fill="#5841D8"/>
<path d="M72.1157 7.56099C72.9406 7.48494 73.3989 7.18073 73.6738 6.72443C73.8571 6.49628 73.8571 6.11603 73.8571 5.65972C73.8571 4.67106 73.3989 3.98661 72.574 3.53031C71.7491 3.074 70.5577 2.84585 68.9996 2.84585C67.1666 2.84585 65.9752 3.2261 65.1503 4.06266C64.6921 4.51896 64.4171 5.20342 64.3254 6.03998H61.1177C61.2093 3.91056 62.0342 2.4656 63.5922 1.70509C65.242 0.868534 66.9833 0.488281 69.0913 0.488281C71.4742 0.488281 73.3989 0.868534 74.9569 1.62904C76.4233 2.38955 77.1565 3.60636 77.1565 5.20342V14.9379C77.1565 15.2421 77.2482 15.4702 77.3398 15.6223C77.5231 15.7745 77.7981 15.9266 78.2563 15.9266C78.4396 15.9266 78.6229 15.9266 78.8062 15.9266C78.9895 15.9266 79.1728 15.8505 79.4478 15.8505V17.9799C78.8979 18.132 78.5313 18.2081 78.2563 18.2081C77.9814 18.2081 77.6148 18.2841 77.1565 18.2841C75.9651 18.2841 75.1402 17.9039 74.5903 17.2194C74.3154 16.8392 74.1321 16.3068 74.0404 15.6223C73.3072 16.3829 72.299 17.0673 71.0159 17.5997C69.7328 18.132 68.2664 18.4362 66.7084 18.4362C64.7837 18.4362 63.2256 17.9799 62.0342 16.9913C60.8427 16.0026 60.2012 14.8618 60.2012 13.4169C60.2012 11.8198 60.7511 10.603 61.9425 9.76645C63.134 8.9299 64.692 8.39754 66.6167 8.16939L72.1157 7.56099ZM64.8754 15.2421C65.6086 15.6984 66.4334 15.9266 67.4416 15.9266C68.633 15.9266 69.8245 15.6984 70.9243 15.2421C72.849 14.4816 73.7655 13.1887 73.7655 11.4396V9.15805C73.3072 9.3862 72.8489 9.5383 72.1157 9.6904C71.3825 9.84251 70.8326 9.91856 70.1911 9.99461L68.1748 10.3749C66.8917 10.527 65.9752 10.7551 65.3336 11.0593C64.2338 11.5917 63.7755 12.3522 63.7755 13.4169C63.7755 14.1774 64.1422 14.7858 64.8754 15.2421Z" fill="#5841D8"/>
<path d="M81.7391 0.869141H85.0385V8.09395L93.837 0.869141H98.2362L90.3543 7.18134L98.6028 17.8284H94.2036L87.7881 9.23471L84.9469 11.5162V17.9045H81.6475L81.7391 0.869141Z" fill="#5841D8"/>
<path d="M112.626 1.40083C114 1.93318 115.008 2.69369 115.742 3.6063C116.383 4.44285 116.841 5.43151 117.116 6.57227C117.3 7.33278 117.391 8.62564 117.391 10.2987H102.544C102.636 12.0479 103.094 13.4168 104.01 14.4815C104.927 15.5462 106.302 16.0786 108.226 16.0786C109.968 16.0786 111.434 15.6223 112.442 14.6336C112.992 14.0252 113.45 13.4168 113.725 12.6563H117.116C117.025 13.2647 116.75 13.9492 116.2 14.7097C115.742 15.4702 115.1 16.0786 114.55 16.611C113.542 17.4475 112.259 18.0559 110.701 18.2841C109.876 18.4362 108.959 18.5122 107.951 18.5122C105.385 18.5122 103.277 17.7517 101.536 16.2307C99.7944 14.7097 98.8779 12.5803 98.8779 9.84245C98.8779 7.10462 99.7944 4.89916 101.536 3.22604C103.277 1.55293 105.66 0.640323 108.501 0.640323C109.876 0.488222 111.251 0.792424 112.626 1.40083ZM113.909 8.01723C113.725 6.80042 113.45 5.81176 112.9 5.05126C111.984 3.68235 110.426 2.99789 108.226 2.99789C106.668 2.99789 105.385 3.4542 104.285 4.44285C103.186 5.35546 102.636 6.57227 102.636 8.01723H113.909Z" fill="#5841D8"/>
<path d="M120.415 0.868534H123.714V3.30215C124.723 2.3135 125.731 1.62904 126.831 1.17274C127.93 0.716433 129.122 0.488281 130.405 0.488281C133.338 0.488281 135.262 1.32484 136.271 2.99795C136.82 3.91056 137.095 5.20342 137.095 6.95258V17.8278H133.613V7.18073C133.613 6.11602 133.429 5.27947 133.063 4.67106C132.421 3.60636 131.321 3.074 129.763 3.074C128.939 3.074 128.297 3.15005 127.747 3.30215C126.831 3.5303 126.006 3.98661 125.273 4.67106C124.723 5.20342 124.356 5.81182 124.173 6.42023C123.989 7.02863 123.898 7.86519 123.898 9.00595V17.9039H120.507L120.415 0.868534Z" fill="#5841D8"/>
<path d="M13.9177 0.869141C6.76896 0.869141 0.90332 5.66033 0.90332 11.6683V16.3074C0.90332 17.144 1.72818 17.8284 2.73633 17.8284C3.74449 17.8284 4.56934 17.144 4.56934 16.3074V11.6683C4.56934 10.8318 5.3942 10.1473 6.40235 10.1473C7.41051 10.1473 8.23537 10.8318 8.23537 11.6683V16.3074C8.23537 17.144 9.06022 17.8284 10.0684 17.8284C11.0765 17.8284 11.9014 17.144 11.9014 16.3074V11.6683C11.9014 10.8318 12.7262 10.1473 13.7344 10.1473C14.7426 10.1473 15.5674 10.8318 15.5674 11.6683V16.3074C15.5674 17.144 16.3923 17.8284 17.4004 17.8284C18.4086 17.8284 19.2334 17.144 19.2334 16.3074V11.6683C19.2334 10.8318 20.0583 10.1473 21.0664 10.1473C22.0746 10.1473 22.8995 10.8318 22.8995 11.6683V16.3074C22.8995 17.144 23.7243 17.8284 24.7325 17.8284C25.7406 17.8284 26.5655 17.144 26.5655 16.3074V11.6683C27.0237 5.66033 21.1581 0.869141 13.9177 0.869141Z" fill="#5841D8"/>
</svg>
