<svg width="128" height="37" viewBox="0 0 128 37" fill="none" xmlns="http://www.w3.org/2000/svg">
<path d="M89.8987 18.9995C89.8987 18.4229 89.8846 17.8745 89.8705 17.3682C89.8612 16.8918 89.814 16.4169 89.7292 15.9479C89.6553 15.5192 89.5222 15.1028 89.3336 14.7104C89.1327 14.3079 88.8652 13.9418 88.5424 13.6276C88.0889 13.1598 87.5461 12.7869 86.9458 12.5307C86.2953 12.269 85.5987 12.1399 84.8971 12.1511C84.191 12.1399 83.4897 12.269 82.8343 12.5307C82.2317 12.7901 81.6848 13.1625 81.2236 13.6276C80.9049 13.9422 80.6422 14.3084 80.4465 14.7104C80.2579 15.1028 80.1248 15.5192 80.0509 15.9479C79.9661 16.4169 79.9189 16.8918 79.9096 17.3682C79.8955 17.8745 79.8955 18.4229 79.8955 18.9995C79.8955 19.5761 79.8955 20.1245 79.9096 20.6307C79.9189 21.1072 79.9661 21.5821 80.0509 22.0511C80.1248 22.4798 80.2579 22.8962 80.4465 23.2886C80.6422 23.6906 80.9049 24.0568 81.2236 24.3714C81.6848 24.8365 82.2317 25.2089 82.8343 25.4682C83.4897 25.73 84.191 25.8591 84.8971 25.8479C85.5987 25.8591 86.2953 25.73 86.9458 25.4682C87.5461 25.2121 88.0889 24.8392 88.5424 24.3714C88.8652 24.0571 89.1327 23.6911 89.3336 23.2886C89.5222 22.8962 89.6553 22.4798 89.7292 22.0511C89.814 21.5821 89.8612 21.1072 89.8705 20.6307C89.8846 20.1245 89.8987 19.5761 89.8987 18.9995ZM87.2566 18.9995C87.2566 19.6464 87.2425 20.1807 87.2142 20.6026C87.202 20.9558 87.169 21.308 87.1153 21.6573C87.0724 21.8855 87.0012 22.1075 86.9034 22.3182C86.8165 22.4868 86.7072 22.6428 86.5784 22.7823C86.3872 23.0085 86.1452 23.1867 85.872 23.3026C85.5644 23.4352 85.2323 23.5023 84.8971 23.4995C84.5574 23.5022 84.2207 23.4352 83.9081 23.3026C83.6287 23.1906 83.3812 23.0119 83.1875 22.7823C83.0588 22.6428 82.9495 22.4868 82.8626 22.3182C82.7702 22.1067 82.7037 21.8847 82.6648 21.6573C82.6111 21.308 82.5781 20.9558 82.5659 20.6026C82.5517 20.1807 82.5376 19.6464 82.5376 18.9995C82.5376 18.3526 82.5517 17.8182 82.5659 17.3964C82.5781 17.0432 82.6111 16.691 82.6648 16.3417C82.7037 16.1143 82.7702 15.8923 82.8626 15.6807C82.9495 15.5122 83.0588 15.3562 83.1875 15.2167C83.3812 14.9871 83.6287 14.8084 83.9081 14.6964C84.2207 14.5638 84.5574 14.4968 84.8971 14.4995C85.2323 14.4967 85.5644 14.5638 85.872 14.6964C86.1452 14.8123 86.3872 14.9905 86.5784 15.2167C86.7072 15.3562 86.8165 15.5122 86.9034 15.6807C87.0012 15.8915 87.0724 16.1135 87.1153 16.3417C87.169 16.691 87.202 17.0432 87.2142 17.3964C87.2425 17.8182 87.2566 18.3526 87.2566 18.9995Z" fill="#23AF91"/>
<path d="M110.951 12.5026C110.953 12.4719 110.949 12.4411 110.938 12.4122C110.928 12.3833 110.911 12.3568 110.89 12.3344C110.869 12.312 110.843 12.2941 110.815 12.2819C110.787 12.2698 110.756 12.2635 110.725 12.2636H108.535C108.474 12.2672 108.416 12.2939 108.374 12.3384C108.332 12.3828 108.309 12.4416 108.309 12.5026V20.5183L102.997 12.3339C102.98 12.3083 102.957 12.2881 102.929 12.2756C102.902 12.2631 102.871 12.2589 102.841 12.2636H100.821C100.791 12.2636 100.762 12.2694 100.734 12.2807C100.707 12.292 100.682 12.3086 100.661 12.3295C100.64 12.3504 100.623 12.3752 100.612 12.4025C100.601 12.4298 100.595 12.459 100.595 12.4886V25.5104C100.595 25.5701 100.619 25.6273 100.661 25.6695C100.703 25.7117 100.761 25.7354 100.821 25.7354H102.997C103.058 25.7355 103.117 25.7123 103.162 25.6705C103.206 25.6286 103.233 25.5714 103.237 25.5104V17.4667L108.549 25.6651C108.565 25.6907 108.589 25.7109 108.616 25.7234C108.644 25.7359 108.675 25.7401 108.705 25.7354H110.725C110.785 25.7354 110.843 25.7117 110.885 25.6695C110.927 25.6273 110.951 25.5701 110.951 25.5104V12.5026Z" fill="#23AF91"/>
<path d="M96.3413 12.5027C96.3413 12.4393 96.316 12.3785 96.271 12.3337C96.2259 12.2889 96.1648 12.2637 96.1011 12.2637H93.9253C93.8641 12.2673 93.8065 12.294 93.7645 12.3385C93.7225 12.3829 93.6991 12.4417 93.6992 12.5027V25.4965C93.6991 25.5575 93.7225 25.6163 93.7645 25.6607C93.8065 25.7052 93.8641 25.732 93.9253 25.7355H96.1011C96.1648 25.7355 96.2259 25.7104 96.271 25.6655C96.316 25.6207 96.3413 25.5599 96.3413 25.4965V12.5027Z" fill="#23AF91"/>
<path d="M70.2603 19C70.2603 18.3531 70.2603 17.8187 70.2885 17.3828C70.2999 17.0342 70.333 16.6867 70.3874 16.3422C70.5852 15.175 71.4753 14.5 72.6198 14.5C73.3545 14.5 74.0327 14.7812 74.4565 15.4C74.662 15.6865 74.8063 16.012 74.8804 16.3562C74.8945 16.3843 74.9087 16.4125 74.951 16.4125H77.5225C77.5649 16.4125 77.579 16.3843 77.5649 16.3422C77.2823 14.7672 76.4346 13.3468 74.951 12.6437C74.2102 12.3097 73.4047 12.1416 72.5915 12.1515C71.9148 12.137 71.2423 12.2606 70.6154 12.5145C69.9885 12.7684 69.4205 13.1474 68.9463 13.6281C68.3816 14.1766 67.9973 14.8827 67.8442 15.6531C67.7029 16.4125 67.6182 17.5234 67.6182 19C67.6182 20.4765 67.7029 21.5875 67.8442 22.3468C67.9973 23.1173 68.3816 23.8234 68.9463 24.3718C69.4205 24.8525 69.9885 25.2315 70.6154 25.4854C71.2423 25.7394 71.9148 25.8629 72.5915 25.8484C73.4047 25.8583 74.2102 25.6903 74.951 25.3562C76.4346 24.6531 77.2823 23.2328 77.5649 21.6578C77.579 21.6156 77.5649 21.5875 77.5225 21.5875H74.951C74.9087 21.5875 74.8945 21.6156 74.8804 21.6437C74.8063 21.988 74.662 22.3134 74.4565 22.6C74.0327 23.2187 73.3545 23.5 72.6198 23.5C71.4753 23.5 70.5852 22.825 70.3874 21.6578C70.333 21.3133 70.2999 20.9657 70.2885 20.6172C70.2603 20.1812 70.2603 19.6468 70.2603 19Z" fill="#23AF91"/>
<path d="M43.1753 12.4887C43.1753 12.4592 43.1695 12.4299 43.1581 12.4026C43.1467 12.3753 43.1301 12.3505 43.1091 12.3296C43.0881 12.3087 43.0632 12.2922 43.0358 12.2809C43.0083 12.2696 42.9789 12.2637 42.9492 12.2637H40.7734C40.7121 12.2636 40.653 12.2869 40.6084 12.3287C40.5637 12.3705 40.5368 12.4278 40.5332 12.4887V25.5106C40.5368 25.5715 40.5637 25.6288 40.6084 25.6706C40.653 25.7125 40.7121 25.7357 40.7734 25.7356H42.9492C42.9789 25.7356 43.0083 25.7298 43.0358 25.7185C43.0632 25.7072 43.0881 25.6906 43.1091 25.6697C43.1301 25.6488 43.1467 25.624 43.1581 25.5967C43.1695 25.5694 43.1753 25.5402 43.1753 25.5106V21.6856L44.9273 19.6044L48.516 25.6653C48.5298 25.6865 48.5486 25.7039 48.5708 25.7162C48.593 25.7284 48.6178 25.7351 48.6432 25.7356H51.2994C51.4124 25.7356 51.4407 25.6512 51.37 25.5528L46.6792 17.6215L50.9885 12.4747C51.0733 12.3622 51.0451 12.2637 50.9038 12.2637H48.0074C47.9908 12.2631 47.9744 12.2667 47.9596 12.2741C47.9448 12.2814 47.932 12.2924 47.9226 12.3059L43.1753 17.9731V12.4887Z" fill="#23AF91"/>
<path d="M59.0417 23.4996C57.8266 23.4996 56.7104 22.3746 56.7104 21.0246V12.4887C56.7104 12.429 56.6866 12.3718 56.6442 12.3296C56.6018 12.2874 56.5443 12.2637 56.4844 12.2637H54.2944C54.2345 12.2637 54.177 12.2874 54.1346 12.3296C54.0922 12.3718 54.0684 12.429 54.0684 12.4887V20.9965C54.0684 23.9637 56.3007 25.848 59.0417 25.848C61.7827 25.848 64.0292 23.9637 64.0292 20.9965V12.4887C64.0256 12.4277 63.9987 12.3705 63.954 12.3286C63.9094 12.2868 63.8503 12.2636 63.789 12.2637H61.6132C61.5532 12.2637 61.4957 12.2874 61.4533 12.3296C61.4109 12.3718 61.3871 12.429 61.3871 12.4887V21.0246C61.3871 22.3746 60.2709 23.4996 59.0417 23.4996Z" fill="#23AF91"/>
<path fill-rule="evenodd" clip-rule="evenodd" d="M18.6331 18.9996L25.4008 25.7355L29.6677 21.4886C30.0293 21.1287 30.5198 20.9265 31.0312 20.9265C31.5425 20.9265 32.033 21.1287 32.3946 21.4886C32.7562 21.8485 32.9593 22.3367 32.9593 22.8457C32.9593 23.3546 32.7562 23.8428 32.3946 24.2027L26.7713 29.8136C26.4046 30.1692 25.9128 30.3683 25.4008 30.3683C24.8888 30.3683 24.397 30.1692 24.0303 29.8136L15.9062 21.7136V26.523C15.9291 26.7889 15.8963 27.0566 15.8097 27.3092C15.7232 27.5618 15.5849 27.7937 15.4036 27.9903C15.2223 28.1869 15.0019 28.3438 14.7564 28.4512C14.511 28.5586 14.2458 28.614 13.9776 28.614C13.7095 28.614 13.4443 28.5586 13.1989 28.4512C12.9534 28.3438 12.733 28.1869 12.5517 27.9903C12.3704 27.7937 12.2321 27.5618 12.1456 27.3092C12.059 27.0566 12.0262 26.7889 12.0491 26.523V11.4761C12.0262 11.2102 12.059 10.9425 12.1456 10.6899C12.2321 10.4374 12.3704 10.2054 12.5517 10.0088C12.733 9.81224 12.9534 9.65528 13.1989 9.54792C13.4443 9.44055 13.7095 9.38511 13.9776 9.38511C14.2458 9.38511 14.511 9.44055 14.7564 9.54792C15.0019 9.65528 15.2223 9.81224 15.4036 10.0088C15.5849 10.2054 15.7232 10.4374 15.8097 10.6899C15.8963 10.9425 15.9291 11.2102 15.9062 11.4761V16.2855L24.0303 8.1855C24.397 7.82987 24.8888 7.63086 25.4008 7.63086C25.9128 7.63086 26.4046 7.82987 26.7713 8.1855L32.3946 13.7964C32.7562 14.1563 32.9593 14.6445 32.9593 15.1535C32.9593 15.6624 32.7562 16.1506 32.3946 16.5105C32.033 16.8704 31.5425 17.0726 31.0312 17.0726C30.5198 17.0726 30.0293 16.8704 29.6677 16.5105L25.4008 12.2636L18.6331 18.9996ZM25.4008 17.073C25.018 17.073 24.6437 17.186 24.3254 17.3977C24.0071 17.6094 23.759 17.9103 23.6125 18.2623C23.466 18.6143 23.4277 19.0017 23.5024 19.3754C23.577 19.7491 23.7614 20.0924 24.0321 20.3618C24.3028 20.6313 24.6477 20.8148 25.0232 20.8891C25.3987 20.9634 25.7879 20.9253 26.1416 20.7795C26.4953 20.6337 26.7976 20.3867 27.0103 20.0699C27.2229 19.7531 27.3365 19.3806 27.3365 18.9996C27.3365 18.4886 27.1325 17.9986 26.7695 17.6373C26.4065 17.276 25.9142 17.073 25.4008 17.073Z" fill="#23AF91"/>
</svg>
