<svg width="67" height="41" viewBox="0 0 67 41" fill="none" xmlns="http://www.w3.org/2000/svg">
<path d="M42.5578 4.38477H24.4419V36.6153H42.5578V4.38477Z" fill="#FF5F00"/>
<path d="M25.5922 20.5008C25.5922 14.2369 28.5252 8.25778 33.4712 4.38556C24.4995 -2.61861 11.5021 -1.08111 4.42823 7.85917C-2.64559 16.7425 -1.0928 29.6119 7.93639 36.6161C15.4703 42.4814 25.9948 42.4814 33.5287 36.6161C28.5252 32.7439 25.5922 26.7647 25.5922 20.5008Z" fill="#EB001B"/>
<path d="M67.0001 20.5008C67.0001 31.8328 57.7408 41.0008 46.2962 41.0008C41.6378 41.0008 37.152 39.4633 33.5288 36.6161C42.5005 29.6119 44.0533 16.7425 36.9795 7.80222C35.9443 6.54944 34.794 5.35361 33.5288 4.38556C42.5005 -2.61861 55.5554 -1.08111 62.5717 7.85917C65.4473 11.4467 67.0001 15.8883 67.0001 20.5008Z" fill="#F79E1B"/>
<path d="M65.0447 33.1996V32.5162H65.3322V32.4023H64.6421V32.5162H64.9296V33.1996H65.0447ZM66.3674 33.1996V32.4023H66.1374L65.9073 32.9718L65.6773 32.4023H65.4472V33.1996H65.6198V32.5732L65.8498 33.0857H66.0223L66.2524 32.5732V33.1996H66.3674Z" fill="#F79E1B"/>
</svg>
