<svg width="36" height="24" viewBox="0 0 36 24" fill="none" xmlns="http://www.w3.org/2000/svg">
<g clip-path="url(#clip0_314_3091)">
<path d="M32.494 24C34.1509 24 35.494 22.6569 35.494 21V3C35.494 1.34315 34.1509 0 32.494 0H2.99902C1.34217 0 -0.000976562 1.34315 -0.000976562 3V21C-0.000976562 22.6569 1.34217 24 2.99902 24H32.494Z" fill="#232323"/>
<path d="M17.8492 18.4449C19.359 19.8127 21.3582 20.6439 23.5519 20.6439C28.2446 20.6439 32.0482 16.8403 32.0482 12.1476C32.0482 7.45496 28.2446 3.65137 23.5519 3.65137C21.3582 3.65137 19.359 4.48257 17.8492 5.8504C16.1341 7.40234 15.0557 9.64874 15.0557 12.1476C15.0557 14.6465 16.1341 16.8877 17.8492 18.4449Z" fill="#E3B837"/>
<path d="M31.1537 16.8662H31.1853C31.1958 16.8662 31.2063 16.8662 31.2169 16.8609C31.2274 16.8557 31.2326 16.8451 31.2326 16.8346C31.2326 16.8241 31.2274 16.8136 31.2169 16.8083C31.2116 16.803 31.1958 16.803 31.1853 16.803H31.1537V16.8662ZM31.1537 17.0029H31.0959V16.761H31.2011C31.2221 16.761 31.2432 16.7609 31.259 16.7715C31.28 16.7873 31.2905 16.8083 31.2905 16.8346C31.2905 16.8609 31.2747 16.8872 31.2484 16.8977L31.2958 17.0029H31.2326L31.1958 16.9083H31.1537V17.0029ZM31.1905 17.0924C31.3063 17.0924 31.401 16.9977 31.401 16.882C31.401 16.7662 31.3063 16.6715 31.1905 16.6715C31.0748 16.6715 30.9801 16.7662 30.9801 16.882C30.9801 16.9977 31.0748 17.0924 31.1905 17.0924ZM30.917 16.882C30.917 16.7294 31.038 16.6084 31.1905 16.6084C31.3431 16.6084 31.4641 16.7294 31.4641 16.882C31.4641 17.0345 31.3431 17.1555 31.1905 17.1555C31.038 17.1555 30.917 17.0345 30.917 16.882Z" fill="#E3B837"/>
<path d="M17.8492 18.4441C16.1341 16.8869 15.0557 14.6457 15.0557 12.1468C15.0557 9.64795 16.1341 7.40155 17.8492 5.84961" fill="#E3B837"/>
<path d="M17.8492 18.4441C16.1341 16.8869 15.0557 14.6457 15.0557 12.1468C15.0557 9.64795 16.1341 7.40155 17.8492 5.84961" stroke="#E3B837" stroke-width="0.142043"/>
<path d="M20.5956 11.248C20.564 10.9429 20.5114 10.643 20.4483 10.3484H15.2453C15.3137 10.0433 15.3979 9.74343 15.4926 9.44882H20.201C20.1011 9.13843 19.9801 8.83856 19.8433 8.5492H15.8556C16.0029 8.23882 16.166 7.93895 16.3448 7.64961H19.354C19.1594 7.33395 18.9384 7.03408 18.707 6.75H16.9919C17.255 6.42909 17.5391 6.12922 17.8494 5.8504C16.3396 4.48257 14.3405 3.65137 12.1467 3.65137C7.454 3.65137 3.65039 7.45496 3.65039 12.1476C3.65039 16.8403 7.454 20.6439 12.1467 20.6439C14.3405 20.6439 16.3396 19.8127 17.8494 18.4449C18.1546 18.166 18.4439 17.8662 18.707 17.5453H16.9919C16.7552 17.2612 16.5448 16.9613 16.3448 16.6457H19.354C19.5329 16.3563 19.696 16.0565 19.8433 15.7461H15.8556C15.7188 15.4515 15.5978 15.1568 15.4926 14.8464H20.201C20.301 14.5518 20.3852 14.252 20.4483 13.9468C20.5114 13.6522 20.564 13.3524 20.5956 13.0473C20.6272 12.7526 20.643 12.4528 20.643 12.1476C20.643 11.8425 20.6272 11.5426 20.5956 11.248Z" fill="#BE002E"/>
<path d="M31.1537 14.0996H31.1853C31.1958 14.0996 31.2063 14.1048 31.2169 14.0996C31.2274 14.0891 31.2326 14.0785 31.2326 14.068C31.2326 14.0575 31.2274 14.047 31.2169 14.047C31.2116 14.0364 31.1958 14.0417 31.1853 14.0417H31.1537V14.0996ZM31.1537 14.2364H31.0959V13.9996H31.2011C31.2221 13.9996 31.2432 13.9996 31.259 14.0101C31.28 14.0207 31.2905 14.047 31.2905 14.068C31.2905 14.0996 31.2747 14.1206 31.2484 14.1311L31.2958 14.2364H31.2326L31.1958 14.1417H31.1537V14.2364ZM31.1905 14.3258C31.3063 14.3258 31.401 14.2311 31.401 14.1206C31.401 14.0049 31.3063 13.9102 31.1905 13.9102C31.0748 13.9102 30.9801 14.0049 30.9801 14.1206C30.9801 14.2311 31.0748 14.3258 31.1905 14.3258ZM30.917 14.1206C30.917 13.9681 31.038 13.8418 31.1905 13.8418C31.3431 13.8418 31.4641 13.9681 31.4641 14.1206C31.4641 14.2679 31.3431 14.3942 31.1905 14.3942C31.038 14.3942 30.917 14.2679 30.917 14.1206Z" fill="white"/>
<path d="M14.9605 14.5987C14.6764 14.6776 14.4765 14.7144 14.2661 14.7144C13.8347 14.7144 13.5664 14.4409 13.5664 13.9463C13.5664 13.8464 13.5769 13.7412 13.5927 13.6307L13.6506 13.2887L13.6927 13.0099L14.0925 10.6162H14.9816L14.8764 11.1371H15.4288L15.2972 12.0209H14.7396L14.5028 13.4518C14.4923 13.5149 14.4871 13.5676 14.4871 13.5991C14.4871 13.778 14.5817 13.8569 14.8027 13.8569C14.9079 13.8569 14.9868 13.8464 15.0815 13.8253L14.9605 14.5987Z" fill="black"/>
<path d="M17.2602 12.4837C17.2654 12.41 17.2654 12.3469 17.2654 12.3048C17.2654 12.0207 17.1076 11.8524 16.8288 11.8524C16.5394 11.8524 16.329 12.0786 16.2448 12.4784L17.2602 12.4837ZM17.8073 14.567C17.4916 14.6617 17.1865 14.709 16.8656 14.709C15.8766 14.709 15.2979 14.1724 15.2979 13.1413C15.2979 11.9366 15.9765 11.0527 16.9077 11.0527C17.6652 11.0527 18.1492 11.5473 18.1492 12.3259C18.1492 12.5836 18.1177 12.8362 18.0388 13.1886H16.2027C16.1975 13.2465 16.1975 13.2676 16.1975 13.2991C16.1975 13.7042 16.471 13.9146 17.0024 13.9146C17.3338 13.9146 17.6284 13.8463 17.9598 13.6937L17.8073 14.567Z" fill="black"/>
<path d="M7.92232 14.6459H6.99642L7.52777 11.3316L6.34934 14.6459H5.71802L5.63912 11.3474L5.08673 14.6459H4.19238L4.91311 10.332H6.23886L6.27568 13.0045L7.17002 10.332H8.62729L7.92232 14.6459Z" fill="black"/>
<path d="M10.8622 14.6465H10.0678L10.0836 14.2835C9.88369 14.5518 9.61014 14.7043 9.1156 14.7043C8.66844 14.7043 8.29492 14.315 8.29492 13.7469C8.29492 13.5785 8.32649 13.4312 8.36332 13.2892C8.51062 12.7526 9.05774 12.4106 9.89421 12.3949C9.99944 12.3949 10.1625 12.3948 10.2993 12.4106C10.3309 12.2949 10.3361 12.2475 10.3361 12.1844C10.3361 11.9529 10.1467 11.8793 9.71535 11.8793C9.45231 11.8793 9.1577 11.9214 8.95252 11.9845L8.821 12.0213L8.76839 12.0319L8.89466 11.248C9.32605 11.1165 9.63118 11.0586 9.96787 11.0586C10.7623 11.0586 11.1831 11.4163 11.1831 12.0897C11.1831 12.2633 11.1989 12.3949 11.1358 12.7842L10.9464 14.0257L10.9096 14.2519L10.8885 14.4255L10.8727 14.5465L10.8622 14.6465ZM10.1362 13.084C10.0363 13.0735 10.0205 13.0682 9.95208 13.0682C9.43127 13.0682 9.16822 13.2681 9.16822 13.5996C9.16822 13.8205 9.29449 13.9573 9.49966 13.9573C9.94156 13.9573 10.1204 13.5996 10.1362 13.084Z" fill="black"/>
<path d="M22.2415 11.1691C22.4993 11.1691 22.7412 11.2374 23.0674 11.4058L23.22 10.4694C23.1358 10.4378 23.1148 10.4273 22.9938 10.3852L22.615 10.2905C22.4993 10.2589 22.3625 10.2432 22.2046 10.2432C21.747 10.2432 21.4786 10.2484 21.1998 10.422C21.0525 10.5115 20.8684 10.643 20.6527 10.8797L20.5422 10.8481L19.6005 11.5163L19.6479 11.1375H18.6694L18.1064 14.6465H19.0324L19.369 12.7578C19.369 12.7578 19.5006 12.5001 19.5584 12.4211C19.7268 12.1897 19.8794 12.1897 20.074 12.1949C20.095 12.1949 20.1266 12.1949 20.1371 12.1949C20.1108 12.4001 20.095 12.6211 20.095 12.8631C20.095 14.0099 20.7474 14.7201 21.7417 14.7201C21.9942 14.7201 22.2152 14.6886 22.5519 14.5991L22.7149 13.6154C22.4098 13.7627 22.1625 13.8363 21.9311 13.8363C21.3945 13.8363 21.0736 13.4417 21.0736 12.7842C21.0736 11.8372 21.5523 11.1691 22.2415 11.1691Z" fill="black"/>
<path d="M28.9123 13.82C28.6019 13.82 28.4388 13.5885 28.4388 13.1255C28.4388 12.4364 28.7386 11.9471 29.1542 11.9471C29.4752 11.9471 29.6435 12.1891 29.6435 12.6363C29.6435 13.3307 29.3436 13.82 28.9123 13.82ZM30.0381 10.332L29.8329 11.5631C29.6119 11.2316 29.3489 11.0738 28.9912 11.0738C28.5072 11.0738 28.06 11.3474 27.7812 11.8682V11.8629L27.1972 11.5157L27.2393 11.1369H26.266L25.7031 14.6459H26.6238L26.9289 12.7573C26.9289 12.7573 27.1656 12.4942 27.2235 12.4153C27.3603 12.2365 27.5129 12.1996 27.6339 12.1944C27.5286 12.489 27.4655 12.8362 27.4655 13.236C27.4655 14.1093 27.9232 14.688 28.5966 14.688C28.9333 14.688 29.1963 14.5723 29.4489 14.2987L29.4015 14.6459H30.2748L30.9745 10.332H30.0381Z" fill="black"/>
<path d="M25.3935 14.6465H24.5991L24.6149 14.2835C24.4149 14.5518 24.1414 14.7043 23.6469 14.7043C23.2049 14.7043 22.7946 14.3203 22.7999 13.7416C22.8051 12.9104 23.4312 12.3949 24.4255 12.3949C24.5307 12.3949 24.6938 12.3948 24.8305 12.4106C24.8621 12.2949 24.8674 12.2475 24.8674 12.1844C24.8674 11.9529 24.678 11.8793 24.2466 11.8793C23.9835 11.8793 23.6889 11.9214 23.4838 11.9845L23.3575 12.0213L23.2996 12.0319L23.4312 11.248C23.8625 11.1165 24.1624 11.0586 24.4991 11.0586C25.2935 11.0586 25.7091 11.4163 25.7091 12.0897C25.7091 12.2633 25.7301 12.3949 25.667 12.7842L25.4776 14.0257L25.4461 14.2519L25.4198 14.4255L25.404 14.5465L25.3935 14.6465ZM24.6674 13.084C24.5728 13.0735 24.5517 13.0682 24.4833 13.0682C23.9625 13.0682 23.6995 13.2681 23.6995 13.5996C23.6995 13.8205 23.8257 13.9573 24.0309 13.9573C24.4728 13.9573 24.6517 13.5996 24.6674 13.084Z" fill="black"/>
<path fill-rule="evenodd" clip-rule="evenodd" d="M12.7884 11.8894C12.9673 11.8894 13.2146 11.9052 13.4829 11.942L13.6091 11.1319C13.3408 11.0951 12.9989 11.0635 12.7884 11.0635C11.7573 11.0635 11.4153 11.6106 11.4153 12.2577C11.4153 12.6733 11.6205 12.989 12.1045 13.2204C12.478 13.394 12.5412 13.4256 12.5412 13.5834C12.5412 13.8044 12.3518 13.9254 11.9888 13.9254C11.7152 13.9254 11.4574 13.8833 11.1628 13.7886L11.0576 14.5935L11.0787 14.5988L11.247 14.6356C11.2996 14.6461 11.3838 14.6567 11.489 14.6672C11.7047 14.6882 11.8941 14.6987 12.0098 14.6987C13.0357 14.6987 13.4566 14.3042 13.4566 13.5308C13.4566 13.0521 13.2303 12.768 12.7674 12.5576C12.3781 12.3787 12.336 12.3524 12.336 12.1893C12.3413 12.0262 12.5043 11.8894 12.7884 11.8894Z" fill="black"/>
<path d="M23.468 10.1956L23.3207 11.132C22.9893 10.9689 22.7525 10.9005 22.4947 10.9005C21.8056 10.9005 21.3216 11.5634 21.3216 12.5156C21.3216 13.1679 21.6478 13.5625 22.1844 13.5625C22.4106 13.5625 22.6631 13.4941 22.9682 13.3416L22.8051 14.3253C22.4632 14.42 22.2475 14.4516 21.9897 14.4516C20.9954 14.4516 20.3799 13.7361 20.3799 12.5893C20.3799 11.0478 21.2321 9.97461 22.4527 9.97461C22.6105 9.97461 22.7525 9.9904 22.8683 10.0167L23.247 10.1114C23.3628 10.1535 23.3891 10.164 23.468 10.1956Z" fill="white"/>
<path d="M20.506 10.8373C20.4797 10.832 20.4481 10.832 20.4165 10.832C20.1114 10.832 19.943 10.9846 19.659 11.4002L19.7379 10.8688H18.9067L18.3438 14.3726H19.2644C19.5958 12.2314 19.6853 11.8579 20.1272 11.8579C20.1535 11.8579 20.1535 11.8579 20.1903 11.8632C20.2745 11.4423 20.3902 11.1319 20.5428 10.8478L20.506 10.8373Z" fill="white"/>
<path d="M15.1926 14.3301C14.9401 14.409 14.7454 14.4406 14.535 14.4406C14.0615 14.4406 13.8037 14.1723 13.8037 13.6725C13.8037 13.5726 13.8142 13.4673 13.83 13.3569L13.8879 13.0149L13.93 12.7414L14.3298 10.3477H15.2452L15.14 10.8685H15.6135L15.4872 11.7207H15.0137L14.7717 13.1833C14.7612 13.2464 14.7559 13.2937 14.7559 13.3253C14.7559 13.5094 14.8506 13.5883 15.0663 13.5883C15.1715 13.5883 15.2557 13.5778 15.3188 13.5515L15.1926 14.3301Z" fill="white"/>
<path d="M11.6519 11.9737C11.6519 12.4156 11.8676 12.7208 12.3516 12.9523C12.7251 13.1258 12.783 13.1785 12.783 13.3363C12.783 13.5572 12.6199 13.6572 12.2569 13.6572C11.9781 13.6572 11.7256 13.6151 11.431 13.5152L11.3047 14.3253L11.3415 14.3359L11.5151 14.3674C11.5677 14.3779 11.6466 14.3885 11.7519 14.399C11.9728 14.42 12.1412 14.4305 12.2622 14.4305C13.2354 14.4305 13.6826 14.057 13.6826 13.2574C13.6826 12.7786 13.4932 12.4946 13.0355 12.2841C12.6462 12.1053 12.6041 12.0684 12.6041 11.9053C12.6041 11.716 12.7567 11.616 13.0513 11.616C13.2354 11.616 13.4827 11.637 13.7142 11.6686L13.8457 10.8584C13.6089 10.8216 13.2459 10.79 13.0355 10.79C12.0044 10.79 11.6466 11.3319 11.6519 11.9737Z" fill="white"/>
<path d="M29.1497 13.5462C29.5811 13.5462 29.881 13.0622 29.881 12.3677C29.881 11.9206 29.7126 11.6786 29.3917 11.6786C28.9761 11.6786 28.6762 12.1678 28.6762 12.857C28.6762 13.3147 28.834 13.5462 29.1497 13.5462ZM30.5123 14.3721H29.639L29.6863 14.0302C29.4285 14.2985 29.1707 14.4195 28.8288 14.4195C28.1607 14.4195 27.7188 13.8408 27.7188 12.9622C27.7188 11.7996 28.4027 10.8158 29.2181 10.8158C29.5758 10.8158 29.8494 10.9631 30.1019 11.2945L30.3018 10.0635H31.212L30.5123 14.3721Z" fill="white"/>
<path d="M17.4962 12.2103C17.5014 12.1366 17.5014 12.0787 17.5014 12.0314C17.5014 11.7473 17.3384 11.5842 17.0648 11.5842C16.7702 11.5842 16.565 11.8052 16.4756 12.2103H17.4962ZM18.0118 14.2988C17.6961 14.3935 17.391 14.4409 17.0648 14.4409C16.0337 14.4409 15.4971 13.899 15.4971 12.8679C15.4971 11.6684 16.181 10.7793 17.1121 10.7793C17.8697 10.7793 18.3537 11.2738 18.3537 12.0524C18.3537 12.3102 18.3221 12.5627 18.2432 12.9205H16.4072C16.4019 12.9731 16.3967 12.9994 16.3967 13.0309C16.3967 13.436 16.6702 13.6412 17.2068 13.6412C17.5383 13.6412 17.8329 13.5728 18.1643 13.4202L18.0118 14.2988Z" fill="white"/>
<path d="M8.15345 14.3721H7.23281L7.75889 11.0578L6.58047 14.3721H5.95442L5.8755 11.0788L5.31787 14.3721H4.45508L5.17582 10.0635H6.50155L6.53838 12.7307L7.43797 10.0635H8.86894L8.15345 14.3721Z" fill="white"/>
<path d="M11.0997 14.3727H10.3317L10.3527 14.0097C10.116 14.299 9.80557 14.4358 9.38471 14.4358C8.88492 14.4358 8.54297 14.0412 8.54297 13.4783C8.54297 12.6208 9.13744 12.1263 10.1581 12.1263C10.2633 12.1263 10.4001 12.1368 10.5368 12.1526C10.5631 12.0369 10.5737 11.9843 10.5737 11.9264C10.5737 11.6896 10.4106 11.6055 9.97919 11.6055C9.71614 11.6055 9.42154 11.6423 9.21636 11.7054L9.09011 11.7422L9.00593 11.7633L9.13219 10.9742C9.59515 10.8427 9.895 10.79 10.237 10.79C11.0261 10.79 11.447 11.1425 11.447 11.8159C11.447 11.9895 11.4312 12.121 11.3733 12.5103L11.1787 13.7572L11.1471 13.9781L11.1261 14.157L11.1103 14.278L11.0997 14.3727ZM10.4264 12.8102C10.3316 12.7997 10.2896 12.7997 10.2212 12.7997C9.70036 12.7997 9.43206 12.9786 9.43206 13.331C9.43206 13.5467 9.56358 13.6888 9.76349 13.6888C10.1423 13.6888 10.4106 13.331 10.4264 12.8102Z" fill="white"/>
<path d="M25.63 14.3727H24.8619L24.883 14.0097C24.6462 14.299 24.3359 14.4358 23.915 14.4358C23.4152 14.4358 23.0732 14.0412 23.0732 13.4783C23.0732 12.6208 23.6677 12.1263 24.6936 12.1263C24.7988 12.1263 24.9303 12.1368 25.0671 12.1526C25.0987 12.0369 25.1039 11.9843 25.1039 11.9264C25.1039 11.6896 24.9409 11.6055 24.5147 11.6055C24.2517 11.6055 23.9518 11.6423 23.7466 11.7054L23.6204 11.7422L23.5362 11.7633L23.6625 10.9742C24.1254 10.8427 24.4253 10.79 24.7672 10.79C25.5616 10.79 25.9772 11.1425 25.9772 11.8159C25.9772 11.9895 25.9667 12.121 25.9036 12.5103L25.7089 13.7572L25.6774 13.9781L25.6563 14.157L25.6405 14.278L25.63 14.3727ZM24.9566 12.8102C24.8619 12.7997 24.8198 12.7997 24.7515 12.7997C24.2306 12.7997 23.9623 12.9786 23.9623 13.331C23.9623 13.5467 24.0938 13.6888 24.2938 13.6888C24.6725 13.6888 24.9409 13.331 24.9566 12.8102Z" fill="white"/>
<path d="M28.1021 10.8373C28.0757 10.832 28.0442 10.832 28.0074 10.832C27.7075 10.832 27.5339 10.9846 27.2498 11.4002L27.334 10.8688H26.4975L25.9346 14.3726H26.8605C27.1867 12.2314 27.2761 11.8579 27.718 11.8579C27.7443 11.8579 27.7443 11.8579 27.7811 11.8632C27.8653 11.4423 27.9758 11.1319 28.1336 10.8478L28.1021 10.8373Z" fill="white"/>
</g>
<defs>
<clipPath id="clip0_314_3091">
<rect width="35.495" height="24" fill="white"/>
</clipPath>
</defs>
</svg>
