<svg width="17" height="16" viewBox="0 0 17 16" fill="none" xmlns="http://www.w3.org/2000/svg">
<path d="M8.66684 2.66669C9.40323 2.66669 10.0002 2.06973 10.0002 1.33334C10.0002 0.596958 9.40323 0 8.66684 0C7.93046 0 7.3335 0.596958 7.3335 1.33334C7.3335 2.06973 7.93046 2.66669 8.66684 2.66669Z" fill="#858D9D"/>
<path d="M8.66684 9.33271C9.40323 9.33271 10.0002 8.73575 10.0002 7.99936C10.0002 7.26298 9.40323 6.66602 8.66684 6.66602C7.93046 6.66602 7.3335 7.26298 7.3335 7.99936C7.3335 8.73575 7.93046 9.33271 8.66684 9.33271Z" fill="#858D9D"/>
<path d="M8.66684 16.0007C9.40323 16.0007 10.0002 15.4037 10.0002 14.6673C10.0002 13.9309 9.40323 13.334 8.66684 13.334C7.93046 13.334 7.3335 13.9309 7.3335 14.6673C7.3335 15.4037 7.93046 16.0007 8.66684 16.0007Z" fill="#858D9D"/>
</svg>
