<svg width="16" height="16" viewBox="0 0 16 16" fill="none" xmlns="http://www.w3.org/2000/svg">
<path d="M7.99999 2.66669C8.73638 2.66669 9.33334 2.06973 9.33334 1.33334C9.33334 0.596958 8.73638 0 7.99999 0C7.2636 0 6.66664 0.596958 6.66664 1.33334C6.66664 2.06973 7.2636 2.66669 7.99999 2.66669Z" fill="#858D9D"/>
<path d="M7.99999 9.33271C8.73638 9.33271 9.33334 8.73575 9.33334 7.99936C9.33334 7.26298 8.73638 6.66602 7.99999 6.66602C7.2636 6.66602 6.66664 7.26298 6.66664 7.99936C6.66664 8.73575 7.2636 9.33271 7.99999 9.33271Z" fill="#858D9D"/>
<path d="M7.99999 16.0007C8.73638 16.0007 9.33334 15.4037 9.33334 14.6673C9.33334 13.9309 8.73638 13.334 7.99999 13.334C7.2636 13.334 6.66664 13.9309 6.66664 14.6673C6.66664 15.4037 7.2636 16.0007 7.99999 16.0007Z" fill="#858D9D"/>
</svg>
