<svg xmlns="http://www.w3.org/2000/svg" fill="none" viewBox="0 0 126 36" height="36" width="126">
<g clip-path="url(#clip0_12174_827382)">
<path fill="#20E682" d="M21.4786 33.4729C16.2478 37.5442 8.715 36.5951 4.65357 31.3517C0.592136 26.1082 1.53894 18.5572 6.7697 14.486C12.0005 10.4147 19.5333 11.3638 23.5954 16.6072C27.6569 21.8506 26.7093 29.4017 21.4793 33.4729"></path>
<path fill="black" d="M11.9925 33.3218L19.699 27.9108C20.6221 27.2639 21.1942 26.3033 21.373 25.2757C21.5553 24.2453 21.345 23.1473 20.6989 22.2219C19.7091 20.8044 17.9791 20.2101 16.3963 20.5965C15.9857 20.6986 15.5859 20.8634 15.2105 21.0994C15.1473 21.1383 15.0877 21.1771 15.0246 21.2189L12.0593 23.3013C12.0557 23.3049 12.0557 23.3085 12.0557 23.3113C12.0104 23.4768 11.9157 23.628 11.7678 23.7337C11.7642 23.7409 11.7542 23.7445 11.747 23.7517C11.4103 23.9906 10.9466 23.9237 10.6868 23.6071C10.6796 23.597 10.6724 23.5898 10.666 23.5826C10.6588 23.5725 10.6559 23.5654 10.648 23.5582C10.6408 23.5481 10.638 23.5409 10.6308 23.5301C10.6272 23.5229 10.62 23.5128 10.6164 23.5056C10.4061 23.1538 10.5045 22.6932 10.8411 22.4572C10.999 22.345 11.1814 22.3025 11.3608 22.3169L16.2564 18.8796V14.6371L8.54552 20.0482C7.62599 20.6958 7.05389 21.6556 6.87156 22.6832C6.68924 23.7136 6.89956 24.8116 7.5456 25.737C8.53906 27.1545 10.269 27.7489 11.8518 27.3625C12.2624 27.2603 12.6622 27.0955 13.0341 26.8595C13.0972 26.8213 13.1604 26.7818 13.22 26.74L16.1889 24.6576C16.1889 24.654 16.1889 24.6504 16.1925 24.6468C16.2341 24.4813 16.3324 24.3338 16.4767 24.2245C16.4839 24.2173 16.4904 24.2144 16.4975 24.2065C16.8378 23.9676 17.3015 24.0345 17.5578 24.3511C17.5649 24.3612 17.5721 24.3684 17.5786 24.3756C17.5858 24.3856 17.5886 24.3928 17.5965 24.4C17.6037 24.4101 17.6066 24.4173 17.6138 24.4281C17.6209 24.4353 17.6245 24.4454 17.6317 24.4526C17.8384 24.8044 17.7437 25.2613 17.4034 25.501C17.2455 25.6096 17.0632 25.6557 16.8873 25.6413L11.9918 29.0786V33.3211L11.9925 33.3218Z"></path>
<path fill="black" d="M38.0636 23.4711L35.6079 22.8904C34.4407 22.6119 33.8729 22.1183 33.8729 21.3815C33.8729 20.3849 34.6417 19.7898 35.9295 19.7898C37.2173 19.7898 37.9588 20.4885 37.9861 21.6592V21.6988H41.2679V21.6578C41.2399 18.9868 39.1504 17.1929 36.068 17.1929C34.4874 17.1929 33.1357 17.5894 32.1602 18.3385C31.1524 19.1127 30.6198 20.2129 30.6198 21.5203C30.6198 23.6725 31.7532 24.8872 34.2936 25.4599L36.75 26.0406C37.8303 26.2867 38.2911 26.7134 38.2911 27.4668C38.2911 28.4634 37.3989 29.0584 35.9037 29.0584C34.4084 29.0584 33.5155 28.3489 33.4882 27.1617V27.1221H30.207V27.1631C30.207 28.5008 30.731 29.6391 31.7224 30.4544C32.7223 31.2768 34.1299 31.7114 35.7938 31.7114C37.4577 31.7114 38.9056 31.2927 39.9364 30.5004C40.9887 29.6909 41.5457 28.5461 41.5457 27.1912C41.5457 25.1721 40.4726 24.0251 38.0657 23.4732"></path>
<path fill="black" d="M50.0912 18.4594C48.4158 18.4594 46.94 19.1653 46.1145 20.3547V14.7875H42.9453V31.3502H46.0894V24.5145C46.0894 22.5824 47.2759 21.3333 49.1121 21.3333C50.7301 21.3333 51.6582 22.4472 51.6582 24.3885V31.3502H54.8023V23.6589C54.8023 22.0255 54.3996 20.7418 53.6057 19.8445C52.7924 18.9256 51.6101 18.4594 50.0919 18.4594"></path>
<path fill="black" d="M65.0068 25.3959C65.0068 27.7223 64.0836 28.8541 62.185 28.8541C60.4141 28.8541 59.5894 27.8108 59.5894 25.5722V18.8372H56.4453V26.6544C56.4453 29.7528 58.2018 31.6784 61.03 31.6784C62.6466 31.6784 64.2344 30.9121 65.0211 29.7615L65.2372 31.351H68.1501V18.8372H65.006V25.3959H65.0068Z"></path>
<path fill="black" d="M91.5525 14.7882H88.4336V31.351H91.5525V14.7882Z"></path>
<path fill="black" d="M113.813 18.7083H113.727C112.114 18.7083 110.832 19.3984 110.263 20.5612L110.097 18.8623H107.133V31.3509H110.277V25.27C110.277 22.9753 111.537 21.7117 113.826 21.7117H114.997V18.7918L114.962 18.7867C114.401 18.7069 114.181 18.7083 113.813 18.7083Z"></path>
<path fill="black" d="M122.574 24.1734L120.339 23.6452C119.279 23.3919 118.764 22.9444 118.764 22.2752C118.764 21.3577 119.444 20.831 120.631 20.831C121.817 20.831 122.473 21.4657 122.499 22.5277V22.5673H125.492V22.5263C125.466 20.0935 123.563 18.4594 120.756 18.4594C119.316 18.4594 118.086 18.8198 117.197 19.5027C116.279 20.2079 115.795 21.2095 115.795 22.4004C115.795 24.3604 116.827 25.4671 119.14 25.9888L121.374 26.517C122.356 26.7407 122.774 27.1279 122.774 27.8114C122.774 28.7159 121.964 29.2556 120.606 29.2556C119.248 29.2556 118.436 28.6123 118.412 27.5337L118.411 27.4941H115.418V27.5344C115.418 28.7533 115.895 29.7895 116.798 30.5328C117.709 31.2819 118.991 31.6776 120.505 31.6776C122.02 31.6776 123.338 31.2963 124.277 30.5745C125.236 29.837 125.742 28.7951 125.742 27.5596C125.742 25.7204 124.765 24.6763 122.572 24.1734"></path>
<path fill="black" d="M102.697 27.2718C102.35 28.4375 101.25 29.08 99.5975 29.08C97.5955 29.08 96.4621 27.9978 96.2281 25.8643L105.563 25.8391V24.8677C105.563 20.9749 103.162 18.4594 99.4468 18.4594C95.7314 18.4594 93.2305 21.1879 93.2305 25.0944C93.2305 29.0009 95.8283 31.6783 99.5473 31.6783C102.812 31.6783 105.08 30.0377 105.612 27.2912L105.621 27.243H102.705L102.696 27.2718H102.697ZM102.43 23.566H96.358C96.7227 21.9247 97.7987 21.0577 99.4726 21.0577C101.147 21.0577 102.301 22.0176 102.43 23.566Z"></path>
<path fill="black" d="M83.8843 27.7373V21.4851H86.3141V18.8371H83.9037V14.9609H80.7603V18.8371H78.375V21.4851H80.7768V28.2741C80.7768 30.1716 82.0596 31.351 84.124 31.351H86.5417V28.6303H84.9854C84.2755 28.6303 83.8843 28.313 83.8843 27.7366"></path>
<path fill="black" d="M74.9941 27.7373V21.4851H77.4196V18.8371H75.0091V14.9609H71.8658V18.8371H69.4805V21.4851H71.8845V28.2741C71.8845 30.1716 73.1679 31.351 75.2338 31.351H77.6514V28.6303H76.0959C75.386 28.6303 74.9948 28.313 74.9948 27.7366"></path>
<path fill="#F72E2E" d="M3.32031 12.8972C3.44737 13.0044 3.54714 13.1476 3.57514 13.303C3.71296 13.2872 3.84648 13.2994 3.97138 13.3368C4.12427 13.3815 4.26712 13.4642 4.38484 13.575C4.46883 13.0094 4.87368 12.3993 5.27709 12.0848C5.10769 11.4538 5.29504 10.7349 5.95328 10.4716C5.97984 10.4608 6.00712 10.4593 6.03152 10.4644C6.10474 10.2392 6.23323 10.042 6.43853 9.88801C6.4292 9.15478 6.49524 8.39996 6.64023 7.66098C6.63306 7.65378 6.62588 7.64874 6.62229 7.63795C6.2885 6.97308 6.17078 6.18588 6.07962 5.45409C6.06382 5.32313 6.28994 5.29147 6.3086 5.42243C6.39259 6.02686 6.57635 6.57373 6.75437 7.1429C6.93813 6.40103 7.20372 5.68363 7.55689 5.02524C7.61216 4.92378 7.78731 4.99358 7.74783 5.10583C7.19798 6.62769 6.83907 8.09631 6.77303 9.70812C6.99269 9.62537 7.24967 9.58435 7.46358 9.64336C7.45137 8.77773 8.34506 8.41435 9.17127 8.42874C9.523 8.43234 9.86182 8.50718 10.1138 8.63957C10.2918 8.48775 10.51 8.40932 10.7562 8.40932C10.9328 8.41076 11.2056 8.44889 11.3448 8.58993C11.4554 8.29131 11.8014 8.14524 12.1194 8.11574C12.6154 8.06968 13.1078 8.27332 13.4452 8.63813C13.8414 8.18553 14.8191 7.83151 15.1184 8.39349C15.2814 8.33952 15.4895 8.36254 15.6453 8.44529C15.7537 8.12653 16.3768 7.96247 16.6409 7.93153C17.1068 7.87972 17.7191 8.12149 17.7478 8.64893C17.9151 8.65397 18.0924 8.72017 18.2352 8.80651C18.4599 8.53596 18.8956 8.46112 19.2236 8.52948C19.6378 8.61367 19.9838 8.93028 20.1123 9.33107C20.1216 9.32531 20.1302 9.32028 20.1425 9.31668C20.2372 9.29149 20.3334 9.27566 20.4296 9.26631C19.7785 7.55088 19.4017 5.78221 18.335 4.2438C17.2683 2.70395 15.6266 1.61238 13.8012 1.20655C11.9701 0.800717 10.0219 1.13891 8.40895 2.08513C6.80677 3.02415 5.66831 4.54098 4.92249 6.22042C3.99435 8.30426 3.68281 10.5867 3.34687 12.8224C3.34185 12.8533 3.33252 12.8778 3.32031 12.8979"></path>
<path fill="white" d="M5.38722 13.7204C5.41737 13.9938 5.54801 14.2197 5.72459 14.4104C5.71741 14.3694 5.71383 14.3284 5.71383 14.2874C5.71526 14.196 5.84232 14.1816 5.87103 14.2658C5.91912 14.4183 5.97439 14.568 6.06556 14.7011C6.15672 14.835 6.28449 14.9227 6.40078 15.0321C6.46323 15.0911 6.39934 15.2041 6.3168 15.1767C6.2242 15.1458 6.13662 15.094 6.05982 15.0264C6.10073 15.2228 6.15457 15.4056 6.32397 15.5538C6.57378 15.7725 6.94345 15.7668 7.23417 15.638C7.25355 15.5876 7.30882 15.5452 7.36266 15.5408C7.5859 15.5265 7.79407 15.6466 8.03167 15.6286C8.28147 15.607 8.53845 15.5142 8.74159 15.3674C8.75021 15.3624 8.75739 15.3602 8.76456 15.3588C8.77031 15.3552 8.7739 15.353 8.77677 15.3516H8.77892C8.79112 15.348 8.80333 15.3422 8.8184 15.3422C9.04667 15.3228 9.25914 15.3797 9.491 15.3264C9.6439 15.2904 9.78028 15.2286 9.91236 15.1544C9.97696 15.1185 10.0409 15.081 10.1069 15.0436C10.1478 15.0184 10.1873 15.022 10.2174 15.0379C10.4794 15.0803 10.6833 15.1904 10.9525 15.1415C10.9704 15.1379 10.9898 15.1343 11.0099 15.1293C11.0221 15.1257 11.0343 15.1221 11.0472 15.1185C11.2597 15.0559 11.4492 14.9343 11.5885 14.768C11.3954 14.8127 11.1973 14.8141 11.0171 14.7393C10.8943 14.6889 10.9051 14.5083 11.0494 14.4989C11.2525 14.4867 11.4435 14.5205 11.6488 14.4759C11.8505 14.4313 12.0321 14.3543 12.2015 14.2356C12.2891 14.1751 12.3975 14.314 12.3156 14.3845C12.2302 14.4593 12.1283 14.5327 12.0156 14.5953C12.6386 14.9961 13.3062 14.835 13.8999 14.4147C13.9566 14.3737 14.0283 14.4111 14.0549 14.4665C14.0621 14.4716 14.0671 14.4759 14.0743 14.4809C14.3743 14.763 14.7311 14.7436 15.0591 14.5759C15.0505 14.5601 15.0398 14.5457 15.0326 14.5299C14.9472 14.3457 15.1912 14.1967 15.3075 14.3687C15.782 15.0767 16.6692 15.0703 17.1028 14.3996C17.0762 14.3687 17.0511 14.3385 17.0331 14.3025C16.9901 14.2169 17.0619 14.0974 17.1652 14.1305C17.1968 14.1399 17.2255 14.1521 17.2542 14.1643C17.3081 14.1442 17.377 14.1787 17.3985 14.2356C17.4875 14.2809 17.5787 14.3248 17.6878 14.3413C17.8141 14.3593 17.9426 14.3557 18.0675 14.3269C18.0855 14.3183 18.1027 14.3126 18.1228 14.3126C18.1903 14.2931 18.2549 14.2643 18.3152 14.2269C18.3848 14.1838 18.4688 14.2874 18.4042 14.3449C18.3669 14.3752 18.3295 14.4054 18.29 14.432C18.504 14.6198 18.8449 14.6666 19.0746 14.4996C19.1306 14.4601 19.2282 14.4752 19.2727 14.5263C19.8843 15.217 20.941 14.9112 21.1211 14.0046C21.1412 13.9024 21.3171 13.924 21.3071 14.0298C21.2963 14.1276 21.2762 14.2212 21.2496 14.309C21.3781 14.2694 21.5088 14.2428 21.6172 14.1341C21.7801 13.9708 21.7866 13.7729 21.8562 13.5685C21.8598 13.5541 21.8705 13.5398 21.8813 13.529C21.8813 13.5196 21.8813 13.511 21.8827 13.5002C21.9825 13.0569 22.172 12.7043 22.083 12.2323C22.0184 11.8869 21.8189 11.6293 21.6566 11.3329C21.6157 11.3127 21.5856 11.2739 21.5892 11.2271C21.6229 10.7997 21.7212 10.4363 21.4664 10.0427C21.2001 9.63831 20.6689 9.43612 20.1995 9.52534C20.1571 9.53254 20.1241 9.51815 20.1018 9.49512C20.0336 9.5901 19.8728 9.62248 19.8161 9.49368C19.6805 9.17564 19.468 8.91732 19.1062 8.86047C18.8399 8.8173 18.6332 8.91948 18.4085 9.01806C18.3884 9.10728 18.28 9.18571 18.1852 9.12671C18.0819 9.06051 17.98 9.00151 17.8601 8.96913C17.7474 8.9389 17.6282 8.9389 17.5191 8.89717C17.4581 8.87414 17.4244 8.79715 17.4531 8.74175C17.3476 8.40212 17.1143 8.23878 16.7467 8.24453C16.4467 8.24813 15.9313 8.34239 15.894 8.70577C15.8846 8.79499 15.7856 8.84176 15.721 8.78636C15.7009 8.7914 15.6801 8.79355 15.6564 8.78636C15.553 8.75038 15.4726 8.68274 15.3585 8.66691C15.2515 8.65252 15.1481 8.68634 15.0412 8.68634C15.0125 8.68634 14.9895 8.67627 14.9694 8.65972C14.9658 8.65612 14.9608 8.65612 14.9551 8.65252C14.4002 8.23374 13.9164 8.65252 13.4297 8.95689C13.3873 8.98352 13.3263 8.95833 13.3069 8.91588C13.2804 8.91012 13.2509 8.89573 13.2265 8.86911C12.798 8.44025 11.8591 8.13372 11.4995 8.81946C11.4707 8.87342 11.4069 8.87846 11.3602 8.85328C11.3458 8.86047 11.3286 8.86551 11.3107 8.86767C11.1269 8.88566 10.9518 8.73383 10.7572 8.72807C10.5433 8.72088 10.3273 8.79211 10.1507 8.91012C10.094 8.94754 10.0365 8.92235 10.0078 8.8763C9.82981 8.85472 9.65466 8.81946 9.47951 8.78996C9.20818 8.7475 8.939 8.72376 8.65833 8.7914C8.15011 8.91516 7.85006 9.26558 7.66486 9.73617C7.6663 9.73761 7.66845 9.73761 7.67204 9.73977C7.7991 9.71099 7.92902 9.70595 8.05966 9.72898C8.20395 9.7556 8.17021 9.99018 8.02377 9.98442C7.64189 9.97363 7.32964 10.0931 7.08127 10.396C7.01882 10.473 6.91187 10.3751 6.95135 10.2946C7.0138 10.1672 7.10496 10.0542 7.21335 9.96571C7.20474 9.96571 7.19541 9.96427 7.18464 9.96427C7.00447 9.96787 6.82429 10.0197 6.66925 10.1125C6.40365 10.2715 6.1962 10.5788 6.12873 10.8796C6.10863 10.9724 5.95717 10.9529 5.96076 10.8565C5.3664 11.2069 5.58103 11.9028 5.72172 12.4806C5.79637 12.5036 5.85524 12.5863 5.79996 12.6662C5.56954 13.0094 5.33553 13.2706 5.38578 13.7182"></path>
<path fill="white" d="M0.722619 15.2509C0.655144 15.3833 0.626431 15.5085 0.620689 15.6337C0.630021 15.6589 0.631456 15.6855 0.620689 15.7143C0.627867 15.8718 0.667347 16.0309 0.711852 16.2007C0.74559 16.328 0.586951 16.3741 0.517323 16.2849C0.479996 16.2367 0.452719 16.1863 0.430466 16.1323C0.41611 16.2108 0.413956 16.2913 0.437644 16.3813C0.489328 16.5849 0.628585 16.7051 0.785788 16.8195C0.84106 16.8123 0.896332 16.8339 0.922891 16.8929C0.978164 17.0123 1.05497 17.1203 1.16767 17.1937C1.26027 17.2541 1.36579 17.2901 1.46556 17.3347C1.47418 17.3369 1.48351 17.3383 1.49212 17.3419C1.70101 17.4527 1.7649 17.6787 2.02546 17.7391C2.28747 17.8003 2.56096 17.6693 2.7196 17.4599C2.7196 17.4599 2.71816 17.4599 2.71816 17.4585C2.70022 17.4405 2.6916 17.4211 2.68442 17.3995C2.51502 17.4642 2.29249 17.5189 2.1317 17.4304C2.07284 17.398 2.06925 17.2994 2.1317 17.2671C2.27814 17.1958 2.45472 17.2131 2.61336 17.1706C2.81507 17.1152 2.98806 17.0239 3.14527 16.8843C3.2271 16.8109 3.34123 16.9238 3.26658 17.0037C3.17398 17.1023 3.07061 17.1879 2.95791 17.2613C3.19336 17.3844 3.4288 17.4685 3.70014 17.3757C3.9765 17.2807 4.16529 17.0361 4.27799 16.7763C4.28875 16.7533 4.30957 16.7389 4.33182 16.7339C4.47611 16.5569 4.67279 16.4691 4.76898 16.2417C4.87952 15.9791 4.82999 15.7107 4.7295 15.4552C4.70653 15.3941 4.73524 15.3516 4.77974 15.3315C4.84435 15.117 4.9513 14.9487 4.89603 14.7054C4.85655 14.5284 4.75318 14.4119 4.6369 14.2996C4.55291 14.3565 4.42083 14.3421 4.39069 14.2133C4.34116 13.9931 4.19831 13.811 4.01455 13.6909C3.8717 13.5995 3.70373 13.5441 3.53432 13.5376C3.47762 13.575 3.38286 13.552 3.34195 13.4966C3.21705 13.3304 3.17398 13.1476 2.96725 13.0497C2.75118 12.9476 2.4497 13.0066 2.25876 13.1476C2.23722 13.1742 2.20492 13.1901 2.16975 13.1901C2.03767 13.1886 1.92928 13.1296 1.79863 13.108C1.60051 13.0764 1.39665 13.103 1.22222 13.2008C0.920738 13.3728 0.754921 13.7175 0.751332 14.0557C0.751332 14.1183 0.69606 14.1579 0.642941 14.1615C0.573313 14.3277 0.448412 14.4709 0.368016 14.6356C0.355813 14.6623 0.345046 14.6896 0.334278 14.7162C0.243115 14.963 0.241679 15.2674 0.418263 15.4639C0.452001 15.3516 0.500095 15.2437 0.557521 15.153C0.62356 15.0451 0.782199 15.1386 0.725491 15.2509"></path>
<path fill="black" d="M0.31976 15.6416C-0.0642746 16.0496 0.125948 16.8713 0.660007 17.0368C0.77414 17.298 1.05337 17.5736 1.3527 17.565C1.42592 17.8384 1.81139 18.0349 2.0655 18.0536C2.42728 18.0802 2.71585 17.8881 2.8752 17.588C3.45233 17.9787 4.29649 17.6038 4.44508 16.9282C4.72144 16.8951 4.94396 16.5986 5.04159 16.3576C5.15859 16.0683 5.14854 15.7467 5.0057 15.4761C5.43998 15.0976 5.21889 14.1449 4.66258 13.9931C4.6554 13.973 4.64679 13.9542 4.63889 13.9348C4.75159 13.6441 4.78174 13.3282 4.9131 13.0368C5.03082 12.7742 5.18802 12.5403 5.3524 12.3065C5.39117 12.3986 5.43782 12.4871 5.49238 12.5705C4.74513 13.1088 5.02005 14.4205 5.81755 14.7781C5.62087 15.1494 5.8599 15.6466 6.17862 15.869C6.54327 16.1244 7.01416 16.1036 7.35225 15.8344C7.5475 15.974 7.84253 15.982 8.07079 15.9546C8.35505 15.9208 8.58403 15.8035 8.78287 15.615C9.18557 15.8215 9.82012 15.6359 10.1575 15.3293C10.4087 15.5164 10.8086 15.5171 11.0935 15.4329C11.4036 15.3401 11.6262 15.125 11.7855 14.8559C12.428 15.3092 13.3439 15.3286 13.8988 14.7515C14.2799 15.0566 14.8327 15.1113 15.198 14.7904C15.7601 15.4934 16.9151 15.343 17.3127 14.5385C17.4391 14.5925 17.5826 14.617 17.7025 14.6206C17.8167 14.6242 17.9236 14.6054 18.0241 14.5709C18.2761 14.9767 18.734 15.0746 19.1353 14.8508C19.7842 15.4682 20.7224 15.2926 21.1244 14.6069C21.372 14.7069 21.7001 14.5184 21.8644 14.3392C22.0338 14.1557 22.1559 13.8657 22.0791 13.6182C22.0798 13.6175 22.0805 13.6168 22.0819 13.6168C22.7086 13.0534 22.5636 11.6869 21.8831 11.1904C22.1121 10.768 21.9757 10.1658 21.6965 9.80168C21.4345 9.45917 21.0626 9.28288 20.6642 9.26129C20.2867 7.17962 19.4425 4.89574 18.0298 3.3012C15.4844 0.430167 11.1122 -0.0987074 7.91215 1.97218C4.3374 4.28484 3.53057 8.80869 2.98359 12.713C2.67996 12.6245 2.40144 12.7123 2.1904 12.9224C1.89466 12.6598 1.32256 12.7562 1.01964 12.9497C0.673646 13.1714 0.512136 13.5463 0.525774 13.9384C0.52075 13.9406 0.515725 13.942 0.511418 13.9449C-0.0111558 14.2802 -0.227938 15.2588 0.31976 15.6416ZM5.80032 12.6684C5.85488 12.5871 5.79745 12.5051 5.72065 12.4828C5.58067 11.9042 5.36676 11.2099 5.9604 10.8587C5.95609 10.9551 6.10755 10.9738 6.12837 10.881C6.19584 10.5824 6.40258 10.2737 6.66817 10.1147C6.82394 10.0219 7.00411 9.97078 7.185 9.96646C7.19433 9.96646 7.20366 9.96646 7.213 9.96718C7.10461 10.0578 7.01344 10.1694 6.95099 10.2975C6.91223 10.3773 7.01775 10.4745 7.08092 10.3982C7.32785 10.0967 7.64153 9.97509 8.02342 9.98805C8.16913 9.99308 8.20359 9.75779 8.05859 9.73188C7.92938 9.70886 7.7973 9.7139 7.67097 9.74196C7.66953 9.74052 7.66666 9.73908 7.66522 9.73764C7.85042 9.26777 8.15047 8.91735 8.65869 8.79358C9.11953 8.68133 9.55453 8.82092 10.0075 8.87849C10.0369 8.92382 10.0922 8.94901 10.1503 8.91087C10.3269 8.7943 10.5437 8.72163 10.7569 8.7281C10.9521 8.73458 11.1258 8.88568 11.3096 8.86841C11.3275 8.86698 11.3448 8.86122 11.3606 8.85402C11.4065 8.87921 11.4704 8.87273 11.4984 8.81949C11.8602 8.13591 12.7976 8.44172 13.2255 8.87129C13.2513 8.8972 13.2793 8.91087 13.3073 8.91663C13.3274 8.9598 13.387 8.98642 13.43 8.95908C13.916 8.65399 14.4005 8.23592 14.9554 8.65471C14.9597 8.65831 14.9647 8.65902 14.9698 8.6619C14.9884 8.67773 15.0121 8.68853 15.0408 8.68853C15.1478 8.68925 15.2512 8.65471 15.3595 8.6691C15.4722 8.68493 15.5526 8.75401 15.6574 8.78854C15.6797 8.79574 15.7012 8.7943 15.722 8.78926C15.7859 8.84395 15.8857 8.7979 15.8943 8.70867C15.9309 8.34602 16.4485 8.25104 16.7464 8.24672C17.1153 8.24096 17.3479 8.4043 17.4527 8.74465C17.424 8.79934 17.4585 8.87561 17.5195 8.89936C17.6279 8.94109 17.7485 8.94037 17.8597 8.97059C17.9803 9.00297 18.0801 9.06198 18.1849 9.12746C18.2796 9.18718 18.3873 9.10875 18.4081 9.0188C18.6335 8.92094 18.8395 8.81877 19.1051 8.86122C19.4669 8.9195 19.6787 9.17639 19.8158 9.49443C19.8718 9.62395 20.0326 9.59157 20.0993 9.49587C20.1237 9.5189 20.156 9.53401 20.1984 9.52609C20.6671 9.43687 21.2005 9.63834 21.4653 10.0435C21.7216 10.4356 21.6233 10.7997 21.5895 11.2264C21.5859 11.2739 21.6161 11.312 21.6563 11.3329C21.8192 11.6294 22.0181 11.8877 22.0834 12.2331C22.1724 12.7051 21.9822 13.0577 21.8831 13.5002C21.881 13.5103 21.8817 13.5196 21.8817 13.529C21.8709 13.5405 21.8616 13.5527 21.8565 13.5686C21.7884 13.7715 21.7805 13.9715 21.6189 14.1334C21.5091 14.2428 21.3792 14.2694 21.2514 14.3097C21.278 14.2219 21.2974 14.1291 21.3081 14.0305C21.3196 13.924 21.143 13.9024 21.1229 14.0053C20.9435 14.912 19.8868 15.2185 19.2745 14.5263C19.23 14.4759 19.1324 14.4608 19.0771 14.5011C18.8453 14.6673 18.505 14.6198 18.2904 14.432C18.3292 14.4047 18.3679 14.3759 18.4053 14.3435C18.4699 14.2874 18.3852 14.1838 18.3155 14.227C18.2552 14.2644 18.1906 14.2917 18.1239 14.3119C18.1045 14.3119 18.0851 14.3176 18.0672 14.3277C17.9437 14.3565 17.8138 14.3594 17.6874 14.3414C17.5783 14.3255 17.4879 14.2809 17.3982 14.2356C17.3766 14.1787 17.3077 14.1442 17.2546 14.1651C17.2259 14.1521 17.1965 14.1399 17.1656 14.1298C17.0622 14.0967 16.9912 14.2162 17.0335 14.3018C17.0515 14.3378 17.0759 14.3687 17.1031 14.3975C16.6689 15.0703 15.7831 15.076 15.3064 14.368C15.1916 14.196 14.9468 14.3435 15.0322 14.5285C15.0401 14.545 15.0502 14.5594 15.0588 14.5752C14.73 14.7429 14.3733 14.7637 14.0732 14.481C14.0675 14.4752 14.061 14.4716 14.0553 14.4666C14.028 14.4112 13.9576 14.3737 13.8995 14.4148C13.3051 14.835 12.6383 14.9962 12.0152 14.5954C12.1258 14.5321 12.2284 14.4601 12.3153 14.3853C12.3964 14.3147 12.288 14.1759 12.2011 14.2363C12.031 14.3543 11.8494 14.4313 11.647 14.4752C11.4431 14.5191 11.2515 14.4853 11.0483 14.4982C10.9026 14.5069 10.8918 14.6875 11.0153 14.7386C11.1955 14.8127 11.3929 14.8127 11.5867 14.7673C11.4381 14.9444 11.2335 15.0703 11.0081 15.1278C10.7102 15.2041 10.4956 15.0832 10.2156 15.0372C10.1848 15.0206 10.146 15.0178 10.1051 15.0422C9.90554 15.1588 9.71819 15.2739 9.48992 15.3257C9.25807 15.3782 9.04631 15.3221 8.81661 15.3408C8.80297 15.3416 8.79005 15.3459 8.77856 15.3502H8.77713C8.77282 15.3516 8.76851 15.3538 8.76493 15.3559C8.75703 15.3588 8.74913 15.361 8.74195 15.366C8.53809 15.5121 8.27968 15.6049 8.02988 15.6258C7.79443 15.6452 7.58555 15.5258 7.36159 15.5394C7.30775 15.543 7.25248 15.5848 7.23381 15.6366C6.94238 15.7639 6.57342 15.7697 6.32433 15.5517C6.15421 15.4027 6.09966 15.2207 6.06017 15.0242C6.13698 15.0919 6.22312 15.1444 6.31644 15.1746C6.39899 15.2012 6.46287 15.0883 6.40042 15.03C6.28342 14.9199 6.15636 14.8335 6.06448 14.699C5.97404 14.5666 5.91876 14.4169 5.86995 14.2651C5.84268 14.1809 5.7149 14.1953 5.71419 14.286C5.71419 14.3263 5.71777 14.368 5.72423 14.4097C5.54693 14.2183 5.41629 13.9917 5.38614 13.719C5.33589 13.2721 5.57062 13.0102 5.80104 12.667M4.38622 13.5743C4.17231 13.3743 3.88087 13.2656 3.5758 13.303C3.54708 13.1469 3.44659 13.0044 3.32025 12.8951C3.33317 12.8756 3.3425 12.8512 3.34681 12.8217C3.68275 10.5853 3.995 8.30356 4.92243 6.21973C5.66968 4.54028 6.80671 3.02273 8.40889 2.08299C10.0225 1.13821 11.9707 0.801459 13.8012 1.20729C15.6273 1.6124 17.2675 2.70469 18.3356 4.24382C19.403 5.78151 19.7792 7.55091 20.4295 9.26561C20.334 9.27497 20.2379 9.2908 20.1417 9.31742C20.1302 9.3203 20.1216 9.32677 20.1122 9.33181C19.983 8.93102 19.637 8.61297 19.2229 8.5295C18.8948 8.46258 18.4598 8.53742 18.2351 8.80725C18.0909 8.72163 17.9143 8.65471 17.747 8.65039C17.719 8.1208 17.1067 7.87974 16.6416 7.93299C16.3774 7.96321 15.7551 8.12655 15.6452 8.44604C15.4909 8.36401 15.2813 8.33954 15.1191 8.39423C14.819 7.83225 13.8421 8.187 13.4458 8.63888C13.1092 8.27406 12.616 8.07043 12.1186 8.11576C11.8027 8.14454 11.4553 8.29205 11.3448 8.59067C11.207 8.44891 10.9327 8.4115 10.7562 8.41078C10.5114 8.41078 10.2924 8.48849 10.1137 8.64176C9.26884 8.19491 7.44772 8.41222 7.46423 9.6441C7.2496 9.58581 6.99334 9.62611 6.77441 9.70814C6.83973 8.09705 7.19864 6.62843 7.74777 5.10801C7.78797 4.99504 7.6121 4.92524 7.55683 5.02742C7.20366 5.68509 6.93879 6.40249 6.75503 7.14364C6.57701 6.57591 6.39253 6.0276 6.30926 5.42389C6.29131 5.29294 6.06376 5.32532 6.07956 5.45484C6.17072 6.18735 6.28844 6.9731 6.62151 7.63941C6.62654 7.64877 6.63371 7.65524 6.63946 7.66244C6.49589 8.40142 6.43057 9.15552 6.43775 9.88947C6.23389 10.0442 6.10396 10.2392 6.03146 10.4651C6.00706 10.4608 5.9805 10.4622 5.95322 10.473C5.29498 10.7364 5.10763 11.4552 5.27703 12.0856C4.87433 12.4007 4.46805 13.0109 4.3855 13.5765M0.332681 14.7177C0.406616 14.5162 0.560948 14.3558 0.640626 14.1629C0.69518 14.1586 0.750452 14.1205 0.75117 14.0579C0.754042 13.719 0.919858 13.3736 1.22134 13.203C1.39721 13.1037 1.60035 13.0757 1.79704 13.1095C1.92768 13.1311 2.03679 13.1894 2.16958 13.1915C2.20476 13.1915 2.23634 13.1742 2.25859 13.1491C2.4481 13.0073 2.75102 12.9483 2.96637 13.0512C3.17382 13.1491 3.21689 13.3311 3.34107 13.4973C3.3827 13.5527 3.47602 13.5758 3.53273 13.5391C3.92681 13.5549 4.30008 13.8247 4.39052 14.2162C4.41995 14.3435 4.55203 14.3572 4.63674 14.3004C4.75159 14.4148 4.85567 14.5299 4.89587 14.7069C4.95114 14.9508 4.84347 15.1185 4.77886 15.3322C4.73508 15.3531 4.70565 15.3962 4.72933 15.4552C4.82911 15.7114 4.87936 15.9812 4.7681 16.2432C4.67191 16.4713 4.47594 16.5583 4.33166 16.7346C4.30941 16.7404 4.28931 16.7548 4.27854 16.7785C4.16656 17.0375 3.97562 17.2829 3.69998 17.3772C3.42864 17.47 3.19248 17.3851 2.95775 17.2621C3.06973 17.1894 3.17453 17.103 3.2657 17.0059C3.34179 16.9253 3.22694 16.8116 3.1451 16.8843C2.98862 17.0239 2.81491 17.1145 2.61392 17.1707C2.45528 17.2146 2.27798 17.1951 2.13226 17.2685C2.06909 17.3002 2.0734 17.3973 2.13226 17.4304C2.29305 17.5204 2.51557 17.4635 2.6857 17.4009C2.69216 17.4211 2.70149 17.4412 2.71944 17.4592C2.72015 17.4599 2.72087 17.4606 2.72231 17.4621C2.56295 17.6708 2.29018 17.801 2.02746 17.7398C1.7676 17.6794 1.70228 17.4542 1.4934 17.3434C1.4855 17.339 1.47689 17.3383 1.46756 17.3362C1.36634 17.2916 1.26154 17.2549 1.16894 17.1944C1.05696 17.1203 0.980155 17.0138 0.924165 16.8929C0.896888 16.8339 0.841616 16.8145 0.787061 16.8202C0.630576 16.7066 0.490601 16.5864 0.438918 16.382C0.416666 16.2928 0.416666 16.2115 0.43174 16.1345C0.453992 16.1878 0.481987 16.2381 0.518596 16.2849C0.588943 16.3763 0.746863 16.3281 0.713844 16.2021C0.669339 16.0309 0.629141 15.8733 0.62268 15.7157C0.63273 15.6862 0.632012 15.6589 0.62268 15.6344C0.627705 15.5092 0.6557 15.384 0.723893 15.2509C0.780601 15.1394 0.62268 15.0458 0.555923 15.1523C0.498497 15.2451 0.451121 15.3509 0.418101 15.4646C0.241517 15.2674 0.242953 14.9638 0.333398 14.717"></path>
<path fill="#C2DDEA" d="M10.9865 15.1098C10.9743 15.1206 10.9614 15.1328 10.9492 15.1415C10.9672 15.1379 10.9865 15.1343 11.0066 15.1292C11.0188 15.1256 11.0311 15.122 11.044 15.1192L10.9873 15.1098H10.9865Z"></path>
<path fill="#C2DDEA" d="M5.7998 12.6684C5.56938 13.0116 5.33609 13.2728 5.38562 13.7204C5.41648 13.9938 5.54641 14.2198 5.72299 14.4104C5.71582 14.3694 5.71223 14.3284 5.71223 14.2874C5.71366 14.196 5.84072 14.1816 5.86943 14.2658C5.91752 14.4184 5.9728 14.568 6.06396 14.7011C6.15512 14.835 6.28361 14.9228 6.3999 15.0321C6.46235 15.0911 6.39846 15.2041 6.31591 15.1768C6.22331 15.1458 6.13574 15.094 6.05893 15.0264C6.09985 15.2228 6.15369 15.4056 6.32309 15.5538C6.57289 15.7726 6.94185 15.7668 7.23329 15.638C7.25339 15.5876 7.30866 15.5452 7.36178 15.5409C7.58502 15.5265 7.79391 15.6466 8.03079 15.6287C8.28059 15.6071 8.53757 15.5142 8.74071 15.3675C8.75004 15.3624 8.75651 15.3603 8.76368 15.3588C8.76871 15.3552 8.77302 15.3531 8.77589 15.3516H8.77732C8.78953 15.348 8.80245 15.3423 8.8168 15.3423C9.04507 15.3228 9.25754 15.3797 9.4894 15.3264C9.64301 15.2905 9.77868 15.2286 9.91076 15.1545C9.7916 15.0991 9.67747 15.0293 9.57697 14.9544C9.19509 14.6666 8.84695 14.2154 8.95606 13.7506C9.01636 13.493 9.21089 13.2462 9.13049 12.9958C9.08742 12.8634 8.97688 12.7684 8.87925 12.6698C8.36745 12.1532 8.14779 11.3768 8.26336 10.658C8.38109 9.93911 8.81824 9.28791 9.41044 8.86553C9.437 8.84539 9.46787 8.82308 9.47792 8.79214C9.2073 8.74969 8.9374 8.72594 8.65745 8.79358C8.14851 8.91734 7.84918 9.26777 7.66326 9.73836C7.6647 9.7398 7.66685 9.7398 7.67044 9.74196C7.79678 9.71317 7.92742 9.70814 8.05735 9.73116C8.20163 9.75779 8.16789 9.99236 8.02146 9.9866C7.63958 9.97581 7.32804 10.0953 7.07968 10.3982C7.01722 10.4752 6.91027 10.3773 6.94975 10.2967C7.0122 10.1694 7.10265 10.0564 7.21175 9.9679C7.20242 9.9679 7.19381 9.96646 7.18304 9.96646C7.00287 9.97005 6.8227 10.0219 6.66693 10.1147C6.40133 10.2737 6.19388 10.581 6.12641 10.8817C6.10703 10.9746 5.95485 10.9551 5.95844 10.8587C5.36408 11.2091 5.57871 11.9049 5.7194 12.4827C5.79478 12.5058 5.85292 12.5885 5.79765 12.6684"></path>
<path fill="#C91E42" d="M4.38365 13.575C4.46764 13.0101 4.87249 12.4 5.2759 12.0855C5.1065 11.4545 5.29385 10.7349 5.95209 10.4723C5.97865 10.4615 6.00593 10.46 6.03033 10.4651C6.10355 10.2398 6.23204 10.0427 6.43734 9.88942C6.428 9.15619 6.49404 8.40137 6.63904 7.66239C6.63187 7.65519 6.62469 7.65016 6.6211 7.63936C6.28731 6.97377 6.16959 6.18658 6.07843 5.45551C6.06263 5.32455 6.28875 5.29217 6.30741 5.42313C6.3914 6.02755 6.57516 6.57514 6.75318 7.14359C6.93694 6.40172 7.20253 5.68432 7.5557 5.02593C7.61097 4.92375 7.7854 4.99355 7.74664 5.10652C7.19679 6.6291 6.8386 8.097 6.77256 9.70881C6.99221 9.62678 7.24919 9.58576 7.4631 9.64405C7.4509 8.77842 8.34459 8.41576 9.1708 8.42944C8.97268 8.09268 8.89444 7.73218 8.86357 7.30045C8.82625 6.732 8.8887 6.16067 8.87793 5.59222C8.8686 5.20006 8.80112 4.76257 8.48672 4.52944C8.25773 4.35962 7.95337 4.34379 7.66768 4.33659C7.30375 4.3258 6.91684 4.32724 6.60818 4.52224C6.283 4.72587 6.11575 5.10148 5.9887 5.4627C5.79489 6.01388 5.65348 6.58089 5.51063 7.14718C4.99667 9.20944 4.48271 11.2717 3.96875 13.3361C4.12236 13.3807 4.26521 13.4635 4.38293 13.5743"></path>
<path fill="#C2DDEA" d="M0.724055 15.2509C0.65658 15.3833 0.627867 15.5085 0.622124 15.6337C0.631456 15.6588 0.632892 15.6855 0.622124 15.7143C0.629303 15.8718 0.668783 16.0309 0.713288 16.2007C0.747025 16.328 0.588387 16.3741 0.518758 16.2849C0.481432 16.2367 0.454154 16.1863 0.431902 16.1323C0.417546 16.2107 0.415392 16.2913 0.43908 16.3813C0.490763 16.5849 0.630021 16.7051 0.787223 16.8195C0.842496 16.8123 0.897768 16.8339 0.924327 16.8929C0.979599 17.0123 1.05641 17.1203 1.1691 17.1937C1.2617 17.2541 1.36722 17.2901 1.467 17.3347C1.47561 17.3369 1.48495 17.3383 1.49356 17.3419C1.70245 17.4527 1.76633 17.6786 2.0269 17.7391C2.2889 17.8002 2.56239 17.6693 2.72103 17.4599C2.72103 17.4599 2.7196 17.4599 2.7196 17.4585C2.70165 17.4405 2.69304 17.421 2.68586 17.3995C2.51645 17.4642 2.29393 17.5189 2.13314 17.4304C2.07428 17.398 2.07069 17.2994 2.13314 17.2671C2.27957 17.1958 2.45616 17.2131 2.6148 17.1706C2.8165 17.1152 2.9895 17.0238 3.1467 16.8843C3.22853 16.8109 3.34267 16.9238 3.26801 17.0037C3.17541 17.1023 3.07205 17.1879 2.95935 17.2613C3.1948 17.3843 3.43024 17.4685 3.70158 17.3757C3.97794 17.2807 4.16672 17.0361 4.27942 16.7763C4.29019 16.7533 4.31101 16.7389 4.33326 16.7339C4.47754 16.5569 4.67422 16.4691 4.77041 16.2417C4.88096 15.9791 4.83143 15.7107 4.73093 15.4552C4.70796 15.394 4.73667 15.3516 4.78118 15.3314C4.84578 15.117 4.95274 14.9486 4.89747 14.7054C4.85799 14.5284 4.75462 14.4119 4.63833 14.2996C4.55435 14.3564 4.42227 14.3421 4.39212 14.2133C4.34259 13.9931 4.19974 13.811 4.01598 13.6909C4.17319 14.0434 4.2945 14.4673 4.29737 14.8321C4.30096 15.2617 4.04613 15.7279 3.62621 15.8121C3.45177 15.8474 3.26012 15.8193 3.10722 15.9085C2.91269 16.0229 2.86101 16.2805 2.72319 16.4597C2.49348 16.7605 2.00608 16.7907 1.71321 16.5547C1.42106 16.3187 1.33707 15.8733 1.48495 15.5264C1.01047 15.3991 0.612075 15.0616 0.368016 14.6356C0.355813 14.6623 0.345046 14.6896 0.334278 14.7162C0.243115 14.963 0.241679 15.2674 0.418263 15.4638C0.452001 15.3516 0.500095 15.2437 0.557521 15.153C0.62356 15.0451 0.782199 15.1386 0.725491 15.2509"></path>
</g>
<defs>
<clipPath id="clip0_12174_827382">
<rect transform="translate(0 0.717957)" fill="white" height="35.2821" width="125.744"></rect>
</clipPath>
</defs>
</svg>
