<svg width="40" height="40" viewBox="0 0 40 40" fill="none" xmlns="http://www.w3.org/2000/svg">
<rect width="40" height="40" rx="12" fill="#F9F0FE"/>
<path d="M20.0201 10.9102C16.7101 10.9102 14.0201 13.6002 14.0201 16.9102V19.8002C14.0201 20.4102 13.7601 21.3402 13.4501 21.8602L12.3001 23.7702C11.5901 24.9502 12.0801 26.2602 13.3801 26.7002C17.6901 28.1402 22.3401 28.1402 26.6501 26.7002C27.8601 26.3002 28.3901 24.8702 27.7301 23.7702L26.5801 21.8602C26.2801 21.3402 26.0201 20.4102 26.0201 19.8002V16.9102C26.0201 13.6102 23.3201 10.9102 20.0201 10.9102Z" stroke="#690571" stroke-width="1.5" stroke-miterlimit="10" stroke-linecap="round"/>
<path d="M21.8699 11.1995C21.5599 11.1095 21.2399 11.0395 20.9099 10.9995C19.9499 10.8795 19.0299 10.9495 18.1699 11.1995C18.4599 10.4595 19.1799 9.93945 20.0199 9.93945C20.8599 9.93945 21.5799 10.4595 21.8699 11.1995Z" stroke="#690571" stroke-width="1.5" stroke-miterlimit="10" stroke-linecap="round" stroke-linejoin="round"/>
<path d="M23.02 27.0605C23.02 28.7105 21.67 30.0605 20.02 30.0605C19.2 30.0605 18.44 29.7205 17.9 29.1805C17.36 28.6405 17.02 27.8805 17.02 27.0605" stroke="#690571" stroke-width="1.5" stroke-miterlimit="10"/>
</svg>
