<svg width="80" height="80" viewBox="0 0 80 80" fill="none" xmlns="http://www.w3.org/2000/svg">
<path d="M75.9996 40.0462C75.9996 58.2457 61.1526 73.0927 42.9531 73.0927C25.1526 73.0927 10.6249 59.0441 9.90647 41.4031L8.31015 42.9995C7.27229 44.0373 5.75611 44.0373 4.71828 43.0796C3.76057 42.1219 3.76057 40.525 4.71828 39.5673L10.5452 33.7404C11.5029 32.7827 13.0998 32.7827 14.0575 33.7404L19.8844 39.5673C20.8421 40.525 20.8421 42.1219 19.8844 43.0796C19.4056 43.5585 18.767 43.7979 18.1283 43.7979C17.4897 43.7979 16.8511 43.5585 16.3722 43.0796L14.7759 41.4833C15.5744 56.3303 27.8669 68.1441 42.8735 68.1441C58.3591 68.1441 70.9711 55.5321 70.9711 40.0465C70.9711 24.5609 58.3591 11.9489 42.8735 11.9489C35.2103 11.9489 28.1063 14.9823 22.7582 20.41C21.8005 21.3677 20.2036 21.4479 19.2459 20.4896C18.2882 19.5319 18.208 17.935 19.1662 16.9773C25.5522 10.5123 33.9334 7 42.9534 7C61.153 7 75.9996 21.8466 75.9996 40.0462Z" fill="#323740"/>
<path fill-rule="evenodd" clip-rule="evenodd" d="M53.8885 35.3371V31.1065C53.8885 25.0397 49.0195 20.0908 42.9527 20.0908C36.8859 20.0908 31.937 25.0401 31.937 31.1065V35.3371H29.4626C28.1058 35.3371 26.9883 36.4545 26.9883 37.8115V55.133C26.9883 56.4899 28.1057 57.6073 29.4626 57.6073H56.3629C57.7198 57.6073 58.8372 56.4899 58.8372 55.133V37.8115C58.8372 36.4546 57.7198 35.3371 56.3629 35.3371H53.8885ZM36.8863 35.3371H48.9394V31.1065C48.9394 27.7539 46.2255 25.0401 42.873 25.0401C39.5204 25.0401 36.8066 27.7539 36.8066 31.1065V35.3371H36.8863ZM31.9373 40.286H53.8885V52.6586H31.9373V40.286Z" fill="#DD3636"/>
</svg>
