<svg width="150" height="39" viewBox="0 0 150 39" fill="none" xmlns="http://www.w3.org/2000/svg">
<path d="M130.859 9.10953L127.658 29.1722C127.646 29.2459 127.65 29.3213 127.671 29.3931C127.691 29.465 127.727 29.5315 127.776 29.5881C127.825 29.6447 127.885 29.6899 127.953 29.7206C128.022 29.7514 128.096 29.7668 128.17 29.766H131.959C132.092 29.7671 132.222 29.7205 132.324 29.6345C132.426 29.5485 132.494 29.4288 132.516 29.2972L135.717 9.23449C135.729 9.16082 135.724 9.08542 135.704 9.01359C135.684 8.94175 135.648 8.87522 135.599 8.81865C135.55 8.76207 135.49 8.71684 135.422 8.6861C135.353 8.65537 135.279 8.63988 135.204 8.64073H131.416C131.282 8.63809 131.152 8.6842 131.049 8.77047C130.947 8.85673 130.879 8.97725 130.859 9.10953ZM126.814 14.9643H123.22C123.086 14.963 122.957 15.0095 122.855 15.0954C122.752 15.1813 122.685 15.3008 122.664 15.4323L122.545 16.1709C122.545 16.1709 119.753 13.1512 114.81 15.1919C111.974 16.3603 110.613 18.7744 110.034 20.5429C110.034 20.5429 108.196 25.9177 112.353 28.8762C112.353 28.8762 116.209 31.7216 120.55 28.7011L120.475 29.1722C120.458 29.2829 120.477 29.3962 120.53 29.4949C120.584 29.5935 120.668 29.6719 120.77 29.7182C120.838 29.7501 120.912 29.766 120.987 29.766H124.584C124.718 29.7686 124.848 29.7225 124.951 29.6363C125.053 29.55 125.121 29.4295 125.141 29.2972L127.329 15.5581C127.341 15.4845 127.337 15.4091 127.316 15.3374C127.295 15.2656 127.259 15.1994 127.21 15.1434C127.161 15.0863 127.1 15.0406 127.032 15.0095C126.964 14.9785 126.889 14.9635 126.814 14.9643ZM121.525 22.5574C121.385 23.5173 120.898 24.3932 120.157 25.0207C119.412 25.6506 118.464 25.9906 117.488 25.9782C117.105 25.9827 116.724 25.9273 116.358 25.8143C114.806 25.3208 113.92 23.8452 114.175 22.2454C114.316 21.2859 114.803 20.4107 115.545 19.7836C116.289 19.1534 117.236 18.8123 118.212 18.8229C118.595 18.819 118.976 18.8748 119.342 18.9885C120.903 19.4788 121.785 20.9568 121.529 22.5582H121.525V22.5574ZM102.331 22.937C104.281 22.937 106.166 22.2462 107.647 20.9902C109.125 19.7385 110.103 17.9993 110.404 16.0889C111.034 12.1149 107.899 8.6463 103.455 8.6463H96.2954C96.1618 8.64503 96.0321 8.69165 95.9301 8.77769C95.828 8.86373 95.7603 8.98346 95.7393 9.1151L92.5374 29.1778C92.5201 29.2885 92.5395 29.4018 92.5928 29.5004C92.6462 29.599 92.7304 29.6775 92.8326 29.7238C92.9013 29.7557 92.9747 29.7716 93.0497 29.7716H96.8404C96.974 29.7728 97.1036 29.7262 97.2057 29.6402C97.3077 29.5541 97.3755 29.4344 97.3965 29.3028L98.3364 23.4114C98.3561 23.279 98.4236 23.1583 98.5261 23.0718C98.6286 22.9854 98.7591 22.9392 98.8933 22.9418L102.331 22.937ZM105.502 15.9083C105.268 17.3775 104.121 18.4592 101.926 18.4592H99.1199L99.972 13.1162H102.728C104.997 13.1202 105.736 14.4454 105.502 15.9122V15.9083Z" fill="#0070E0"/>
<path d="M88.2182 15.3063L83.8826 22.5532L81.6821 15.3597C81.6476 15.2449 81.5767 15.1443 81.48 15.0733C81.3833 15.0022 81.266 14.9644 81.1459 14.9657H77.2331C77.1319 14.9643 77.0336 14.9995 76.9563 15.0647C76.8791 15.1299 76.828 15.2208 76.8127 15.3206C76.8031 15.3868 76.81 15.4543 76.8326 15.5172L80.7757 27.6343L77.2092 33.3442C77.1789 33.3912 77.1586 33.4439 77.1494 33.499C77.1403 33.5541 77.1425 33.6106 77.1559 33.6648C77.1694 33.719 77.1937 33.77 77.2276 33.8145C77.2615 33.859 77.3041 33.8961 77.3528 33.9236C77.4181 33.961 77.4922 33.9803 77.5674 33.9794H81.7818C81.9021 33.9798 82.0204 33.9492 82.1254 33.8907C82.2304 33.8321 82.3184 33.7475 82.381 33.6451L93.3948 15.604C93.4347 15.5412 93.4567 15.4687 93.4582 15.3943C93.4598 15.3199 93.4409 15.2466 93.4036 15.1822C93.3664 15.1175 93.3125 15.064 93.2475 15.0272C93.1826 14.9904 93.1089 14.9716 93.0342 14.9728H88.8214C88.7006 14.9717 88.5815 15.0019 88.4758 15.0603C88.3701 15.1187 88.2814 15.2035 88.2182 15.3063ZM75.015 14.9657H71.4174C71.2836 14.9644 71.1538 15.0111 71.0516 15.0973C70.9493 15.1835 70.8815 15.3034 70.8605 15.4353L70.744 16.1731C70.744 16.1731 67.9499 13.1534 63.0071 15.1941C60.1722 16.3625 58.8103 18.7765 58.2334 20.5451C58.2334 20.5451 56.3935 25.9199 60.5504 28.8783C60.5504 28.8783 64.4065 31.7237 68.7478 28.7032L68.6728 29.1744C68.6551 29.2851 68.6745 29.3985 68.7278 29.4972C68.7811 29.5959 68.8655 29.6743 68.968 29.7204C69.0358 29.7522 69.11 29.7682 69.185 29.7682H72.7818C72.9153 29.7691 73.0448 29.7224 73.1468 29.6364C73.2488 29.5504 73.3166 29.4309 73.3379 29.2994L75.5265 15.5602C75.5443 15.4494 75.5251 15.3358 75.4717 15.2369C75.4184 15.1381 75.3339 15.0596 75.2313 15.0134C75.1632 14.9822 75.09 14.9659 75.015 14.9657ZM69.7252 22.5603C69.5836 23.5191 69.0969 24.3936 68.356 25.0205C67.6117 25.6503 66.6646 25.9911 65.6887 25.9804C65.3064 25.9846 64.9257 25.9293 64.5605 25.8164C63.0095 25.323 62.1246 23.8473 62.3791 22.2467C62.5209 21.2852 63.0098 20.4083 63.7539 19.781C64.5008 19.1509 65.451 18.8114 66.4291 18.8251C66.8121 18.8211 67.1943 18.8768 67.5597 18.9906C69.1052 19.4809 69.9853 20.9581 69.7299 22.5603H69.7252ZM50.5323 22.9392C52.4782 22.9382 54.3605 22.2473 55.843 20.99C57.3194 19.7383 58.2967 17.9997 58.5972 16.0903C59.2276 12.1171 56.0919 8.64847 51.6494 8.64847H44.4893C44.3557 8.64713 44.226 8.69361 44.1238 8.77948C44.0216 8.86535 43.9537 8.98491 43.9323 9.11647L40.7408 29.1736C40.723 29.2844 40.7423 29.3981 40.7956 29.4969C40.849 29.5957 40.9335 29.6743 41.0361 29.7204C41.1039 29.7514 41.1781 29.7682 41.2531 29.7682H45.0414C45.1752 29.7694 45.3051 29.7227 45.4073 29.6365C45.5095 29.5504 45.5773 29.4304 45.5983 29.2986L46.5366 23.4072C46.5565 23.2749 46.624 23.1544 46.7265 23.0681C46.829 22.9819 46.9594 22.9357 47.0935 22.9384L50.5323 22.9392ZM53.7031 15.9096C53.4693 17.3789 52.3228 18.4605 50.1278 18.4605H47.3217L48.1722 13.1175H50.9281C53.198 13.1215 53.9361 14.4475 53.7031 15.9136V15.9096Z" fill="#003087"/>
<path d="M26.0417 9.67826C26.127 5.24818 22.464 1.84961 17.427 1.84961H7.00843C6.76564 1.8495 6.53079 1.93587 6.34618 2.09318C6.16158 2.25048 6.03935 2.46837 6.00151 2.70761L1.82704 28.7286C1.80837 28.8465 1.81553 28.967 1.84804 29.0819C1.88054 29.1968 1.93763 29.3033 2.01535 29.3941C2.09308 29.4849 2.1896 29.5578 2.29827 29.6077C2.40695 29.6577 2.52519 29.6836 2.64486 29.6837H8.8172L7.85258 35.7088C7.8339 35.8267 7.84106 35.9472 7.87357 36.0621C7.90608 36.177 7.96316 36.2835 8.04088 36.3743C8.11861 36.4651 8.21513 36.538 8.3238 36.5879C8.43248 36.6379 8.55072 36.6638 8.67039 36.6639H13.6986C13.9411 36.6639 14.1574 36.5771 14.3425 36.4203C14.526 36.2627 14.5563 36.0454 14.5946 35.8059L16.0707 27.1431C16.1082 26.9043 16.2302 26.5939 16.4145 26.4363C16.5989 26.2787 16.76 26.1928 17.0034 26.1928H20.08C25.0132 26.1928 29.1981 22.6947 29.9632 17.8301C30.505 14.3774 29.0209 11.2359 26.0417 9.67826Z" fill="#001C64"/>
<path d="M10.1531 20.0876L8.61559 29.8121L7.65016 35.912C7.6316 36.0299 7.63888 36.1505 7.67149 36.2653C7.7041 36.3802 7.76127 36.4866 7.83907 36.5773C7.91687 36.668 8.01345 36.7408 8.12216 36.7907C8.23086 36.8406 8.34912 36.8664 8.46878 36.8663H13.7906C14.0331 36.8662 14.2677 36.7797 14.452 36.6224C14.6363 36.4651 14.7583 36.2473 14.7959 36.0083L16.1986 27.1426C16.2364 26.9035 16.3585 26.6857 16.5429 26.5284C16.7274 26.3711 16.962 26.2846 17.2047 26.2846H20.3371C25.2704 26.2846 29.4552 22.695 30.2212 17.8303C30.7637 14.3776 29.0212 11.2353 26.0419 9.67773C26.0339 10.0454 26.002 10.4124 25.9454 10.7761C25.1802 15.6392 20.9938 19.2296 16.0621 19.2296H11.1592C10.9165 19.2298 10.6818 19.3164 10.4974 19.4739C10.313 19.6313 10.1909 19.8484 10.1531 20.0876Z" fill="#0070E0"/>
<path d="M8.6145 29.8119H2.42301C2.30336 29.8119 2.18514 29.786 2.0765 29.736C1.96786 29.686 1.87137 29.6131 1.79371 29.5223C1.71604 29.4315 1.65904 29.325 1.62663 29.2101C1.59423 29.0952 1.58718 28.9746 1.60599 28.8568L5.78046 2.4498C5.81827 2.2107 5.94038 1.99291 6.12482 1.83562C6.30926 1.67833 6.54392 1.59187 6.78657 1.5918H17.427C22.464 1.5918 26.127 5.24825 26.0416 9.67753C24.7882 9.0217 23.3153 8.64682 21.702 8.64682H12.8313C12.5885 8.6467 12.3536 8.73308 12.169 8.89038C11.9844 9.04769 11.8622 9.26558 11.8243 9.50482L10.1536 20.0873L8.6137 29.8119H8.6145Z" fill="#003087"/>
</svg>
