<svg width="64" height="28" viewBox="0 0 64 28" fill="none" xmlns="http://www.w3.org/2000/svg">
<path d="M58.8248 26.8875V21.5581H59.7425V24.2379L62.2271 21.5581H63.3538L61.1825 23.8498L63.4506 26.8875H62.3389L60.5556 24.4892L59.7421 25.3418V26.8875H58.8248ZM1.55115 26.8875H0.636719V21.0781H2.85282C4.16791 21.0781 4.98675 21.8396 4.98675 22.9887V23.0054C4.98675 24.2838 3.98447 24.9578 2.73811 24.9578H1.55115V26.8875ZM1.55115 21.9209V24.1236H2.77065C3.55247 24.1236 4.05565 23.6737 4.05565 23.0306V23.0139C4.05565 22.2935 3.54149 21.9209 2.77065 21.9209H1.55115ZM5.91866 26.8875V21.5581H8.24663C8.90356 21.5581 9.41813 21.7562 9.75413 22.091C10.0303 22.3802 10.1869 22.7764 10.1869 23.2405C10.1869 24.1313 9.67196 24.6564 8.94099 24.8696L10.3513 26.8871H9.26925L7.98588 25.0294H6.83675V26.8871L5.91866 26.8875ZM6.83675 24.2H8.17991C8.83645 24.2 9.2542 23.8498 9.2542 23.3092C9.2542 22.7231 8.85109 22.4107 8.17219 22.4107H6.83675V24.2ZM13.7299 26.9791C12.1256 26.9791 11.0066 25.738 11.0066 24.2383C11.0066 22.7235 12.1407 21.467 13.745 21.467C15.3493 21.467 16.4683 22.708 16.4683 24.2078C16.4683 25.7226 15.3342 26.9791 13.7299 26.9791ZM13.745 26.1187C14.7822 26.1187 15.5059 25.2735 15.5059 24.2379C15.5059 23.1872 14.7672 22.3269 13.7299 22.3269C12.6927 22.3269 11.969 23.1717 11.969 24.2074C11.9694 25.258 12.7081 26.1187 13.745 26.1187ZM19.2283 26.9258L17.0569 21.5581H18.0718L19.646 25.6542L21.2129 21.5581H22.2054L20.0341 26.9258H19.2283ZM23.0788 26.8875V21.5581H23.9965V26.8875H23.0788ZM25.3169 26.8875V21.5581H27.2641C28.9054 21.5581 30.0399 22.7076 30.0399 24.2074C30.0399 25.7226 28.9058 26.8875 27.2641 26.8875H25.3169ZM26.2345 26.035H27.2641C28.3607 26.035 29.0771 25.2812 29.0771 24.2383C29.0771 23.1799 28.3607 22.4111 27.2641 22.4111H26.2345V26.035ZM33.2184 26.9713C31.8606 26.9713 30.995 26.172 30.995 24.6263V21.5581H31.9127V24.5881C31.9127 25.5778 32.4126 26.1106 33.2335 26.1106C34.047 26.1106 34.5465 25.6083 34.5465 24.6259V21.5577H35.4642V24.5804C35.4642 26.172 34.5835 26.9713 33.2184 26.9713ZM38.478 26.9636C37.6795 26.9636 36.9262 26.6817 36.2993 26.111L36.8513 25.4411C37.3512 25.8824 37.8512 26.1338 38.5004 26.1338C39.0674 26.1338 39.4258 25.8674 39.4258 25.4639C39.4258 25.0681 39.2171 24.8623 38.2469 24.6341C37.1352 24.3599 36.5084 24.0251 36.5084 23.0428C36.5084 22.1137 37.2544 21.482 38.2917 21.482C39.0528 21.482 39.6572 21.718 40.1868 22.152L39.6947 22.8598C39.2244 22.5018 38.7546 22.3118 38.277 22.3118C37.7397 22.3118 37.4265 22.5937 37.4265 22.9435C37.4265 23.3698 37.6653 23.5529 38.6651 23.7961C39.7695 24.0703 40.3439 24.4738 40.3439 25.3569C40.3435 26.3697 39.5746 26.9636 38.478 26.9636ZM44.0728 26.8859H41.4633V21.1237H43.991C44.6386 21.1237 45.1414 21.3055 45.4579 21.6285C45.7031 21.8786 45.8296 22.1845 45.8296 22.5661V22.5827C45.8296 23.2596 45.4867 23.6066 44.9392 23.897C45.6417 24.1419 46.1494 24.4754 46.1494 25.3105V25.3272C46.1494 26.3335 45.3407 26.8859 44.0728 26.8859ZM42.3611 21.9413V23.5915H43.7856C44.4421 23.5915 44.9152 23.3251 44.9152 22.7495V22.7328C44.9152 22.235 44.5198 21.9413 43.8596 21.9413H42.3611ZM42.3611 24.3676V26.0679H44.0809C44.7794 26.0679 45.2349 25.7844 45.2349 25.2178V25.2011C45.2349 24.6666 44.8111 24.3676 44.0073 24.3676H42.3611ZM46.7392 26.8875L49.0375 21.5199H49.888L52.1863 26.8875H51.2165L50.6869 25.6009H48.217L47.68 26.8875H46.7392ZM48.5526 24.7711H50.3509L49.4479 22.6393L48.5526 24.7711ZM53.0055 26.8875V21.5581H53.8561L56.6539 25.243V21.5581H57.5569V26.8875H56.7885L53.9081 23.0961V26.8875H53.0055Z" fill="white"/>
<path fill-rule="evenodd" clip-rule="evenodd" d="M24.6424 5.45359L25.9054 3.26599H38.2103L38.526 3.81228L39.4734 5.45359H24.6424ZM26.3887 2.42887L27.6529 0.239258H36.4624L37.7267 2.42887H26.3887ZM36.4628 14.5317H29.2658C29.1267 14.5317 29.0095 14.6038 28.9457 14.7111L28.0691 16.2296H25.5682L27.631 12.657C27.7245 12.4947 27.9759 12.3633 28.1919 12.3633L37.7133 12.3657L36.4628 14.5317ZM39.4652 9.33164L38.1965 11.529H27.4963C27.3597 11.529 27.2454 11.5965 27.1803 11.6986L26.3159 13.1955H23.815L25.8778 9.62333C25.9713 9.46103 26.2227 9.3296 26.4387 9.3296L39.4652 9.33164ZM25.7289 8.49496C25.5947 8.49496 25.4775 8.56696 25.4137 8.67435L24.5594 10.1537H22.0586L24.1209 6.58195C24.2145 6.41965 24.4659 6.28782 24.6819 6.28782L39.9562 6.29112L40.5883 7.38572L39.9481 8.49456H25.7415L25.7289 8.49496Z" fill="#FEC23B"/>
</svg>
