<svg width="20" height="20" viewBox="0 0 20 20" fill="none" xmlns="http://www.w3.org/2000/svg">
<g clip-path="url(#clip0_6164_8990)">
<path d="M17.8045 16.8619L13.8252 12.8825C14.9096 11.5563 15.4428 9.86392 15.3144 8.15556C15.1861 6.44721 14.406 4.85354 13.1356 3.7042C11.8652 2.55486 10.2016 1.93778 8.48895 1.9806C6.77632 2.02343 5.14566 2.72287 3.93426 3.93426C2.72287 5.14566 2.02343 6.77632 1.9806 8.48895C1.93778 10.2016 2.55486 11.8652 3.7042 13.1356C4.85354 14.406 6.44721 15.1861 8.15556 15.3144C9.86392 15.4428 11.5563 14.9096 12.8825 13.8252L16.8619 17.8045C16.9876 17.926 17.156 17.9932 17.3308 17.9916C17.5056 17.9901 17.6728 17.92 17.7964 17.7964C17.92 17.6728 17.9901 17.5056 17.9916 17.3308C17.9932 17.156 17.926 16.9876 17.8045 16.8619ZM8.66652 13.9999C7.61169 13.9999 6.58054 13.6871 5.70348 13.101C4.82642 12.515 4.14283 11.682 3.73916 10.7075C3.3355 9.73296 3.22988 8.6606 3.43567 7.62604C3.64145 6.59147 4.14941 5.64117 4.89529 4.89529C5.64117 4.14941 6.59147 3.64145 7.62604 3.43567C8.6606 3.22988 9.73296 3.3355 10.7075 3.73916C11.682 4.14283 12.515 4.82642 13.101 5.70348C13.6871 6.58054 13.9999 7.61169 13.9999 8.66652C13.9983 10.0805 13.4359 11.4362 12.436 12.436C11.4362 13.4359 10.0805 13.9983 8.66652 13.9999Z" fill="#858D9D"/>
</g>
<defs>
<clipPath id="clip0_6164_8990">
<rect width="16" height="16" fill="white" transform="translate(2 2)"/>
</clipPath>
</defs>
</svg>
