<svg width="75" height="32" viewBox="0 0 75 32" fill="none" xmlns="http://www.w3.org/2000/svg">
<path fill-rule="evenodd" clip-rule="evenodd" d="M74.808 16.4453C74.808 11.1527 72.2379 6.97656 67.3257 6.97656C62.3928 6.97656 59.4082 11.1527 59.4082 16.404C59.4082 22.6269 62.9317 25.7694 67.989 25.7694C70.4554 25.7694 72.3208 25.2112 73.7302 24.4256V20.2907C72.3208 20.9936 70.7041 21.4278 68.6522 21.4278C66.6417 21.4278 64.8593 20.7249 64.6313 18.2853H74.7665C74.7665 18.0166 74.808 16.9415 74.808 16.4453ZM64.5691 14.4813C64.5691 12.1451 65.9992 11.1734 67.305 11.1734C68.5693 11.1734 69.9165 12.1451 69.9165 14.4813H64.5691Z" fill="#635BFF"/>
<path fill-rule="evenodd" clip-rule="evenodd" d="M51.4078 6.97656C49.3766 6.97656 48.0708 7.92757 47.3454 8.58915L47.0759 7.30735H42.5161V31.4134L47.6977 30.3177L47.7185 24.4669C48.4646 25.0044 49.5631 25.7694 51.3871 25.7694C55.0971 25.7694 58.4755 22.7923 58.4755 16.2386C58.4548 10.2431 55.0349 6.97656 51.4078 6.97656ZM50.1642 21.2211C48.9413 21.2211 48.2159 20.7869 47.7185 20.2494L47.6977 12.5793C48.2366 11.9797 48.9828 11.5662 50.1642 11.5662C52.0503 11.5662 53.3561 13.675 53.3561 16.3833C53.3561 19.1536 52.071 21.2211 50.1642 21.2211Z" fill="#635BFF"/>
<path fill-rule="evenodd" clip-rule="evenodd" d="M35.3857 5.75662L40.5881 4.64021V0.443359L35.3857 1.53909V5.75662Z" fill="#635BFF"/>
<path d="M40.5881 7.32812H35.3857V25.418H40.5881V7.32812Z" fill="#635BFF"/>
<path fill-rule="evenodd" clip-rule="evenodd" d="M29.8105 8.85687L29.4789 7.32698H25.002V25.4169H30.1836V13.1571C31.4064 11.5652 33.4791 11.8546 34.1216 12.082V7.32698C33.4584 7.07889 31.0334 6.62406 29.8105 8.85687Z" fill="#635BFF"/>
<path fill-rule="evenodd" clip-rule="evenodd" d="M19.4471 2.8418L14.3899 3.91685L14.3691 20.4769C14.3691 23.5366 16.6698 25.7901 19.7373 25.7901C21.4369 25.7901 22.6805 25.48 23.3644 25.1079V20.911C22.7012 21.1798 19.4264 22.1308 19.4264 19.071V11.7317H23.3644V7.32809H19.4264L19.4471 2.8418Z" fill="#635BFF"/>
<path fill-rule="evenodd" clip-rule="evenodd" d="M5.43619 12.5793C5.43619 11.773 6.09943 11.4629 7.19794 11.4629C8.77315 11.4629 10.7629 11.9384 12.3381 12.786V7.92757C10.6178 7.24533 8.91824 6.97656 7.19794 6.97656C2.99046 6.97656 0.192383 9.16802 0.192383 12.8273C0.192383 18.5334 8.06845 17.6238 8.06845 20.084C8.06845 21.035 7.23939 21.3451 6.07871 21.3451C4.35841 21.3451 2.1614 20.6422 0.420374 19.6912V24.6116C2.34794 25.4386 4.29623 25.79 6.07871 25.79C10.3898 25.79 13.3537 23.6606 13.3537 19.9599C13.333 13.799 5.43619 14.8948 5.43619 12.5793Z" fill="#635BFF"/>
</svg>
