<svg width="178" height="77" viewBox="0 0 178 77" fill="none" xmlns="http://www.w3.org/2000/svg">
<path d="M36.9471 67.7362H35.7745L35.3352 71.2207H34.8181L35.2519 67.7362H34.0737L34.1237 67.3075H36.9996L36.9471 67.7362Z" fill="#214DA9"/>
<path d="M39.1117 69.2249C39.1858 69.0701 39.2659 68.9357 39.3521 68.8219C39.4379 68.7081 39.5283 68.6188 39.6233 68.554C39.7175 68.4895 39.8147 68.4504 39.9146 68.4369C40.015 68.4236 40.117 68.4387 40.2207 68.482L40.1318 68.9485C39.8907 68.8539 39.678 68.8886 39.4935 69.0527C39.3093 69.2164 39.1599 69.5122 39.0451 69.9399L38.8895 71.2207H38.4058L38.7446 68.4518H38.9895C39.1023 68.4518 39.1587 68.5063 39.1587 68.6155L39.1117 69.2249Z" fill="#214DA9"/>
<path d="M44.0309 68.7925C43.9899 68.7833 43.9496 68.7775 43.9102 68.7752C43.8702 68.7722 43.8308 68.7707 43.7921 68.7707C43.681 68.7707 43.5734 68.7884 43.4694 68.8238C43.3657 68.8595 43.2686 68.9092 43.178 68.9727C43.0871 69.0365 43.0046 69.1126 42.9306 69.2009C42.8565 69.2893 42.793 69.3862 42.7402 69.4917C42.687 69.5976 42.6458 69.7101 42.6165 69.8292C42.5868 69.9483 42.572 70.0707 42.572 70.1964C42.572 70.635 42.7146 70.8544 42.9998 70.8544C43.0906 70.8544 43.1795 70.8266 43.2664 70.771C43.3539 70.7158 43.4369 70.6385 43.5153 70.5393C43.5941 70.4397 43.6668 70.3222 43.7335 70.1869C43.8005 70.051 43.8597 69.9021 43.9112 69.7403L44.0309 68.7925ZM43.8416 70.4911C43.7756 70.6079 43.7039 70.7136 43.6264 70.8082C43.5497 70.9028 43.4682 70.9834 43.382 71.0499C43.2958 71.116 43.2051 71.1673 43.1098 71.2037C43.0142 71.2404 42.9154 71.2588 42.8134 71.2588C42.7023 71.2588 42.6015 71.2373 42.5109 71.1943C42.42 71.1516 42.3426 71.0889 42.2786 71.0062C42.2147 70.9235 42.1652 70.8214 42.1302 70.7C42.0948 70.5793 42.0771 70.4405 42.0771 70.2837C42.0771 70.1199 42.098 69.9602 42.1398 69.8043C42.1812 69.6489 42.2404 69.5018 42.3175 69.3632C42.3943 69.2246 42.4865 69.0977 42.5942 68.9826C42.702 68.8668 42.8218 68.7666 42.9538 68.6819C43.0864 68.5972 43.2287 68.5317 43.3805 68.4854C43.5327 68.4387 43.6921 68.4154 43.8587 68.4154C43.9789 68.4154 44.0961 68.4252 44.2102 68.4447C44.324 68.4635 44.4364 68.4966 44.5475 68.5439L44.2112 71.2206H43.9562C43.8912 71.2206 43.8471 71.2042 43.8239 71.1715C43.8007 71.1384 43.789 71.0983 43.789 71.0514L43.8416 70.4911Z" fill="#214DA9"/>
<path d="M48.8747 69.0575C48.804 68.9593 48.7191 68.8905 48.6202 68.8511C48.5212 68.8121 48.4207 68.7925 48.3187 68.7925C48.1722 68.7925 48.0408 68.8354 47.9243 68.9211C47.8075 69.0064 47.7078 69.1171 47.6254 69.253C47.5429 69.3887 47.4794 69.5402 47.435 69.7076C47.3905 69.875 47.3683 70.0397 47.3683 70.2018C47.3683 70.4182 47.4077 70.5834 47.4865 70.6976C47.5653 70.811 47.6777 70.8678 47.8238 70.8678C47.913 70.8678 48.0029 70.8405 48.0935 70.7859C48.1844 70.7313 48.2721 70.6552 48.3566 70.5576C48.4407 70.4604 48.5193 70.3454 48.5924 70.2127C48.6658 70.0801 48.7292 69.9344 48.7828 69.7756L48.8747 69.0575ZM49.5912 67.1977L49.0883 71.2201H48.8302C48.7653 71.2201 48.7217 71.2039 48.6994 71.1715C48.6772 71.1384 48.6661 71.0983 48.6661 71.0514L48.7186 70.4693C48.6486 70.5894 48.5719 70.6977 48.4884 70.7943C48.4049 70.8906 48.3173 70.9735 48.2258 71.0429C48.1339 71.1124 48.0384 71.1655 47.9395 71.2022C47.8401 71.2396 47.7396 71.2585 47.638 71.2588C47.3969 71.2588 47.2098 71.1726 47.0764 71.0003C46.9431 70.8282 46.8765 70.5783 46.8765 70.2505C46.8765 70.1016 46.8921 69.9524 46.9234 69.8029C46.9554 69.6533 47.0004 69.5104 47.0583 69.3741C47.1168 69.2375 47.1874 69.1105 47.2698 68.993C47.352 68.8759 47.4441 68.7745 47.5461 68.6888C47.6481 68.6028 47.7578 68.5355 47.8753 68.4869C47.9931 68.4376 48.1169 68.4129 48.2465 68.4129C48.3855 68.4129 48.5119 68.4397 48.6257 68.4933C48.7395 68.5472 48.8365 68.6233 48.9166 68.7216L49.108 67.1977H49.5912Z" fill="#214DA9"/>
<path d="M53.2046 68.7648C53.0878 68.7648 52.9804 68.7884 52.8825 68.8357C52.7842 68.8827 52.6971 68.9477 52.6214 69.0307C52.545 69.1134 52.48 69.2109 52.4265 69.323C52.3729 69.4352 52.3312 69.5558 52.3012 69.6848C52.5867 69.6504 52.8156 69.6108 52.988 69.5662C53.16 69.5215 53.2925 69.4732 53.3854 69.4213C53.4783 69.3693 53.5394 69.3134 53.5687 69.2536C53.5984 69.1933 53.6132 69.1305 53.6132 69.065C53.6132 69.0326 53.6058 68.9983 53.591 68.9623C53.5761 68.9269 53.5526 68.8946 53.5203 68.8655C53.4876 68.8364 53.4455 68.8124 53.394 68.7935C53.3418 68.7744 53.2787 68.7648 53.2046 68.7648ZM53.9884 70.709C53.8941 70.8053 53.8015 70.8876 53.7106 70.9561C53.6197 71.0246 53.5275 71.0815 53.4339 71.1268C53.3406 71.1725 53.2425 71.2057 53.1395 71.2266C53.0365 71.2474 52.9257 71.2578 52.8072 71.2578C52.6463 71.2578 52.5017 71.2313 52.3734 71.1784C52.2458 71.1261 52.1376 71.0512 52.0487 70.9536C51.9599 70.8564 51.8914 70.7384 51.8432 70.5998C51.7951 70.4612 51.771 70.3065 51.771 70.1358C51.771 69.9936 51.7861 69.8518 51.8164 69.7106C51.8471 69.5696 51.8917 69.4355 51.9503 69.3081C52.0085 69.1808 52.0797 69.0625 52.1639 68.9533C52.248 68.8442 52.3445 68.7499 52.4532 68.6705C52.5613 68.5911 52.6808 68.5287 52.8118 68.4834C52.942 68.4378 53.0823 68.4149 53.2324 68.4149C53.3755 68.4149 53.4987 68.4349 53.6021 68.475C53.7064 68.515 53.7916 68.5661 53.8576 68.6283C53.9242 68.6902 53.9739 68.7585 54.0066 68.8332C54.0389 68.9077 54.055 68.9785 54.055 69.0456C54.055 69.166 54.0301 69.2767 53.9803 69.3776C53.9301 69.4785 53.8384 69.5695 53.7051 69.6505C53.5718 69.7319 53.3883 69.8025 53.1546 69.8624C52.9213 69.9226 52.6212 69.9709 52.2543 70.0073C52.2543 70.0272 52.2538 70.0467 52.2527 70.0659C52.2521 70.0847 52.2517 70.1042 52.2517 70.1244C52.2517 70.3686 52.3059 70.5548 52.4143 70.6832C52.5224 70.8115 52.6859 70.8757 52.9047 70.8757C52.9936 70.8757 53.0727 70.8666 53.142 70.8484C53.2117 70.8299 53.2738 70.8076 53.3284 70.7814C53.3832 70.755 53.4314 70.7259 53.4728 70.6941L53.5869 70.6068C53.6212 70.58 53.6532 70.5576 53.6829 70.5398C53.7121 70.5212 53.7418 70.512 53.7717 70.512C53.8067 70.512 53.8382 70.5275 53.8662 70.5586L53.9884 70.709Z" fill="#214DA9"/>
<path d="M61.4391 68.8981C61.4243 68.92 61.4094 68.936 61.3946 68.9463C61.3795 68.9562 61.361 68.9611 61.3391 68.9611C61.3128 68.9611 61.2845 68.9511 61.2542 68.9309C61.2236 68.911 61.1866 68.8889 61.1431 68.8644C61.0994 68.8396 61.046 68.8167 60.9831 68.7959C60.9201 68.7747 60.8442 68.7641 60.7553 68.7641C60.6722 68.7641 60.5963 68.7757 60.5276 68.7989C60.4589 68.8214 60.4 68.8526 60.3508 68.8927C60.302 68.9327 60.2641 68.9795 60.2372 69.0331C60.2103 69.087 60.1968 69.1439 60.1968 69.2038C60.1968 69.2898 60.2254 69.3581 60.2827 69.4087C60.3399 69.46 60.4123 69.5042 60.4998 69.5412C60.587 69.5786 60.6806 69.6147 60.7806 69.6494C60.8806 69.6838 60.974 69.7275 61.0608 69.7804C61.1484 69.8333 61.2207 69.9008 61.278 69.9829C61.3352 70.0646 61.3638 70.1709 61.3638 70.3019C61.3638 70.4296 61.3384 70.5516 61.2876 70.6677C61.2364 70.7844 61.1632 70.887 61.0679 70.9753C60.9726 71.0633 60.8578 71.1338 60.7235 71.1867C60.5892 71.2397 60.4385 71.266 60.2716 71.2656C60.0921 71.2656 59.9334 71.2344 59.7954 71.1718C59.6573 71.109 59.5447 71.0284 59.4575 70.9302L59.5797 70.7446C59.5966 70.7208 59.6146 70.7024 59.6338 70.6895C59.6536 70.6769 59.6792 70.6706 59.7105 70.6706C59.7398 70.6706 59.7694 70.6834 59.7994 70.7089C59.829 70.7343 59.866 70.7629 59.9105 70.7947C59.9549 70.8268 60.011 70.8556 60.0786 70.881C60.146 70.9062 60.2317 70.9188 60.3357 70.9188C60.4266 70.9188 60.5086 70.9052 60.5816 70.8781C60.6547 70.8506 60.7168 70.8144 60.7679 70.7694C60.8184 70.7237 60.8573 70.6703 60.8846 70.6091C60.9115 70.5482 60.925 70.4832 60.925 70.4141C60.925 70.3211 60.8962 70.2472 60.8386 70.1923C60.7811 70.138 60.7089 70.0927 60.622 70.0563C60.5345 70.0199 60.4409 69.9857 60.3412 69.9536C60.2413 69.9218 60.1477 69.881 60.0605 69.831C59.9736 69.7804 59.9014 69.7152 59.8438 69.6355C59.7863 69.5555 59.7575 69.4489 59.7575 69.3159C59.7575 69.1995 59.7812 69.0872 59.8287 68.979C59.8758 68.8705 59.9438 68.7744 60.0327 68.6907C60.1216 68.6067 60.2295 68.5398 60.3564 68.4902C60.4833 68.4399 60.6266 68.4148 60.7861 68.4148C60.9545 68.4148 61.1031 68.4426 61.232 68.4982C61.3606 68.5537 61.4714 68.6288 61.5643 68.7234L61.4391 68.8981Z" fill="#214DA9"/>
<path d="M63.7925 71.2207L64.1313 68.4518H64.3762C64.489 68.4518 64.5454 68.5063 64.5454 68.6155L64.507 69.1068C64.6454 68.8795 64.7977 68.707 64.964 68.5892C65.1297 68.4721 65.3034 68.4135 65.4852 68.4135C65.6757 68.4135 65.8164 68.4776 65.9073 68.6056C65.9982 68.7339 66.0437 68.9175 66.0437 69.1564C66.1827 68.9027 66.3398 68.7156 66.5148 68.5952C66.6899 68.4741 66.8746 68.4135 67.0688 68.4135C67.3098 68.4135 67.4804 68.5045 67.5803 68.6865C67.6803 68.8684 67.71 69.126 67.6692 69.4591L67.4581 71.2207H66.9688L67.1829 69.4591C67.2085 69.2427 67.2016 69.0818 67.1622 68.9763C67.1222 68.8704 67.0328 68.8175 66.8941 68.8175C66.8143 68.8175 66.735 68.837 66.6562 68.876C66.5775 68.9154 66.501 68.9728 66.427 69.0482C66.3529 69.1236 66.2839 69.2173 66.2199 69.3291C66.156 69.4416 66.0991 69.5706 66.0492 69.7161V69.7191L65.8685 71.2207H65.3796L65.5907 69.4591C65.6183 69.2427 65.6146 69.0818 65.5796 68.9763C65.5443 68.8704 65.4571 68.8175 65.318 68.8175C65.2292 68.8175 65.1435 68.8393 65.061 68.883C64.9789 68.9266 64.9011 68.99 64.8277 69.073C64.7543 69.1557 64.6863 69.2566 64.6237 69.3757C64.5607 69.4948 64.5032 69.6293 64.451 69.7792L64.2763 71.2207H63.7925Z" fill="#214DA9"/>
<path d="M72.0397 68.7925C71.9986 68.7833 71.9584 68.7775 71.919 68.7752C71.879 68.7722 71.8396 68.7707 71.8009 68.7707C71.6898 68.7707 71.5822 68.7884 71.4782 68.8238C71.3745 68.8595 71.2774 68.9092 71.1868 68.9727C71.0959 69.0365 71.0134 69.1126 70.9394 69.2009C70.8653 69.2893 70.8018 69.3862 70.749 69.4917C70.6958 69.5976 70.6545 69.7101 70.6253 69.8292C70.5956 69.9483 70.5808 70.0707 70.5808 70.1964C70.5808 70.635 70.7234 70.8544 71.0085 70.8544C71.0994 70.8544 71.1883 70.8266 71.2752 70.771C71.3627 70.7158 71.4457 70.6385 71.5241 70.5393C71.6029 70.4397 71.6756 70.3222 71.7423 70.1869C71.8093 70.051 71.8685 69.9021 71.92 69.7403L72.0397 68.7925ZM71.8503 70.4911C71.7844 70.6079 71.7127 70.7136 71.6352 70.8082C71.5585 70.9028 71.477 70.9834 71.3908 71.0499C71.3046 71.116 71.2139 71.1673 71.1186 71.2037C71.023 71.2404 70.9242 71.2588 70.8222 71.2588C70.7111 71.2588 70.6103 71.2373 70.5197 71.1943C70.4288 71.1516 70.3514 71.0889 70.2874 71.0062C70.2235 70.9235 70.174 70.8214 70.139 70.7C70.1036 70.5793 70.0859 70.4405 70.0859 70.2837C70.0859 70.1199 70.1068 69.9602 70.1486 69.8043C70.19 69.6489 70.2492 69.5018 70.3263 69.3632C70.4031 69.2246 70.4953 69.0977 70.603 68.9826C70.7108 68.8668 70.8306 68.7666 70.9626 68.6819C71.0952 68.5972 71.2375 68.5317 71.3893 68.4854C71.5415 68.4387 71.7009 68.4154 71.8675 68.4154C71.9877 68.4154 72.1049 68.4252 72.219 68.4447C72.3328 68.4635 72.4452 68.4966 72.5563 68.5439L72.22 71.2206H71.965C71.9 71.2206 71.8559 71.2042 71.8327 71.1715C71.8094 71.1384 71.7978 71.0983 71.7978 71.0514L71.8503 70.4911Z" fill="#214DA9"/>
<path d="M75.6034 69.2249C75.6775 69.0701 75.7576 68.9357 75.8438 68.8219C75.9296 68.7081 76.02 68.6188 76.115 68.554C76.2092 68.4895 76.3064 68.4504 76.4063 68.4369C76.5067 68.4236 76.6087 68.4387 76.7124 68.482L76.6235 68.9485C76.3824 68.8539 76.1697 68.8886 75.9852 69.0527C75.801 69.2164 75.6516 69.5122 75.5368 69.9399L75.3812 71.2207H74.8975L75.2363 68.4518H75.4812C75.594 68.4518 75.6504 68.5063 75.6504 68.6155L75.6034 69.2249Z" fill="#214DA9"/>
<path d="M78.9659 70.7004V70.6577C78.9659 70.6409 78.9673 70.6159 78.97 70.5828C78.9726 70.5497 78.9774 70.5069 78.9841 70.4543C78.9905 70.4017 78.9992 70.3326 79.0104 70.2469L79.1826 68.8624H78.8685C78.8425 68.8624 78.8218 68.8536 78.8063 68.8361C78.7902 68.8189 78.784 68.7921 78.7877 68.7557L78.8099 68.5617L79.2437 68.5046L79.4547 67.6501C79.4642 67.623 79.4786 67.6007 79.4982 67.5831C79.5174 67.5656 79.5419 67.5568 79.5719 67.5568H79.8299L79.7108 68.5101H80.4496L80.4081 68.8624H79.6663L79.4967 70.2221L79.4744 70.4022L79.4618 70.5119L79.4563 70.5689L79.4547 70.5937C79.4547 70.6864 79.4771 70.755 79.5219 70.7997C79.566 70.8443 79.6253 70.8667 79.6997 70.8667C79.7495 70.8667 79.7924 70.8599 79.8284 70.8463C79.8648 70.8327 79.8968 70.8177 79.9244 70.8012C79.9526 70.7846 79.9759 70.7696 79.9941 70.756C80.0126 70.7428 80.0282 70.736 80.041 70.7357C80.0582 70.7357 80.0708 70.7393 80.0789 70.7466C80.087 70.7538 80.0947 70.7658 80.1021 70.7823L80.2082 71.0145C80.1173 71.0926 80.0139 71.154 79.8981 71.1986C79.7823 71.2433 79.6662 71.2656 79.5497 71.2656C79.3699 71.2656 79.2285 71.2173 79.1255 71.1207C79.0228 71.0241 78.9696 70.884 78.9659 70.7004Z" fill="#214DA9"/>
<path d="M84.0293 68.7648C83.9125 68.7648 83.8051 68.7884 83.7072 68.8357C83.6089 68.8827 83.5218 68.9477 83.4461 69.0307C83.3697 69.1134 83.3047 69.2109 83.2512 69.323C83.1976 69.4352 83.1559 69.5558 83.1259 69.6848C83.4114 69.6504 83.6403 69.6108 83.8127 69.5662C83.9847 69.5215 84.1172 69.4732 84.2101 69.4213C84.303 69.3693 84.3641 69.3134 84.3934 69.2536C84.4231 69.1933 84.4379 69.1305 84.4379 69.065C84.4379 69.0326 84.4305 68.9983 84.4157 68.9623C84.4008 68.9269 84.3773 68.8946 84.345 68.8655C84.3123 68.8364 84.2702 68.8124 84.2187 68.7935C84.1665 68.7744 84.1034 68.7648 84.0293 68.7648ZM84.8131 70.709C84.7188 70.8053 84.6262 70.8876 84.5353 70.9561C84.4444 71.0246 84.3522 71.0815 84.2586 71.1268C84.1654 71.1725 84.0672 71.2057 83.9642 71.2266C83.8612 71.2474 83.7504 71.2578 83.6319 71.2578C83.471 71.2578 83.3264 71.2313 83.1981 71.1784C83.0706 71.1261 82.9623 71.0512 82.8734 70.9536C82.7846 70.8564 82.7161 70.7384 82.6679 70.5998C82.6198 70.4612 82.5957 70.3065 82.5957 70.1358C82.5957 69.9936 82.6109 69.8518 82.6412 69.7106C82.6718 69.5696 82.7164 69.4355 82.775 69.3081C82.8332 69.1808 82.9044 69.0625 82.9886 68.9533C83.0727 68.8442 83.1692 68.7499 83.2779 68.6705C83.386 68.5911 83.5055 68.5287 83.6365 68.4834C83.7668 68.4378 83.907 68.4149 84.0571 68.4149C84.2002 68.4149 84.3234 68.4349 84.4268 68.475C84.5311 68.515 84.6163 68.5661 84.6823 68.6283C84.7489 68.6902 84.7986 68.7585 84.8313 68.8332C84.8636 68.9077 84.8797 68.9785 84.8797 69.0456C84.8797 69.166 84.8548 69.2767 84.805 69.3776C84.7548 69.4785 84.6631 69.5695 84.5298 69.6505C84.3965 69.7319 84.213 69.8025 83.9794 69.8624C83.7461 69.9226 83.4459 69.9709 83.079 70.0073C83.079 70.0272 83.0785 70.0467 83.0775 70.0659C83.0768 70.0847 83.0764 70.1042 83.0764 70.1244C83.0764 70.3686 83.1306 70.5548 83.239 70.6832C83.3471 70.8115 83.5106 70.8757 83.7294 70.8757C83.8183 70.8757 83.8974 70.8666 83.9667 70.8484C84.0364 70.8299 84.0985 70.8076 84.1531 70.7814C84.2079 70.755 84.2561 70.7259 84.2975 70.6941L84.4116 70.6068C84.446 70.58 84.4779 70.5576 84.5076 70.5398C84.5369 70.5212 84.5665 70.512 84.5964 70.512C84.6315 70.512 84.6629 70.5275 84.6909 70.5586L84.8131 70.709Z" fill="#214DA9"/>
<path d="M87.9091 69.2249C87.9832 69.0701 88.0633 68.9357 88.1495 68.8219C88.2353 68.7081 88.3257 68.6188 88.4206 68.554C88.5149 68.4895 88.6122 68.4504 88.7125 68.4369C88.8122 68.4236 88.9138 68.4387 89.0175 68.482L88.9292 68.9485C88.6884 68.8539 88.4758 68.8886 88.2914 69.0527C88.1072 69.2164 87.9576 69.5122 87.8424 69.9399L87.6869 71.2207H87.2031L87.542 68.4518H87.7869C87.8997 68.4518 87.9562 68.5063 87.9566 68.6155L87.9091 69.2249Z" fill="#214DA9"/>
<path d="M90.8301 71.883C90.8056 71.8608 90.7935 71.8354 90.7938 71.8066C90.7938 71.7848 90.8086 71.7565 90.8382 71.7217L90.9417 71.5977C90.9805 71.5494 91.0182 71.4938 91.0549 71.431C91.0922 71.3681 91.1173 71.2975 91.1301 71.2191C91.1227 71.221 91.1107 71.222 91.0943 71.222C90.9983 71.222 90.9199 71.1908 90.8589 71.1283C90.799 71.0654 90.769 70.9847 90.769 70.8861C90.769 70.8004 90.799 70.7276 90.8589 70.6678C90.9199 70.6075 91 70.5774 91.0993 70.5774C91.1559 70.5774 91.2038 70.5879 91.2473 70.6077C91.2897 70.6276 91.3252 70.6553 91.3538 70.6911C91.3828 70.7265 91.4045 70.7675 91.419 70.8141C91.4338 70.8605 91.4413 70.9107 91.4417 70.965C91.4413 71.047 91.4299 71.1322 91.4073 71.2206C91.3838 71.3092 91.3491 71.3965 91.3033 71.4826C91.2582 71.5692 91.2033 71.6534 91.1387 71.7351C91.0737 71.8175 90.9995 71.8931 90.916 71.9619L90.8301 71.883Z" fill="#214DA9"/>
<path d="M97.9609 69.1534C98.1111 68.9096 98.2808 68.7253 98.47 68.6006C98.6585 68.4759 98.8527 68.4135 99.0527 68.4135C99.1719 68.4135 99.2761 68.4367 99.3653 68.483C99.4552 68.5293 99.5286 68.5971 99.5855 68.6865C99.6417 68.7758 99.6801 68.8855 99.7006 69.0155C99.7211 69.1455 99.7211 69.2934 99.7006 69.4591L99.4895 71.2207H98.9977L99.2088 69.4591C99.234 69.2408 99.2202 69.0793 99.1673 68.9748C99.1135 68.8699 99.0142 68.8175 98.8694 68.8175C98.7805 68.8175 98.6905 68.8411 98.5992 68.8884C98.5073 68.9361 98.4188 69.0034 98.3336 69.0904C98.2478 69.1781 98.1687 69.2833 98.0963 69.406C98.0222 69.5291 97.9594 69.666 97.9079 69.8169L97.7468 71.2207H97.252L97.5913 68.4518H97.8357C97.9468 68.4518 98.0024 68.5063 98.0024 68.6155L97.9609 69.1534Z" fill="#214DA9"/>
<path d="M103.238 70.8792C103.373 70.8792 103.496 70.8426 103.607 70.7695C103.717 70.6971 103.811 70.6001 103.889 70.4787C103.968 70.3576 104.029 70.218 104.072 70.0599C104.114 69.9011 104.136 69.7354 104.136 69.5627C104.136 69.308 104.084 69.1162 103.981 68.9876C103.879 68.8595 103.731 68.7955 103.538 68.7955C103.401 68.7955 103.278 68.8314 103.167 68.9032C103.057 68.975 102.963 69.0711 102.885 69.1915C102.807 69.3116 102.747 69.4507 102.705 69.6088C102.662 69.7676 102.64 69.9334 102.64 70.1061C102.64 70.3611 102.691 70.5537 102.793 70.6837C102.895 70.8137 103.043 70.8788 103.238 70.8792ZM103.191 71.2588C103.037 71.2588 102.896 71.2327 102.768 71.1804C102.64 71.1288 102.53 71.0537 102.437 70.9551C102.345 70.8572 102.273 70.7371 102.22 70.5948C102.169 70.4526 102.143 70.2905 102.143 70.1085C102.143 69.876 102.18 69.6566 102.254 69.4505C102.328 69.2454 102.43 69.0656 102.56 68.9111C102.69 68.7573 102.842 68.6359 103.018 68.5469C103.192 68.4576 103.38 68.4129 103.583 68.4129C103.737 68.4129 103.877 68.4389 104.005 68.4908C104.133 68.5424 104.243 68.6175 104.336 68.7161C104.429 68.8144 104.501 68.9345 104.552 69.0764C104.604 69.2186 104.63 69.3799 104.63 69.5602C104.63 69.7914 104.593 70.0098 104.52 70.2152C104.445 70.421 104.344 70.6013 104.215 70.7561C104.086 70.9106 103.934 71.033 103.758 71.1233C103.582 71.2136 103.393 71.2588 103.191 71.2588Z" fill="#214DA9"/>
<path d="M107.145 70.7004V70.6577C107.145 70.6409 107.147 70.6159 107.15 70.5828C107.152 70.5497 107.157 70.5069 107.164 70.4543L107.19 70.2469L107.362 68.8624H107.049C107.022 68.8624 107.001 68.8536 106.986 68.8361C106.97 68.8189 106.964 68.7921 106.967 68.7557L106.99 68.5617L107.423 68.5046L107.634 67.6501C107.644 67.623 107.658 67.6007 107.678 67.5831C107.698 67.5656 107.722 67.5568 107.752 67.5568H108.01L107.891 68.5101H108.629L108.588 68.8624H107.846L107.677 70.2221C107.667 70.2975 107.66 70.3575 107.654 70.4022C107.648 70.4475 107.644 70.4841 107.641 70.5119C107.639 70.5393 107.638 70.5583 107.636 70.5689L107.634 70.5937C107.634 70.6864 107.657 70.755 107.702 70.7997C107.746 70.8443 107.805 70.8667 107.879 70.8667C107.929 70.8667 107.972 70.8599 108.008 70.8463C108.044 70.8327 108.076 70.8177 108.105 70.8012C108.132 70.7846 108.155 70.7696 108.174 70.756C108.192 70.7428 108.208 70.736 108.221 70.7357C108.238 70.7357 108.25 70.7393 108.259 70.7466C108.266 70.7538 108.274 70.7658 108.282 70.7823L108.388 71.0145C108.297 71.0926 108.194 71.154 108.078 71.1986C107.962 71.2433 107.845 71.2656 107.729 71.2656C107.55 71.2656 107.408 71.2173 107.305 71.1207C107.202 71.0241 107.149 70.884 107.145 70.7004Z" fill="#214DA9"/>
<path d="M114.844 69.0661C114.991 68.8511 115.153 68.6886 115.332 68.5788C115.51 68.4683 115.692 68.4132 115.878 68.4135C115.998 68.4135 116.104 68.4367 116.195 68.483C116.286 68.5293 116.359 68.597 116.415 68.686C116.472 68.7753 116.511 68.885 116.531 69.015C116.552 69.1453 116.552 69.2934 116.531 69.4591L116.32 71.2207H115.825L116.037 69.4591C116.065 69.2408 116.052 69.0788 115.997 68.9733C115.944 68.8674 115.844 68.8145 115.697 68.8145C115.614 68.8145 115.528 68.8368 115.439 68.8815C115.35 68.9261 115.265 68.9895 115.182 69.0715C115.1 69.1536 115.022 69.2527 114.948 69.3688C114.876 69.4856 114.812 69.6157 114.758 69.7593L114.577 71.2207H114.085L114.58 67.1978H115.075L114.844 69.0661Z" fill="#214DA9"/>
<path d="M120.902 68.7925C120.862 68.7833 120.821 68.7775 120.781 68.7752C120.741 68.7722 120.702 68.7707 120.663 68.7707C120.552 68.7707 120.445 68.7884 120.341 68.8238C120.237 68.8595 120.14 68.9092 120.049 68.9727C119.958 69.0365 119.876 69.1126 119.801 69.2009C119.728 69.2893 119.664 69.3862 119.611 69.4917C119.559 69.5976 119.518 69.7101 119.488 69.8292C119.458 69.9483 119.443 70.0707 119.443 70.1964C119.443 70.635 119.586 70.8544 119.871 70.8544C119.962 70.8544 120.051 70.8266 120.137 70.771C120.224 70.7158 120.307 70.6385 120.386 70.5393C120.465 70.4397 120.538 70.3222 120.604 70.1869C120.671 70.051 120.731 69.9021 120.783 69.7403L120.902 68.7925ZM120.713 70.4911C120.647 70.6079 120.575 70.7136 120.498 70.8082C120.421 70.9028 120.339 70.9834 120.253 71.0499C120.167 71.116 120.077 71.1673 119.981 71.2037C119.885 71.2404 119.786 71.2588 119.685 71.2588C119.574 71.2588 119.473 71.2373 119.382 71.1943C119.291 71.1516 119.214 71.0889 119.149 71.0062C119.086 70.9235 119.036 70.8214 119.001 70.7C118.966 70.5793 118.948 70.4405 118.948 70.2837C118.948 70.1199 118.969 69.9602 119.011 69.8043C119.053 69.6489 119.112 69.5018 119.189 69.3632C119.266 69.2246 119.358 69.0977 119.465 68.9826C119.573 68.8668 119.693 68.7666 119.825 68.6819C119.958 68.5972 120.1 68.5317 120.252 68.4854C120.404 68.4387 120.563 68.4154 120.729 68.4154C120.85 68.4154 120.967 68.4252 121.081 68.4447C121.195 68.4635 121.308 68.4966 121.419 68.5439L121.082 71.2206H120.827C120.763 71.2206 120.719 71.2042 120.695 71.1715C120.672 71.1384 120.66 71.0983 120.66 71.0514L120.713 70.4911Z" fill="#214DA9"/>
<path d="M124.464 69.2249C124.538 69.0701 124.618 68.9357 124.705 68.8219C124.79 68.7081 124.881 68.6188 124.976 68.554C125.069 68.4895 125.167 68.4504 125.268 68.4369C125.367 68.4236 125.469 68.4387 125.572 68.482L125.484 68.9485C125.243 68.8539 125.031 68.8886 124.847 69.0527C124.662 69.2164 124.512 69.5122 124.398 69.9399L124.242 71.2207H123.758L124.097 68.4518H124.342C124.455 68.4518 124.511 68.5063 124.511 68.6155L124.464 69.2249Z" fill="#214DA9"/>
<path d="M129.486 69.0575C129.415 68.9593 129.331 68.8905 129.232 68.8511C129.133 68.8121 129.032 68.7925 128.93 68.7925C128.784 68.7925 128.652 68.8354 128.536 68.9211C128.419 69.0064 128.319 69.1171 128.237 69.253C128.154 69.3887 128.09 69.5402 128.046 69.7076C128.002 69.875 127.98 70.0397 127.98 70.2018C127.98 70.4182 128.019 70.5834 128.098 70.6976C128.177 70.811 128.289 70.8678 128.436 70.8678C128.525 70.8678 128.615 70.8405 128.705 70.7859C128.796 70.7313 128.884 70.6552 128.968 70.5576C129.052 70.4604 129.131 70.3454 129.204 70.2127C129.277 70.0801 129.341 69.9344 129.395 69.7756L129.486 69.0575ZM130.204 67.1977L129.701 71.2201H129.442C129.377 71.2201 129.333 71.2039 129.311 71.1715C129.289 71.1384 129.278 71.0983 129.277 71.0514L129.33 70.4693C129.26 70.5894 129.183 70.6977 129.1 70.7943C129.016 70.8906 128.929 70.9735 128.838 71.0429C128.746 71.1124 128.65 71.1655 128.55 71.2022C128.452 71.2396 128.351 71.2585 128.25 71.2588C128.009 71.2588 127.822 71.1726 127.688 71.0003C127.555 70.8282 127.488 70.5783 127.488 70.2505C127.488 70.1016 127.504 69.9524 127.536 69.8029C127.567 69.6533 127.612 69.5104 127.67 69.3741C127.728 69.2375 127.799 69.1105 127.881 68.993C127.963 68.8759 128.056 68.7745 128.158 68.6888C128.259 68.6028 128.369 68.5355 128.487 68.4869C128.605 68.4376 128.728 68.4129 128.858 68.4129C128.997 68.4129 129.124 68.4397 129.237 68.4933C129.351 68.5472 129.448 68.6233 129.528 68.7216L129.719 67.1977H130.204Z" fill="#214DA9"/>
<path d="M133.816 68.7648C133.699 68.7648 133.591 68.7884 133.493 68.8357C133.395 68.8827 133.308 68.9477 133.232 69.0307C133.156 69.1134 133.091 69.2109 133.038 69.323C132.984 69.4352 132.942 69.5558 132.913 69.6848C133.198 69.6504 133.426 69.6108 133.599 69.5662C133.772 69.5215 133.904 69.4732 133.996 69.4213C134.089 69.3693 134.15 69.3134 134.18 69.2536C134.21 69.1933 134.225 69.1305 134.225 69.065C134.225 69.0326 134.217 68.9983 134.202 68.9623C134.187 68.9269 134.163 68.8946 134.131 68.8655C134.099 68.8364 134.057 68.8124 134.004 68.7935C133.953 68.7744 133.89 68.7648 133.816 68.7648ZM134.599 70.709C134.505 70.8053 134.412 70.8876 134.321 70.9561C134.23 71.0246 134.138 71.0815 134.045 71.1268C133.951 71.1725 133.853 71.2057 133.75 71.2266C133.647 71.2474 133.537 71.2578 133.419 71.2578C133.257 71.2578 133.112 71.2313 132.985 71.1784C132.858 71.1261 132.749 71.0512 132.659 70.9536C132.57 70.8564 132.502 70.7384 132.454 70.5998C132.406 70.4612 132.382 70.3065 132.382 70.1358C132.382 69.9936 132.397 69.8518 132.427 69.7106C132.458 69.5696 132.502 69.4355 132.561 69.3081C132.62 69.1808 132.691 69.0625 132.774 68.9533C132.859 68.8442 132.956 68.7499 133.064 68.6705C133.172 68.5911 133.292 68.5287 133.423 68.4834C133.553 68.4378 133.694 68.4149 133.844 68.4149C133.986 68.4149 134.109 68.4349 134.213 68.475C134.317 68.515 134.402 68.5661 134.469 68.6283C134.535 68.6902 134.585 68.7585 134.618 68.8332C134.65 68.9077 134.666 68.9785 134.666 69.0456C134.666 69.166 134.641 69.2767 134.591 69.3776C134.541 69.4785 134.449 69.5695 134.316 69.6505C134.183 69.7319 133.999 69.8025 133.765 69.8624C133.532 69.9226 133.232 69.9709 132.865 70.0073L132.864 70.0659C132.863 70.0847 132.862 70.1042 132.862 70.1244C132.862 70.3686 132.916 70.5548 133.025 70.6832C133.134 70.8115 133.297 70.8757 133.515 70.8757C133.604 70.8757 133.684 70.8666 133.753 70.8484C133.823 70.8299 133.885 70.8076 133.939 70.7814C133.994 70.755 134.042 70.7259 134.084 70.6941L134.198 70.6068C134.232 70.58 134.264 70.5576 134.293 70.5398C134.323 70.5212 134.352 70.512 134.382 70.512C134.417 70.512 134.449 70.5275 134.477 70.5586L134.599 70.709Z" fill="#214DA9"/>
<path d="M137.696 69.2249C137.77 69.0701 137.85 68.9357 137.937 68.8219C138.022 68.7081 138.112 68.6188 138.208 68.554C138.301 68.4895 138.399 68.4504 138.5 68.4369C138.599 68.4236 138.701 68.4387 138.804 68.482L138.716 68.9485C138.475 68.8539 138.263 68.8886 138.078 69.0527C137.894 69.2164 137.744 69.5122 137.63 69.9399L137.474 71.2207H136.99L137.329 68.4518H137.574C137.687 68.4518 137.743 68.5063 137.743 68.6155L137.696 69.2249Z" fill="#214DA9"/>
<path d="M33.9295 56.3028C33.9295 55.5561 33.8295 54.8847 33.6295 54.2886C33.4295 53.6928 33.1429 53.1884 32.7695 52.7756C32.3965 52.3627 31.9415 52.045 31.4045 51.8223C30.8683 51.5997 30.2601 51.4884 29.58 51.4884H27.0198V61.1276H29.58C30.2601 61.1276 30.8683 61.0179 31.4045 60.7986C31.9415 60.5792 32.3965 60.2615 32.7695 59.8453C33.1429 59.4292 33.4295 58.923 33.6295 58.3269C33.8295 57.7311 33.9295 57.0564 33.9295 56.3028ZM37.0093 56.3028C37.0093 57.3448 36.8311 58.3029 36.4746 59.1769C36.1177 60.0516 35.6144 60.8034 34.9647 61.4323C34.3146 62.0608 33.5329 62.5521 32.6195 62.9061C31.7062 63.26 30.693 63.4369 29.58 63.4365H24V49.1794H29.58C30.6934 49.1794 31.7065 49.3562 32.6195 49.7099C33.5329 50.0639 34.3146 50.5566 34.9647 51.1881C35.6144 51.8207 36.1177 52.5725 36.4746 53.4435C36.8311 54.3149 37.0093 55.268 37.0093 56.3028Z" fill="#214DA9"/>
<path d="M44.7584 57.1777C44.7584 56.8962 44.72 56.6275 44.6432 56.3718C44.5665 56.1164 44.4448 55.8905 44.2781 55.694C44.1115 55.4975 43.9016 55.3418 43.6484 55.227C43.3953 55.1129 43.0919 55.0557 42.7385 55.0553C42.0786 55.0553 41.562 55.2388 41.1887 55.6056C40.815 55.9722 40.5716 56.4962 40.4585 57.1777H44.7584ZM40.4186 58.7889C40.5054 59.7387 40.7805 60.4331 41.2437 60.8721C41.7066 61.3111 42.3116 61.5304 43.0586 61.5301C43.4384 61.5301 43.7666 61.4861 44.0433 61.3981C44.3201 61.3094 44.5635 61.211 44.7735 61.1028C44.9833 60.995 45.1731 60.8967 45.3432 60.8081C45.5132 60.7201 45.6815 60.6759 45.8481 60.6756C46.0619 60.6756 46.2286 60.7542 46.3481 60.9113L47.148 61.8943C46.8544 62.2281 46.5312 62.5049 46.1784 62.7245C45.8249 62.9439 45.4581 63.1175 45.078 63.2456C44.6983 63.3729 44.315 63.4613 43.9282 63.5105C43.5421 63.5595 43.1689 63.584 42.8087 63.584C42.0885 63.584 41.4168 63.4677 40.7933 63.2351C40.1701 63.0029 39.6269 62.659 39.1637 62.2035C38.7005 61.7483 38.3355 61.1834 38.0689 60.5089C37.8023 59.834 37.6689 59.0509 37.6689 58.1597C37.6689 57.4723 37.7839 56.824 38.0138 56.215C38.2438 55.6056 38.5754 55.075 39.0087 54.6231C39.4419 54.1706 39.9686 53.8119 40.5888 53.5473C41.2082 53.2813 41.9081 53.1485 42.6885 53.1488C43.3483 53.1488 43.9566 53.252 44.5135 53.4585C45.07 53.6649 45.5499 53.9645 45.9532 54.3571C46.3565 54.7508 46.6699 55.234 46.8934 55.8066C47.1163 56.3803 47.2279 57.0336 47.2283 57.7667C47.2283 57.9705 47.2183 58.1377 47.1985 58.2684C47.1783 58.3994 47.1448 58.5041 47.098 58.5825C47.0515 58.6616 46.9882 58.7157 46.9081 58.7448C46.828 58.7745 46.7248 58.7893 46.5985 58.7889H40.4186Z" fill="#214DA9"/>
<path d="M56.5071 51.9091C56.4138 52.0596 56.3189 52.1693 56.2223 52.2381C56.1257 52.3069 56.0006 52.3413 55.8471 52.3413C55.7003 52.3413 55.5419 52.2904 55.3719 52.1885C55.2022 52.0876 55.0039 51.9779 54.777 51.8595C54.5501 51.7417 54.2902 51.6321 53.9973 51.5305C53.7038 51.4293 53.3604 51.3787 52.9672 51.3787C52.2737 51.3787 51.7537 51.531 51.4073 51.8357C51.0609 52.14 50.8877 52.5378 50.8877 53.0291C50.8877 53.3434 50.9826 53.6037 51.1725 53.8102C51.3623 54.0163 51.6123 54.1947 51.9224 54.3456C52.2321 54.4961 52.5837 54.6306 52.9773 54.749C53.3705 54.8668 53.7738 54.996 54.1872 55.1366C54.6003 55.2775 55.0036 55.4429 55.3971 55.6328C55.7904 55.823 56.142 56.0622 56.4521 56.3504C56.7621 56.6385 57.0121 56.9905 57.2019 57.4063C57.3918 57.8228 57.4868 58.329 57.4868 58.9248C57.4868 59.5732 57.3718 60.1807 57.1419 60.7474C56.9119 61.3138 56.5803 61.8084 56.147 62.2311C55.7138 62.6533 55.1788 62.9857 54.5422 63.2286C53.9056 63.4707 53.184 63.5918 52.3774 63.5918C51.9171 63.5918 51.4588 63.5461 51.0023 63.4548C50.5458 63.3625 50.1058 63.2347 49.6823 63.0713C49.2591 62.9078 48.8608 62.7113 48.4875 62.4817C48.1141 62.2525 47.7876 61.9971 47.5078 61.7156L48.3875 60.3197C48.4609 60.2148 48.5577 60.1281 48.6779 60.0597C48.7977 59.9908 48.9243 59.9564 49.0576 59.9564C49.2374 59.9564 49.4272 60.0219 49.6272 60.1529C49.8272 60.2839 50.0573 60.428 50.3175 60.5852C50.5774 60.7426 50.8791 60.8867 51.2225 61.0174C51.5658 61.1487 51.9774 61.2142 52.4571 61.2139C53.1574 61.2139 53.6991 61.0567 54.0822 60.7425C54.4653 60.4282 54.6568 59.9599 54.6568 59.3376C54.6568 58.977 54.5619 58.6854 54.372 58.4628C54.1822 58.2402 53.9339 58.0534 53.6272 57.9026C53.3208 57.752 52.9709 57.6227 52.5773 57.5145C52.1838 57.4067 51.7805 57.2871 51.3674 57.1557C50.954 57.0251 50.5507 56.8679 50.1575 56.6843C49.7642 56.501 49.4143 56.2587 49.1076 55.9573C48.8012 55.6563 48.553 55.2828 48.3627 54.8369C48.1729 54.3919 48.0779 53.8385 48.0779 53.1765C48.0779 52.6455 48.1845 52.1313 48.3976 51.6337C48.611 51.1362 48.9243 50.694 49.3374 50.3073C49.7508 49.9206 50.2591 49.6094 50.8624 49.3739C51.4657 49.138 52.1573 49.0201 52.9374 49.0201C53.8107 49.0201 54.6188 49.1527 55.3618 49.4181C56.1058 49.6834 56.7342 50.0519 57.2469 50.5237L56.5071 51.9091Z" fill="#214DA9"/>
<path d="M58.6074 63.4365V53.306H60.3072C60.6539 53.306 60.8839 53.4632 60.997 53.7775L61.1571 54.436C61.3372 54.2523 61.5222 54.082 61.712 53.9248C61.9023 53.7677 62.1073 53.6319 62.3271 53.5174C62.547 53.4026 62.7853 53.3125 63.0422 53.247C63.2987 53.1815 63.5771 53.1487 63.8774 53.1487C64.5103 53.1487 65.0335 53.3141 65.4469 53.645C65.86 53.9758 66.1732 54.4164 66.3867 54.9669C66.5533 54.6457 66.7583 54.3688 67.0017 54.1362C67.2451 53.904 67.5119 53.7156 67.8021 53.571C68.092 53.4271 68.3985 53.3208 68.7217 53.252C69.0449 53.1831 69.3698 53.1487 69.6963 53.1487C70.2767 53.1487 70.7901 53.2339 71.2365 53.4043C71.6833 53.5743 72.0583 53.8249 72.3616 54.1561C72.6646 54.4869 72.8962 54.8913 73.0565 55.3694C73.2164 55.8477 73.2963 56.3914 73.2963 57.0005V63.4365H70.5366V57.0005C70.5366 55.8148 70.02 55.222 68.9868 55.222C68.7535 55.222 68.5384 55.2597 68.3415 55.3351C68.1452 55.4105 67.972 55.5235 67.8218 55.674C67.672 55.8249 67.5554 56.0115 67.4719 56.2338C67.3884 56.4568 67.3466 56.7123 67.3466 57.0005V63.4365H64.5869V57.0005C64.5869 56.3583 64.4586 55.9015 64.2021 55.6299C63.9449 55.3583 63.5667 55.2223 63.0674 55.222C62.7469 55.222 62.4453 55.2958 62.1625 55.4433C61.879 55.5905 61.6139 55.7951 61.3671 56.0571V63.4365H58.6074Z" fill="#214DA9"/>
<path d="M80.3656 59.1997C79.6923 59.2328 79.1323 59.2902 78.6856 59.3719C78.2392 59.4536 77.8842 59.56 77.6206 59.691C77.3573 59.8223 77.1708 59.9713 77.061 60.1381C76.9509 60.3051 76.8959 60.4869 76.8959 60.6834C76.8959 61.0764 77.0075 61.3548 77.2307 61.5186C77.4542 61.6823 77.766 61.7642 78.1659 61.7642C78.6258 61.7642 79.0241 61.684 79.3607 61.5235C79.6974 61.3627 80.0323 61.1121 80.3656 60.7717V59.1997ZM74.7462 54.7088C75.3525 54.1719 76.0225 53.7708 76.756 53.5055C77.4893 53.2402 78.2824 53.1075 79.1355 53.1075C79.7492 53.1075 80.2976 53.2058 80.7807 53.4023C81.2642 53.5988 81.674 53.8724 82.0104 54.223C82.347 54.5737 82.6054 54.9912 82.7855 55.4755C82.9653 55.9605 83.0553 56.4911 83.0557 57.0674V63.4345H81.7957C81.5358 63.4345 81.3374 63.3984 81.2004 63.3263C81.064 63.2545 80.9524 63.1038 80.8656 62.8743L80.6459 62.2262C80.3857 62.4488 80.134 62.6453 79.891 62.8157C79.6479 62.9857 79.3961 63.1282 79.1355 63.2429C78.8759 63.3574 78.5977 63.4443 78.3008 63.5035C78.0045 63.5624 77.6729 63.5918 77.3059 63.5918C76.8528 63.5918 76.4394 63.5327 76.0657 63.4146C75.6924 63.2969 75.3709 63.1219 75.1012 62.8896C74.8309 62.6571 74.6225 62.3671 74.476 62.0197C74.3293 61.6724 74.2559 61.2728 74.2559 60.8209C74.2559 60.4474 74.3526 60.074 74.5462 59.7009C74.7391 59.3271 75.0707 58.988 75.541 58.6836C76.0107 58.3793 76.6372 58.1272 77.4206 57.9274C78.2043 57.7275 79.186 57.6144 80.3656 57.5879V57.0674C80.3656 56.4322 80.229 55.9654 79.9556 55.667C79.6822 55.369 79.289 55.2199 78.776 55.2199C78.3955 55.2199 78.0789 55.2643 77.8261 55.3529C77.5726 55.4413 77.3509 55.5362 77.161 55.6378L76.6257 55.9226C76.4591 56.0109 76.2659 56.0551 76.046 56.0551C75.8528 56.0551 75.691 56.0076 75.5607 55.9127C75.4308 55.8181 75.3225 55.7051 75.236 55.5738L74.7462 54.7088Z" fill="#214DA9"/>
<path d="M87.3044 54.9763C87.6309 54.4001 88.0075 53.9447 88.434 53.6102C88.8606 53.2761 89.3607 53.109 89.9343 53.109C90.4009 53.109 90.7807 53.2172 91.0736 53.4336L90.8943 55.4383C90.8606 55.569 90.809 55.659 90.7393 55.7083C90.6696 55.7576 90.5747 55.7822 90.4545 55.7822C90.3474 55.7822 90.1942 55.7673 89.9949 55.7376C89.7943 55.7081 89.6074 55.6934 89.4344 55.6934C89.1809 55.6937 88.9558 55.7298 88.7592 55.8016C88.563 55.8737 88.3881 55.9753 88.2346 56.1063C88.0811 56.2373 87.9427 56.3977 87.8195 56.5876C87.6959 56.7778 87.581 56.994 87.4746 57.2362V63.4365H84.7148V53.306H86.3449C86.6243 53.306 86.8176 53.3552 86.9246 53.4534C87.031 53.5517 87.1076 53.7219 87.1544 53.964L87.3044 54.9763Z" fill="#214DA9"/>
<path d="M95.3145 63.5918C94.8479 63.5918 94.4346 63.5248 94.0747 63.3908C93.7145 63.2562 93.411 63.0646 93.1642 62.8162C92.9178 62.5671 92.7311 62.2655 92.6042 61.9116C92.478 61.5579 92.4149 61.1583 92.4149 60.7127V55.2497H91.4443C91.2975 55.2497 91.1726 55.2039 91.0696 55.1123C90.9662 55.021 90.9146 54.8833 90.9146 54.6994V53.638L92.5648 53.3437L93.1238 50.7202C93.1979 50.4254 93.4014 50.278 93.7344 50.278H95.1746V53.3636H97.8343V55.2497H95.1746V60.536C95.1742 60.8176 95.2426 61.0402 95.3796 61.204C95.5156 61.368 95.7105 61.4501 95.9644 61.4501C96.0977 61.4501 96.2108 61.4354 96.3037 61.4059C96.3973 61.3765 96.4776 61.3436 96.5446 61.3072C96.6106 61.2714 96.672 61.2387 96.7289 61.2089C96.7858 61.1798 96.8442 61.1651 96.9041 61.1647C96.9843 61.1647 97.0508 61.1829 97.1036 61.2193C97.1575 61.2551 97.211 61.3156 97.2642 61.401L98.0939 62.6976C97.7141 62.9927 97.2841 63.2155 96.8036 63.366C96.3243 63.5165 95.8279 63.5918 95.3145 63.5918Z" fill="#214DA9"/>
<path d="M113.433 50.9579H108.793V63.4365H106.863V50.9579H102.214V49.3561H113.433V50.9579Z" fill="#141841"/>
<path d="M114.123 55.4775C114.443 54.7964 114.836 54.2641 115.302 53.8807C115.769 53.4976 116.339 53.306 117.013 53.306C117.226 53.306 117.431 53.329 117.627 53.375C117.824 53.4207 117.999 53.4926 118.152 53.5909L118.023 54.8979C117.982 55.0617 117.882 55.1436 117.722 55.1436C117.629 55.1436 117.492 55.1239 117.312 55.0845C117.132 55.0452 116.929 55.0255 116.702 55.0255C116.382 55.0255 116.097 55.0713 115.847 55.1629C115.597 55.2549 115.374 55.3909 115.177 55.5708C114.981 55.7511 114.804 55.9738 114.647 56.2387C114.491 56.5044 114.349 56.8074 114.222 57.1478V63.4365H112.432V53.4827H113.452C113.645 53.4827 113.779 53.5188 113.853 53.5909C113.926 53.6633 113.976 53.7877 114.003 53.964L114.123 55.4775Z" fill="#141841"/>
<path d="M124.543 58.9541C123.723 58.9805 123.025 59.0444 122.448 59.1456C121.871 59.2472 121.401 59.3797 121.039 59.5431C120.674 59.7075 120.411 59.9009 120.248 60.1232C120.085 60.3465 120.003 60.5954 120.003 60.87C120.003 61.1323 120.046 61.3584 120.133 61.5483C120.22 61.7379 120.338 61.8934 120.488 62.0148C120.638 62.1362 120.814 62.2247 121.018 62.2803C121.222 62.3358 121.44 62.3636 121.672 62.3636C121.986 62.3636 122.273 62.3325 122.533 62.2703C122.793 62.2082 123.038 62.1182 123.269 62.0004C123.498 61.882 123.718 61.741 123.928 61.5776C124.138 61.4139 124.343 61.2271 124.543 61.0174V58.9541ZM118.793 54.886C119.353 54.3554 119.956 53.959 120.603 53.697C121.25 53.435 121.966 53.304 122.752 53.304C123.319 53.304 123.823 53.3958 124.262 53.5794C124.702 53.7627 125.072 54.0181 125.373 54.3456C125.673 54.6731 125.899 55.0694 126.053 55.5346C126.206 55.9997 126.282 56.5106 126.282 57.0674V63.4345H125.492C125.319 63.4345 125.186 63.4067 125.093 63.3511C124.999 63.2952 124.926 63.1854 124.873 63.0216L124.673 62.0788C124.406 62.3213 124.146 62.5358 123.893 62.7224C123.64 62.909 123.373 63.0661 123.093 63.1938C122.813 63.3218 122.514 63.4203 122.198 63.4891C121.881 63.5572 121.53 63.5915 121.143 63.5918C120.749 63.5918 120.379 63.5379 120.033 63.43C119.686 63.3218 119.385 63.1596 119.128 62.9432C118.871 62.7275 118.668 62.4541 118.518 62.123C118.368 61.7921 118.293 61.4008 118.293 60.9489C118.293 60.5559 118.403 60.1774 118.623 59.8135C118.843 59.4503 119.2 59.1277 119.693 58.8459C120.186 58.5644 120.829 58.3334 121.623 58.1531C122.416 57.9729 123.39 57.8698 124.543 57.844V57.0674C124.543 56.2946 124.373 55.7099 124.033 55.3132C123.693 54.9172 123.196 54.7193 122.543 54.7193C122.103 54.7193 121.734 54.7732 121.438 54.881C121.141 54.9895 120.885 55.1106 120.668 55.2443C120.451 55.3792 120.265 55.5006 120.108 55.6085C119.951 55.7167 119.796 55.7706 119.643 55.7703C119.523 55.7703 119.42 55.7392 119.333 55.677C119.246 55.6148 119.173 55.5379 119.113 55.4462L118.793 54.886Z" fill="#141841"/>
<path d="M135.092 55.8505C134.758 55.4115 134.398 55.1051 134.012 54.9314C133.625 54.7581 133.192 54.6713 132.712 54.6709C131.772 54.6709 131.048 55.0017 130.542 55.6634C130.035 56.325 129.782 57.2683 129.782 58.4934C129.782 59.1418 129.838 59.697 129.951 60.1592C130.065 60.621 130.231 61.0008 130.452 61.2985C130.671 61.5966 130.941 61.8144 131.262 61.9521C131.582 62.0897 131.945 62.1585 132.352 62.1585C132.938 62.1585 133.449 62.0275 133.887 61.7655C134.323 61.5035 134.725 61.1335 135.092 60.6554V55.8505ZM136.871 48.9623V63.4358H135.811C135.559 63.4358 135.397 63.3147 135.332 63.0725L135.172 61.8637C134.738 62.3745 134.245 62.7872 133.692 63.1018C133.138 63.4161 132.498 63.5732 131.772 63.5732C131.192 63.5732 130.665 63.4636 130.192 63.2442C129.719 63.0249 129.315 62.7022 128.982 62.2761C128.648 61.8507 128.392 61.3202 128.212 60.6847C128.032 60.0495 127.942 59.3191 127.942 58.4934C127.942 57.7599 128.042 57.077 128.242 56.4444C128.442 55.8126 128.729 55.2641 129.102 54.799C129.475 54.3338 129.934 53.9686 130.477 53.7033C131.02 53.4383 131.631 53.3056 132.311 53.3053C132.932 53.3053 133.464 53.4085 133.906 53.615C134.35 53.8211 134.745 54.1077 135.092 54.4749V48.9623H136.871Z" fill="#141841"/>
<path d="M145.97 57.3729C145.97 56.967 145.912 56.5953 145.795 56.2579C145.678 55.9204 145.508 55.6288 145.286 55.383C145.062 55.1375 144.79 54.9477 144.47 54.8133C144.15 54.679 143.787 54.612 143.38 54.6124C142.527 54.6124 141.852 54.8562 141.355 55.3438C140.859 55.8321 140.551 56.5085 140.43 57.3729H145.97ZM147.41 62.0404C147.19 62.3027 146.927 62.5303 146.62 62.7232C146.313 62.9167 145.985 63.0755 145.635 63.1996C145.286 63.3243 144.924 63.4178 144.549 63.48C144.177 63.5421 143.807 63.5732 143.44 63.5732C142.74 63.5732 142.095 63.457 141.505 63.2244C140.915 62.9918 140.405 62.6511 139.975 62.2022C139.545 61.7539 139.21 61.1988 138.97 60.5368C138.73 59.8752 138.61 59.1153 138.61 58.2572C138.61 57.5631 138.719 56.9147 138.936 56.3119C139.152 55.7092 139.463 55.1867 139.871 54.7444C140.277 54.3027 140.774 53.9555 141.36 53.7028C141.947 53.451 142.607 53.325 143.341 53.3247C143.946 53.3247 144.508 53.4246 145.025 53.6244C145.542 53.8245 145.988 54.1127 146.364 54.4888C146.741 54.8659 147.036 55.3311 147.25 55.8842C147.463 56.438 147.57 57.0685 147.57 57.7758C147.57 58.0507 147.54 58.2342 147.48 58.3261C147.42 58.4178 147.306 58.4636 147.139 58.4636H140.371C140.39 59.0928 140.478 59.6398 140.635 60.1046C140.792 60.5697 141.01 60.958 141.29 61.2693C141.57 61.5802 141.903 61.8128 142.29 61.967C142.677 62.1205 143.11 62.1974 143.59 62.1977C144.037 62.1977 144.422 62.1469 144.745 62.0454C145.068 61.9435 145.347 61.8338 145.581 61.7164C145.813 61.5983 146.008 61.4884 146.165 61.3869C146.321 61.2856 146.456 61.2349 146.569 61.2345C146.716 61.2345 146.83 61.2903 146.91 61.4018L147.41 62.0404Z" fill="#141841"/>
<path d="M150.94 55.4775C151.26 54.7964 151.654 54.2641 152.12 53.8807C152.586 53.4976 153.157 53.306 153.83 53.306C154.043 53.306 154.248 53.329 154.445 53.375C154.642 53.4207 154.816 53.4926 154.97 53.5909L154.84 54.8979C154.8 55.0617 154.7 55.1436 154.54 55.1436C154.447 55.1436 154.31 55.1239 154.13 55.0845C153.95 55.0452 153.747 55.0255 153.52 55.0255C153.2 55.0255 152.915 55.0713 152.665 55.1629C152.415 55.2549 152.192 55.3909 151.996 55.5708C151.799 55.7511 151.622 55.9738 151.465 56.2387C151.308 56.5044 151.167 56.8074 151.04 57.1478V63.4365H149.25V53.4827H150.271C150.464 53.4827 150.597 53.5188 150.67 53.5909C150.743 53.6633 150.793 53.7877 150.82 53.964L150.94 55.4775Z" fill="#141841"/>
<path d="M70.3428 7.10608H76.3667V24.8005H74.3039V35.2699H76.3667V46.9229H70.3428V7.10608Z" fill="#214DA9"/>
<path d="M77.4727 7.10608H84.0829V30.0313H82.0195V40.5081H84.0829V46.9229H77.4727V35.2699H79.5355V24.8005H77.4727V7.10608Z" fill="#141841"/>
<path d="M86.0795 7.10608C88.2252 7.10608 90.2385 7.33335 92.1201 7.80327V22.6921H90.0653V33.1694H92.1201V46.2252C90.2385 46.6956 88.2252 46.9229 86.0795 46.9229H85.1968V40.5081H87.2515V30.0313H85.1968V7.10608H86.0795Z" fill="#214DA9"/>
<path d="M94.6872 8.60701C96.6677 9.37716 98.4337 10.3666 99.9688 11.5749V16.5377H97.914V27.0151H99.9688V42.4636C98.4337 43.6878 96.6677 44.6773 94.6872 45.4315C94.2165 45.6176 93.7297 45.7799 93.2349 45.9258V33.1703H95.2977V22.6929H93.2349V8.11227C93.7297 8.25816 94.2165 8.42043 94.6872 8.60701Z" fill="#141841"/>
<path d="M107.107 26.9968C107.107 29.8754 106.603 32.5352 105.588 34.9603C104.582 37.3928 103.154 39.5013 101.322 41.2773C101.248 41.3502 101.165 41.4316 101.083 41.4961V27.0132H103.146V16.5359H101.083V12.5378C101.165 12.6028 101.248 12.6837 101.322 12.7571C103.154 14.5247 104.582 16.6252 105.588 19.0577C106.603 21.4907 107.107 24.1341 107.107 26.9968Z" fill="#214DA9"/>
</svg>
