<svg width="32" height="32" viewBox="0 0 32 32" fill="none" xmlns="http://www.w3.org/2000/svg">
<path d="M21.3333 7.99935V6.93268C21.3333 5.43921 21.3333 4.69247 21.0427 4.12204C20.787 3.62028 20.3791 3.21233 19.8773 2.95666C19.3069 2.66602 18.5601 2.66602 17.0667 2.66602H14.9333C13.4399 2.66602 12.6931 2.66602 12.1227 2.95666C11.6209 3.21233 11.213 3.62028 10.9573 4.12204C10.6667 4.69247 10.6667 5.43921 10.6667 6.93268V7.99935M13.3333 15.3327V21.9993M18.6667 15.3327V21.9993M4 7.99935H28M25.3333 7.99935V22.9327C25.3333 25.1729 25.3333 26.293 24.8974 27.1486C24.5139 27.9013 23.9019 28.5132 23.1493 28.8967C22.2936 29.3327 21.1735 29.3327 18.9333 29.3327H13.0667C10.8265 29.3327 9.70635 29.3327 8.8507 28.8967C8.09806 28.5132 7.48613 27.9013 7.10264 27.1486C6.66667 26.293 6.66667 25.1729 6.66667 22.9327V7.99935" stroke="#990000" stroke-width="1.5" stroke-linecap="round" stroke-linejoin="round"/>
</svg>
