        <svg width="25" height="24" viewBox="0 0 25 24" fill="none" xmlns="http://www.w3.org/2000/svg">
          <path d="M4.116 19.77C3.668 19.77 3.28667 19.6123 2.972 19.297C2.65733 18.9823 2.5 18.6013 2.5 18.154V7.077H3.5V18.154C3.5 18.3333 3.55767 18.4807 3.673 18.596C3.78833 18.7113 3.936 18.769 4.116 18.769H19.5V19.769L4.116 19.77ZM7.116 16.77C6.668 16.77 6.28667 16.6123 5.972 16.297C5.65733 15.9823 5.5 15.6013 5.5 15.154V4.616C5.5 4.168 5.65733 3.78667 5.972 3.472C6.28667 3.15733 6.668 3 7.116 3H12.077L14.077 5H20.885C21.3317 5 21.7127 5.15733 22.028 5.472C22.3427 5.78667 22.5 6.168 22.5 6.616V15.154C22.5 15.6013 22.3427 15.9823 22.028 16.297C21.7133 16.6117 21.332 16.769 20.884 16.769L7.116 16.77ZM9.96 13H18.653L15.895 9.346L13.441 12.423L11.853 10.539L9.96 13Z" fill="#A3A9B6"/>
          </svg>