<svg width="80" height="73" viewBox="0 0 80 73" fill="none" xmlns="http://www.w3.org/2000/svg">
<g clip-path="url(#clip0_1_30176)">
<path d="M31.8745 32.1034C27.6247 32.1034 23.5492 30.4153 20.5449 27.4101C17.5397 24.4058 15.8516 20.3302 15.8516 16.0805C15.8516 11.8308 17.5397 7.75524 20.5449 4.75095C23.5492 1.74574 27.6247 0.0576172 31.8745 0.0576172C36.1242 0.0576172 40.1997 1.74574 43.204 4.75095C46.2092 7.75524 47.8973 11.8308 47.8973 16.0805C47.8973 20.3302 46.2092 24.4058 43.204 27.4101C40.1997 30.4153 36.1242 32.1034 31.8745 32.1034ZM31.8745 8.06906C29.75 8.06906 27.7122 8.91313 26.2092 10.4153C24.7071 11.9183 23.863 13.9561 23.863 16.0805C23.863 18.2049 24.7071 20.2428 26.2092 21.7457C27.7123 23.2479 29.75 24.092 31.8745 24.092C33.9989 24.092 36.0367 23.2479 37.5397 21.7457C39.0418 20.2427 39.8859 18.2049 39.8859 16.0805C39.8859 13.9561 39.0418 11.9182 37.5397 10.4153C36.0366 8.91313 33.9989 8.06906 31.8745 8.06906Z" fill="#DD3636"/>
<path d="M55.5494 72.1602H8.2018C5.82606 72.1736 3.56569 71.132 2.03321 69.3159C0.542694 67.5518 -0.114496 65.2306 0.230637 62.9471C1.84634 52.8263 8.20546 44.0888 17.339 39.4392C26.4725 34.7898 37.279 34.7898 46.4136 39.4392C55.5471 44.0886 61.9064 52.8261 63.522 62.9471C63.8671 65.2307 63.2099 67.5518 61.7194 69.3159C60.1869 71.1319 57.9265 72.1735 55.5508 72.1602H55.5494ZM31.8745 44.1202C26.1923 44.1166 20.6916 46.1266 16.3506 49.7925C12.0095 53.4595 9.10801 58.546 8.16037 64.1488H55.5492C54.6488 58.5318 51.7662 53.4228 47.4233 49.7488C43.0795 46.0738 37.5637 44.0774 31.8752 44.1202H31.8745Z" fill="#DD3636"/>
<path d="M78.783 17.2414C78.031 16.4831 77.0073 16.0566 75.9387 16.0566C74.8702 16.0566 73.8465 16.4831 73.0944 17.2414L63.9216 26.4545L62.7601 25.2528C61.7435 24.2371 60.2628 23.8401 58.875 24.212C57.4864 24.584 56.4027 25.6677 56.0307 27.0563C55.6587 28.444 56.0557 29.9247 57.0715 30.9414L61.0772 34.9471C61.8292 35.7054 62.853 36.1319 63.9215 36.1319C64.99 36.1319 66.0138 35.7054 66.7658 34.9471L78.783 22.93C79.5412 22.178 79.9677 21.1542 79.9677 20.0857C79.9677 19.0171 79.5412 17.9934 78.783 17.2414Z" fill="#323740"/>
</g>
<defs>
<clipPath id="clip0_1_30176">
<rect width="80" height="72.2747" fill="white"/>
</clipPath>
</defs>
</svg>
