<svg width="91" height="30" viewBox="0 0 91 30" fill="none" xmlns="http://www.w3.org/2000/svg">
<g clip-path="url(#clip0_752_3065)">
<path d="M59.2905 0C52.8376 0 47.0438 3.42353 47.0438 9.70588C47.0438 16.9412 57.2783 17.4353 57.2783 21.0353C57.2783 22.5529 55.5437 23.9294 52.6294 23.9294C48.4663 23.9294 45.3439 22.0235 45.3439 22.0235L44.0255 28.3765C44.0255 28.3765 47.5989 30 52.3866 30C59.464 30 65.0149 26.4353 65.0149 20.0118C65.0149 12.3882 54.7457 11.8941 54.7457 8.54118C54.7457 7.34118 56.1681 6.03529 59.0824 6.03529C62.3782 6.03529 65.0843 7.41177 65.0843 7.41177L66.4026 1.27059C66.3679 1.27059 63.419 0 59.2905 0ZM0.173466 0.458824L0 1.37647C0 1.37647 2.70606 1.87059 5.16927 2.89412C8.32634 4.05882 8.5345 4.72941 9.08959 6.81176L14.8833 29.5059H22.6546L34.5543 0.458824H26.8178L19.1506 20.2235L16.0282 3.45882C15.7507 1.55294 14.2936 0.458824 12.4895 0.458824H0.173466ZM37.6767 0.458824L31.6054 29.5059H38.995L45.0316 0.458824H37.6767ZM78.8227 0.458824C77.0534 0.458824 76.1167 1.41176 75.4228 3.10588L64.5986 29.5059H72.3351L73.8269 25.0941H83.2634L84.1655 29.5059H91L85.0675 0.458824H78.8227ZM79.8288 8.32941L82.1186 19.2353H75.9779L79.8288 8.32941Z" fill="#1434CB"/>
</g>
<defs>
<clipPath id="clip0_752_3065">
<rect width="91" height="30" fill="white"/>
</clipPath>
</defs>
</svg>
