<svg width="38" height="24" viewBox="0 0 38 24" fill="none" xmlns="http://www.w3.org/2000/svg">
<g clip-path="url(#clip0_314_3171)">
<path d="M1.91999 0H35.5197C36.5802 0 37.4397 0.859632 37.4397 1.92V22.08C37.4397 23.1404 36.5802 24 35.5197 24H1.91999C0.859626 24 0 23.1404 0 22.08V1.92C0 0.859632 0.859626 0 1.91999 0Z" fill="#0E4595"/>
<path d="M14.0762 16.7399L15.6775 7.34346H18.2387L16.6363 16.7399H14.0762ZM25.8894 7.54602C25.382 7.35566 24.5868 7.15137 23.5939 7.15137C21.0631 7.15137 19.2804 8.42577 19.2653 10.2523C19.251 11.6026 20.538 12.3558 21.5094 12.8052C22.5064 13.2658 22.8415 13.5595 22.8368 13.9708C22.8305 14.6006 22.0406 14.8884 21.3045 14.8884C20.2794 14.8884 19.7348 14.746 18.8936 14.3951L18.5636 14.2459L18.2041 16.3494C18.8024 16.6116 19.9086 16.8389 21.0571 16.8506C23.7494 16.8506 25.4971 15.5908 25.5171 13.6403C25.5266 12.5714 24.8443 11.7579 23.3666 11.0873C22.4714 10.6526 21.9232 10.3625 21.929 9.92241C21.929 9.53183 22.3931 9.11413 23.3957 9.11413C24.2333 9.10117 24.84 9.28381 25.3127 9.47413L25.5422 9.58262L25.8894 7.54602ZM32.4802 7.34332H30.5011C29.888 7.34332 29.4291 7.5107 29.1599 8.12255L25.3562 16.7338H28.0457C28.0457 16.7338 28.4854 15.5758 28.5848 15.3217C28.8788 15.3217 31.4914 15.3257 31.865 15.3257C31.9416 15.6547 32.1765 16.7338 32.1765 16.7338H34.5532L32.4802 7.34303V7.34332ZM29.3401 13.411C29.5519 12.8696 30.3606 10.7843 30.3606 10.7843C30.3454 10.8094 30.5708 10.2403 30.7002 9.88746L30.8732 10.6977C30.8732 10.6977 31.3637 12.9406 31.4662 13.411H29.3401ZM11.9019 7.34332L9.39437 13.7513L9.12716 12.4491C8.66036 10.948 7.20597 9.32164 5.58008 8.50741L7.87283 16.725L10.5827 16.7219L14.6149 7.34322H11.9019" fill="white"/>
<path d="M7.05227 7.34297H2.92234L2.88965 7.53847C6.10265 8.31626 8.22865 10.1959 9.11136 12.4541L8.21329 8.13607C8.05825 7.54111 7.60864 7.36356 7.05237 7.34277" fill="#F2AE14"/>
</g>
<defs>
<clipPath id="clip0_314_3171">
<rect width="37.4397" height="24" fill="white"/>
</clipPath>
</defs>
</svg>
