<svg width="223" height="112" viewBox="0 0 223 112" fill="none" xmlns="http://www.w3.org/2000/svg">
<path d="M22.0522 104.583H20.0632L19.3189 110.594H18.4418L19.1767 104.583H17.1792L17.2623 103.844H22.1421L22.0522 104.583Z" fill="white"/>
<path d="M25.7238 107.151C25.8495 106.884 25.9857 106.652 26.1324 106.456C26.2775 106.26 26.4308 106.106 26.5924 105.994C26.7511 105.883 26.9162 105.815 27.0875 105.792C27.2565 105.769 27.4287 105.795 27.604 105.87L27.4541 106.674C27.0458 106.511 26.6855 106.571 26.3731 106.854C26.0602 107.137 25.8063 107.647 25.6116 108.385L25.3478 110.594H24.5264L25.1011 105.817H25.5165C25.7084 105.817 25.8044 105.912 25.8044 106.1L25.7238 107.151Z" fill="white"/>
<path d="M34.0672 106.406C33.9987 106.39 33.9307 106.38 33.8633 106.376C33.7954 106.371 33.7283 106.368 33.662 106.368C33.4736 106.368 33.2914 106.399 33.1156 106.46C32.9391 106.522 32.7741 106.607 32.6205 106.717C32.4663 106.827 32.3267 106.958 32.2016 107.11C32.076 107.263 31.9683 107.43 31.8787 107.612C31.789 107.795 31.7188 107.989 31.668 108.194C31.6177 108.4 31.5926 108.611 31.5926 108.828C31.5932 109.584 31.8353 109.963 32.319 109.963C32.4726 109.963 32.6236 109.915 32.7721 109.819C32.9194 109.723 33.0599 109.59 33.1935 109.419C33.3271 109.247 33.4505 109.045 33.5635 108.811C33.6777 108.577 33.7783 108.32 33.8651 108.041L34.0672 106.406ZM33.7477 109.336C33.6341 109.537 33.5119 109.72 33.3811 109.883C33.252 110.046 33.1144 110.185 32.9682 110.3C32.8209 110.414 32.6664 110.502 32.5048 110.565C32.3438 110.628 32.1765 110.66 32.0029 110.66C31.8145 110.66 31.6431 110.623 31.489 110.549C31.3359 110.475 31.2049 110.367 31.0958 110.224C30.9873 110.082 30.9031 109.906 30.8431 109.696C30.7837 109.488 30.7543 109.249 30.7549 108.978C30.7549 108.696 30.79 108.42 30.8602 108.151C30.9305 107.883 31.0307 107.629 31.1609 107.39C31.2922 107.151 31.449 106.932 31.6311 106.734C31.8127 106.534 32.0163 106.361 32.2419 106.215C32.4663 106.069 32.7073 105.956 32.9648 105.876C33.2229 105.796 33.4933 105.755 33.776 105.755C33.9804 105.755 34.1788 105.772 34.3713 105.806C34.5654 105.839 34.7567 105.896 34.9452 105.977L34.3747 110.594H33.9404C33.8314 110.594 33.7571 110.566 33.7177 110.51C33.6777 110.452 33.6575 110.383 33.6569 110.302L33.7477 109.336Z" fill="white"/>
<path d="M42.2849 106.863C42.1644 106.694 42.0205 106.575 41.8532 106.507C41.6847 106.44 41.514 106.406 41.341 106.406C41.0932 106.406 40.8702 106.48 40.672 106.628C40.4744 106.775 40.3054 106.966 40.1649 107.2C40.0245 107.434 39.9168 107.696 39.842 107.984C39.7672 108.273 39.7295 108.557 39.7289 108.837C39.7289 109.21 39.7958 109.495 39.9294 109.692C40.063 109.888 40.2543 109.986 40.5033 109.986C40.654 109.986 40.8062 109.939 40.9598 109.844C41.114 109.75 41.2625 109.619 41.4052 109.451C41.548 109.283 41.6816 109.085 41.8061 108.856C41.93 108.627 42.0376 108.376 42.129 108.102L42.2849 106.863ZM43.5012 103.655L42.6481 110.593H42.2095C42.0993 110.593 42.0251 110.565 41.9868 110.51C41.9497 110.452 41.9309 110.383 41.9303 110.302L42.0202 109.298C41.9009 109.505 41.7704 109.692 41.6288 109.859C41.4872 110.025 41.339 110.168 41.1842 110.288C41.0289 110.408 40.8664 110.499 40.6968 110.563C40.5295 110.627 40.3597 110.66 40.1872 110.66C39.7783 110.66 39.4608 110.512 39.2347 110.214C39.008 109.917 38.8949 109.486 38.8955 108.921C38.8955 108.664 38.9223 108.407 38.976 108.149C39.0291 107.891 39.1048 107.644 39.203 107.409C39.3029 107.174 39.4223 106.954 39.5611 106.752C39.701 106.55 39.8577 106.375 40.0313 106.227C40.2032 106.079 40.3893 105.963 40.5898 105.879C40.7891 105.794 40.9989 105.751 41.2193 105.751C41.4552 105.751 41.6693 105.797 41.8618 105.89C42.0553 105.983 42.2198 106.114 42.3551 106.284L42.6798 103.655H43.5012Z" fill="white"/>
<path d="M49.6289 106.36C49.4302 106.36 49.2477 106.401 49.0816 106.482C48.9148 106.563 48.7672 106.675 48.6387 106.819C48.5091 106.961 48.3992 107.129 48.309 107.323C48.2176 107.516 48.1468 107.724 48.0965 107.947C48.5802 107.887 48.9682 107.819 49.2606 107.742C49.5535 107.665 49.7782 107.582 49.9347 107.492C50.0923 107.403 50.1962 107.306 50.2465 107.203C50.2967 107.099 50.3219 106.991 50.3219 106.878C50.3219 106.822 50.309 106.763 50.2833 106.7C50.2576 106.639 50.2174 106.584 50.1626 106.534C50.1089 106.483 50.0375 106.442 49.9484 106.409C49.861 106.376 49.7545 106.36 49.6289 106.36ZM50.9574 109.713C50.797 109.88 50.6397 110.022 50.4855 110.14C50.3319 110.258 50.1757 110.356 50.0169 110.434C49.8588 110.513 49.692 110.57 49.5167 110.606C49.3425 110.642 49.1552 110.66 48.9548 110.66C48.6807 110.66 48.4354 110.615 48.219 110.523C48.0032 110.433 47.819 110.304 47.6665 110.135C47.5158 109.968 47.3999 109.764 47.3188 109.525C47.2366 109.286 47.1957 109.019 47.1963 108.725C47.1963 108.479 47.222 108.235 47.2734 107.991C47.3248 107.748 47.4002 107.517 47.4995 107.297C47.5994 107.077 47.7202 106.873 47.8618 106.685C48.0063 106.497 48.1699 106.334 48.3526 106.197C48.5365 106.06 48.7395 105.953 48.9617 105.874C49.1832 105.796 49.4213 105.756 49.676 105.756C49.917 105.756 50.126 105.791 50.303 105.86C50.4783 105.929 50.6228 106.017 50.7364 106.124C50.8489 106.231 50.9332 106.349 50.9891 106.478C51.0434 106.606 51.0708 106.728 51.0714 106.844C51.0708 107.052 51.0282 107.243 50.9437 107.417C50.8586 107.591 50.703 107.748 50.4769 107.888C50.2513 108.028 49.9401 108.15 49.5433 108.253C49.1475 108.357 48.6385 108.44 48.016 108.503L48.0143 108.604C48.0126 108.637 48.0115 108.67 48.0109 108.705C48.0109 109.126 48.1031 109.448 48.2875 109.669C48.4714 109.89 48.7484 110.001 49.1184 110.001C49.2697 110.001 49.4042 109.985 49.5218 109.954C49.6412 109.922 49.7466 109.884 49.8379 109.838C49.9304 109.793 50.0124 109.743 50.0837 109.688L50.2765 109.537C50.3347 109.491 50.3887 109.452 50.4384 109.422C50.4886 109.39 50.5389 109.374 50.5891 109.374C50.6491 109.374 50.7028 109.4 50.7502 109.454L50.9574 109.713Z" fill="white"/>
<path d="M63.5955 106.586C63.5704 106.624 63.5453 106.651 63.5201 106.669C63.4956 106.686 63.4645 106.695 63.4268 106.695C63.3828 106.695 63.3348 106.677 63.2829 106.643C63.2303 106.608 63.1672 106.57 63.0936 106.528C63.0199 106.485 62.9297 106.446 62.8229 106.41C62.7155 106.373 62.5865 106.355 62.4357 106.355C62.2953 106.355 62.1665 106.375 62.0494 106.415C61.9341 106.454 61.8344 106.508 61.7505 106.577C61.6677 106.646 61.6034 106.726 61.5578 106.819C61.5121 106.912 61.4892 107.01 61.4892 107.113C61.4892 107.262 61.5378 107.38 61.6348 107.467C61.7319 107.555 61.8547 107.632 62.0032 107.695C62.1505 107.76 62.3092 107.822 62.4794 107.882C62.649 107.941 62.8075 108.017 62.9548 108.108C63.1033 108.199 63.226 108.316 63.3231 108.457C63.4202 108.598 63.4687 108.782 63.4687 109.008C63.4693 109.228 63.4262 109.438 63.3394 109.638C63.2526 109.84 63.1284 110.017 62.9668 110.169C62.8058 110.321 62.611 110.443 62.3826 110.534C62.1548 110.625 61.8992 110.67 61.616 110.67C61.3122 110.67 61.043 110.616 60.8083 110.508C60.5741 110.4 60.3828 110.261 60.2344 110.091L60.4417 109.771C60.4714 109.73 60.5022 109.698 60.5342 109.676C60.5679 109.654 60.6113 109.644 60.6644 109.644C60.7146 109.644 60.7649 109.666 60.8151 109.71C60.8654 109.753 60.9285 109.803 61.0044 109.858C61.0792 109.913 61.174 109.963 61.2888 110.007C61.4036 110.05 61.5489 110.072 61.7248 110.072C61.879 110.072 62.018 110.048 62.1419 110.001C62.2653 109.954 62.3706 109.892 62.458 109.814C62.5448 109.735 62.6105 109.643 62.655 109.537C62.7013 109.432 62.7241 109.32 62.7235 109.201C62.7235 109.041 62.6753 108.913 62.5788 108.818C62.4811 108.725 62.3584 108.647 62.2105 108.584C62.0631 108.521 61.9041 108.462 61.7334 108.407C61.5643 108.352 61.4059 108.281 61.258 108.195C61.1106 108.108 60.9881 107.996 60.8905 107.858C60.7934 107.72 60.7449 107.536 60.7449 107.307C60.7449 107.106 60.7849 106.912 60.8648 106.726C60.9447 106.538 61.0604 106.373 61.2117 106.228C61.3619 106.083 61.5446 105.968 61.7599 105.883C61.9758 105.796 62.2184 105.752 62.488 105.752C62.7741 105.752 63.0268 105.8 63.246 105.896C63.463 105.992 63.6503 106.122 63.8079 106.285L63.5955 106.586Z" fill="white"/>
<path d="M67.5884 110.594L68.164 105.817H68.5786C68.7699 105.817 68.8658 105.912 68.8664 106.1L68.7996 106.947C69.0354 106.555 69.2941 106.258 69.5756 106.055C69.8565 105.853 70.1512 105.752 70.4596 105.752C70.7828 105.752 71.0212 105.862 71.1748 106.083C71.329 106.304 71.4061 106.621 71.4061 107.033C71.6413 106.595 71.908 106.273 72.2061 106.065C72.503 105.856 72.8162 105.752 73.1457 105.752C73.5546 105.752 73.8441 105.908 74.0143 106.222C74.1833 106.536 74.2335 106.98 74.165 107.555L73.807 110.594H72.977L73.3402 107.555C73.3841 107.182 73.3719 106.904 73.3033 106.722C73.2359 106.54 73.0849 106.448 72.8502 106.448C72.7132 106.448 72.5787 106.482 72.4468 106.549C72.3126 106.617 72.1827 106.716 72.057 106.846C71.9314 106.976 71.8143 107.138 71.7058 107.331C71.5974 107.525 71.5008 107.747 71.4163 107.998V108.004L71.1097 110.594H70.2805L70.6386 107.555C70.6843 107.182 70.678 106.904 70.6197 106.722C70.5598 106.54 70.4119 106.448 70.176 106.448C70.0259 106.448 69.8805 106.486 69.7401 106.561C69.6007 106.637 69.4691 106.746 69.3452 106.889C69.2195 107.032 69.1036 107.206 68.9974 107.411C68.8906 107.617 68.7936 107.849 68.7062 108.107L68.4081 110.594H67.5884Z" fill="white"/>
<path d="M81.5775 106.406C81.5089 106.39 81.441 106.38 81.3736 106.376C81.3056 106.371 81.2385 106.368 81.1723 106.368C80.9839 106.368 80.8017 106.399 80.6258 106.46C80.4494 106.522 80.2843 106.607 80.1307 106.717C79.9765 106.827 79.8369 106.958 79.7119 107.11C79.5862 107.263 79.4786 107.43 79.3889 107.612C79.2993 107.795 79.2291 107.989 79.1782 108.194C79.128 108.4 79.1029 108.611 79.1029 108.828C79.1034 109.584 79.3455 109.963 79.8292 109.963C79.9828 109.963 80.1339 109.915 80.2823 109.819C80.4297 109.723 80.5701 109.59 80.7038 109.419C80.8374 109.247 80.9607 109.045 81.0738 108.811C81.188 108.577 81.2885 108.32 81.3753 108.041L81.5775 106.406ZM81.258 109.336C81.1443 109.537 81.0221 109.72 80.8913 109.883C80.7623 110.046 80.6247 110.185 80.4785 110.3C80.3312 110.414 80.1767 110.502 80.0151 110.565C79.8541 110.628 79.6867 110.66 79.5131 110.66C79.3247 110.66 79.1534 110.623 78.9992 110.549C78.8462 110.475 78.7151 110.367 78.6061 110.224C78.4976 110.082 78.4133 109.906 78.3534 109.696C78.294 109.488 78.2646 109.249 78.2651 108.978C78.2651 108.696 78.3003 108.42 78.3705 108.151C78.4407 107.883 78.541 107.629 78.6712 107.39C78.8025 107.151 78.9592 106.932 79.1414 106.734C79.323 106.534 79.5266 106.361 79.7521 106.215C79.9765 106.069 80.2175 105.956 80.4751 105.876C80.7332 105.796 81.0036 105.755 81.2862 105.755C81.4907 105.755 81.6891 105.772 81.8815 105.806C82.0757 105.839 82.267 105.896 82.4554 105.977L81.885 110.594H81.4507C81.3416 110.594 81.2674 110.566 81.228 110.51C81.188 110.452 81.1677 110.383 81.1672 110.302L81.258 109.336Z" fill="white"/>
<path d="M87.6223 107.151C87.7479 106.884 87.8835 106.652 88.0291 106.456C88.1753 106.26 88.3286 106.106 88.4891 105.994C88.6501 105.883 88.8152 105.815 88.9842 105.792C89.1538 105.769 89.3265 105.795 89.5024 105.87L89.3525 106.674C88.9437 106.511 88.5828 106.571 88.2698 106.854C87.958 107.137 87.7042 107.647 87.5083 108.385L87.2445 110.594H86.4248L86.9996 105.817H87.415C87.6063 105.817 87.7022 105.912 87.7028 106.1L87.6223 107.151Z" fill="white"/>
<path d="M93.3253 109.695V109.621C93.3253 109.592 93.3281 109.549 93.3338 109.492C93.3373 109.435 93.345 109.361 93.357 109.27L93.4006 108.913L93.6936 106.524H93.1617C93.1166 106.524 93.0809 106.509 93.0546 106.479C93.0278 106.449 93.0175 106.403 93.0238 106.34L93.0623 106.006L93.7972 105.907L94.1553 104.433C94.1713 104.387 94.1958 104.348 94.2289 104.318C94.2626 104.288 94.3043 104.272 94.354 104.272H94.7926L94.5904 105.917H95.8427L95.7725 106.524H94.5133L94.2272 108.87C94.2112 109 94.1984 109.104 94.1887 109.181C94.1784 109.259 94.171 109.322 94.1664 109.37C94.1636 109.417 94.161 109.45 94.1587 109.468L94.1553 109.511C94.1553 109.671 94.1932 109.789 94.2692 109.866C94.344 109.943 94.4442 109.982 94.5698 109.982C94.6555 109.982 94.7286 109.97 94.7891 109.947C94.8502 109.923 94.9048 109.897 94.9527 109.869C94.9996 109.84 95.0387 109.814 95.0701 109.791C95.1015 109.768 95.1283 109.756 95.1506 109.756C95.1786 109.756 95.1997 109.762 95.214 109.775C95.2271 109.787 95.2405 109.808 95.2542 109.836L95.4333 110.237C95.2791 110.371 95.1041 110.477 94.9082 110.554C94.7106 110.631 94.513 110.67 94.3154 110.67C94.0117 110.67 93.7718 110.587 93.5959 110.42C93.4223 110.253 93.3321 110.012 93.3253 109.695Z" fill="white"/>
<path d="M101.914 106.36C101.717 106.36 101.535 106.401 101.367 106.482C101.201 106.563 101.054 106.675 100.924 106.819C100.795 106.961 100.685 107.129 100.594 107.323C100.503 107.516 100.433 107.724 100.382 107.947C100.866 107.887 101.255 107.819 101.546 107.742C101.839 107.665 102.063 107.582 102.22 107.492C102.377 107.403 102.481 107.306 102.532 107.203C102.582 107.099 102.607 106.991 102.607 106.878C102.607 106.822 102.595 106.763 102.57 106.7C102.544 106.639 102.504 106.584 102.449 106.534C102.394 106.483 102.323 106.442 102.235 106.409C102.146 106.376 102.039 106.36 101.914 106.36ZM103.244 109.713C103.084 109.88 102.927 110.022 102.772 110.14C102.618 110.258 102.462 110.356 102.304 110.434C102.145 110.513 101.978 110.57 101.804 110.606C101.629 110.642 101.441 110.66 101.24 110.66C100.966 110.66 100.721 110.615 100.505 110.523C100.288 110.433 100.104 110.304 99.9534 110.135C99.8021 109.968 99.6856 109.764 99.6039 109.525C99.5228 109.286 99.482 109.019 99.4814 108.725C99.4814 108.479 99.5077 108.235 99.5602 107.991C99.6116 107.748 99.687 107.517 99.7864 107.297C99.8846 107.077 100.005 106.873 100.149 106.685C100.291 106.497 100.455 106.334 100.64 106.197C100.823 106.06 101.026 105.953 101.247 105.874C101.469 105.796 101.707 105.756 101.961 105.756C102.204 105.756 102.413 105.791 102.588 105.86C102.764 105.929 102.909 106.017 103.022 106.124C103.135 106.231 103.219 106.349 103.274 106.478C103.329 106.606 103.357 106.728 103.357 106.844C103.357 107.052 103.314 107.243 103.229 107.417C103.145 107.591 102.989 107.748 102.762 107.888C102.536 108.028 102.225 108.15 101.828 108.253C101.433 108.357 100.924 108.44 100.301 108.503C100.301 108.537 100.301 108.571 100.299 108.604C100.298 108.637 100.298 108.67 100.298 108.705C100.298 109.126 100.389 109.448 100.573 109.669C100.757 109.89 101.034 110.001 101.405 110.001C101.555 110.001 101.69 109.985 101.809 109.954C101.926 109.922 102.031 109.884 102.123 109.838C102.217 109.793 102.299 109.743 102.369 109.688C102.439 109.632 102.504 109.582 102.563 109.537C102.62 109.491 102.674 109.452 102.725 109.422C102.775 109.39 102.826 109.374 102.876 109.374C102.936 109.374 102.99 109.4 103.037 109.454L103.244 109.713Z" fill="white"/>
<path d="M108.496 107.151C108.621 106.884 108.757 106.652 108.903 106.456C109.049 106.26 109.202 106.106 109.363 105.994C109.524 105.883 109.689 105.815 109.858 105.792C110.027 105.769 110.2 105.795 110.376 105.87L110.226 106.674C109.817 106.511 109.456 106.571 109.143 106.854C108.832 107.137 108.578 107.647 108.382 108.385L108.118 110.594H107.298L107.873 105.817H108.289C108.48 105.817 108.576 105.912 108.576 106.1L108.496 107.151Z" fill="white"/>
<path d="M113.449 111.735C113.408 111.697 113.387 111.653 113.388 111.603C113.388 111.566 113.413 111.517 113.463 111.457L113.639 111.243C113.704 111.16 113.768 111.064 113.831 110.955C113.894 110.847 113.936 110.725 113.958 110.59C113.946 110.593 113.925 110.595 113.897 110.595C113.735 110.595 113.602 110.541 113.498 110.433C113.397 110.325 113.346 110.185 113.346 110.015C113.346 109.868 113.397 109.742 113.498 109.639C113.602 109.535 113.737 109.483 113.906 109.483C114.002 109.483 114.083 109.501 114.157 109.535C114.229 109.569 114.289 109.617 114.338 109.679C114.387 109.74 114.424 109.811 114.448 109.891C114.473 109.971 114.486 110.058 114.487 110.151C114.486 110.293 114.467 110.44 114.428 110.592C114.388 110.745 114.33 110.896 114.252 111.044C114.175 111.194 114.082 111.339 113.973 111.48C113.862 111.622 113.737 111.752 113.595 111.871L113.449 111.735Z" fill="white"/>
<path d="M125.546 107.028C125.801 106.607 126.088 106.289 126.409 106.074C126.729 105.859 127.059 105.752 127.398 105.752C127.6 105.752 127.777 105.792 127.928 105.871C128.08 105.951 128.205 106.068 128.301 106.222C128.397 106.376 128.462 106.566 128.497 106.79C128.532 107.014 128.532 107.269 128.497 107.555L128.139 110.594H127.304L127.662 107.555C127.705 107.178 127.682 106.9 127.592 106.72C127.501 106.539 127.332 106.448 127.087 106.448C126.936 106.448 126.783 106.489 126.629 106.571C126.473 106.653 126.322 106.769 126.178 106.919C126.032 107.07 125.898 107.252 125.775 107.463C125.65 107.676 125.543 107.912 125.456 108.172L125.183 110.594H124.343L124.919 105.817H125.333C125.522 105.817 125.616 105.912 125.616 106.1L125.546 107.028Z" fill="white"/>
<path d="M134.497 110.005C134.726 110.005 134.934 109.942 135.121 109.816C135.309 109.691 135.469 109.524 135.601 109.315C135.735 109.106 135.838 108.865 135.91 108.592C135.983 108.318 136.019 108.032 136.019 107.734C136.019 107.295 135.932 106.964 135.757 106.742C135.583 106.522 135.332 106.411 135.006 106.411C134.773 106.411 134.563 106.473 134.376 106.597C134.189 106.721 134.03 106.887 133.898 107.094C133.766 107.301 133.663 107.541 133.592 107.814C133.518 108.088 133.482 108.374 133.483 108.672C133.483 109.112 133.569 109.444 133.742 109.668C133.914 109.892 134.166 110.005 134.497 110.005ZM134.416 110.66C134.156 110.66 133.917 110.615 133.699 110.525C133.483 110.436 133.296 110.306 133.138 110.136C132.981 109.967 132.859 109.76 132.77 109.515C132.683 109.27 132.639 108.99 132.638 108.676C132.638 108.275 132.701 107.897 132.827 107.541C132.953 107.187 133.126 106.877 133.346 106.611C133.566 106.345 133.825 106.136 134.123 105.982C134.418 105.828 134.738 105.751 135.081 105.751C135.342 105.751 135.581 105.796 135.797 105.886C136.014 105.975 136.201 106.104 136.359 106.274C136.516 106.444 136.638 106.651 136.726 106.896C136.814 107.141 136.858 107.419 136.858 107.73C136.858 108.129 136.795 108.506 136.67 108.86C136.544 109.215 136.372 109.526 136.153 109.793C135.935 110.06 135.677 110.271 135.378 110.426C135.079 110.582 134.758 110.66 134.416 110.66Z" fill="white"/>
<path d="M141.124 109.695V109.621C141.124 109.592 141.126 109.549 141.132 109.492C141.136 109.435 141.143 109.361 141.155 109.27L141.199 108.913L141.492 106.524H140.96C140.915 106.524 140.879 106.509 140.853 106.479C140.826 106.449 140.816 106.403 140.822 106.34L140.861 106.006L141.596 105.907L141.954 104.433C141.97 104.387 141.994 104.348 142.027 104.318C142.061 104.288 142.103 104.272 142.152 104.272H142.591L142.389 105.917H143.641L143.571 106.524H142.312L142.026 108.87C142.01 109 141.997 109.104 141.987 109.181C141.977 109.259 141.969 109.322 141.965 109.37C141.962 109.417 141.959 109.45 141.957 109.468L141.954 109.511C141.954 109.671 141.992 109.789 142.068 109.866C142.142 109.943 142.243 109.982 142.368 109.982C142.454 109.982 142.527 109.97 142.587 109.947C142.649 109.923 142.703 109.897 142.751 109.869C142.798 109.84 142.837 109.814 142.868 109.791C142.9 109.768 142.927 109.756 142.949 109.756C142.977 109.756 142.998 109.762 143.012 109.775C143.025 109.787 143.039 109.808 143.053 109.836L143.232 110.237C143.077 110.371 142.902 110.477 142.707 110.554C142.509 110.631 142.311 110.67 142.114 110.67C141.81 110.67 141.57 110.587 141.394 110.42C141.221 110.253 141.13 110.012 141.124 109.695Z" fill="white"/>
<path d="M154.183 106.877C154.431 106.506 154.706 106.226 155.009 106.037C155.312 105.846 155.621 105.751 155.936 105.752C156.14 105.752 156.319 105.792 156.473 105.871C156.627 105.951 156.752 106.068 156.848 106.221C156.943 106.376 157.009 106.565 157.044 106.789C157.079 107.014 157.079 107.269 157.044 107.555L156.686 110.594H155.845L156.205 107.555C156.253 107.178 156.23 106.899 156.138 106.717C156.048 106.534 155.878 106.443 155.63 106.443C155.488 106.443 155.342 106.482 155.192 106.559C155.041 106.636 154.895 106.745 154.755 106.887C154.616 107.028 154.483 107.199 154.358 107.399C154.236 107.601 154.128 107.825 154.035 108.073L153.73 110.594H152.895L153.735 103.654H154.574L154.183 106.877Z" fill="white"/>
<path d="M164.458 106.406C164.39 106.39 164.321 106.38 164.252 106.376C164.186 106.371 164.119 106.368 164.053 106.368C163.864 106.368 163.682 106.399 163.506 106.46C163.33 106.522 163.165 106.607 163.011 106.717C162.857 106.827 162.717 106.958 162.591 107.11C162.466 107.263 162.359 107.43 162.268 107.612C162.179 107.795 162.11 107.989 162.059 108.194C162.009 108.4 161.983 108.611 161.983 108.828C161.983 109.584 162.226 109.963 162.71 109.963C162.864 109.963 163.014 109.915 163.161 109.819C163.309 109.723 163.449 109.59 163.584 109.419C163.717 109.247 163.84 109.045 163.953 108.811C164.066 108.577 164.167 108.32 164.256 108.041L164.458 106.406ZM164.137 109.336C164.025 109.537 163.903 109.72 163.772 109.883C163.642 110.046 163.504 110.185 163.357 110.3C163.212 110.414 163.058 110.502 162.896 110.565C162.733 110.628 162.566 110.66 162.394 110.66C162.205 110.66 162.034 110.623 161.88 110.549C161.726 110.475 161.594 110.367 161.485 110.224C161.377 110.082 161.293 109.906 161.234 109.696C161.174 109.488 161.144 109.249 161.144 108.978C161.144 108.696 161.18 108.42 161.251 108.151C161.321 107.883 161.422 107.629 161.552 107.39C161.683 107.151 161.839 106.932 162.02 106.734C162.203 106.534 162.407 106.361 162.631 106.215C162.856 106.069 163.098 105.956 163.356 105.876C163.613 105.796 163.882 105.755 164.165 105.755C164.37 105.755 164.569 105.772 164.762 105.806C164.955 105.839 165.146 105.896 165.334 105.977L164.764 110.594H164.331C164.222 110.594 164.147 110.566 164.107 110.51C164.068 110.452 164.048 110.383 164.048 110.302L164.137 109.336Z" fill="white"/>
<path d="M170.5 107.151C170.626 106.884 170.762 106.652 170.909 106.456C171.054 106.26 171.207 106.106 171.369 105.994C171.527 105.883 171.693 105.815 171.864 105.792C172.033 105.769 172.205 105.795 172.38 105.87L172.23 106.674C171.822 106.511 171.462 106.571 171.149 106.854C170.837 107.137 170.583 107.647 170.388 108.385L170.124 110.594H169.303L169.877 105.817H170.293C170.485 105.817 170.581 105.912 170.581 106.1L170.5 107.151Z" fill="white"/>
<path d="M179.02 106.863C178.899 106.694 178.755 106.575 178.588 106.507C178.42 106.44 178.249 106.406 178.076 106.406C177.828 106.406 177.605 106.48 177.407 106.628C177.209 106.775 177.04 106.966 176.9 107.2C176.759 107.434 176.652 107.696 176.577 107.984C176.502 108.273 176.464 108.557 176.464 108.837C176.464 109.21 176.531 109.495 176.664 109.692C176.798 109.888 176.989 109.986 177.238 109.986C177.389 109.986 177.541 109.939 177.695 109.844C177.849 109.75 177.997 109.619 178.14 109.451C178.283 109.283 178.416 109.085 178.541 108.856C178.665 108.627 178.773 108.376 178.864 108.102L179.02 106.863ZM180.236 103.655L179.383 110.593H178.944C178.834 110.593 178.76 110.565 178.722 110.51C178.685 110.452 178.666 110.383 178.665 110.302L178.755 109.298C178.636 109.505 178.505 109.692 178.364 109.859C178.222 110.025 178.074 110.168 177.919 110.288C177.764 110.408 177.601 110.499 177.432 110.563C177.264 110.627 177.095 110.66 176.922 110.66C176.513 110.66 176.196 110.512 175.97 110.214C175.743 109.917 175.63 109.486 175.63 108.921C175.63 108.664 175.657 108.407 175.711 108.149C175.764 107.891 175.84 107.644 175.938 107.409C176.038 107.174 176.157 106.954 176.296 106.752C176.436 106.55 176.593 106.375 176.766 106.227C176.938 106.079 177.124 105.963 177.325 105.879C177.524 105.794 177.734 105.751 177.954 105.751C178.19 105.751 178.404 105.797 178.597 105.89C178.79 105.983 178.955 106.114 179.09 106.284L179.415 103.655H180.236Z" fill="white"/>
<path d="M186.364 106.36C186.165 106.36 185.983 106.401 185.816 106.482C185.65 106.563 185.502 106.675 185.374 106.819C185.244 106.961 185.134 107.129 185.044 107.323C184.952 107.516 184.882 107.724 184.831 107.947C185.315 107.887 185.703 107.819 185.995 107.742C186.288 107.665 186.513 107.582 186.67 107.492C186.827 107.403 186.931 107.306 186.981 107.203C187.032 107.099 187.057 106.991 187.057 106.878C187.057 106.822 187.044 106.763 187.018 106.7C186.992 106.639 186.952 106.584 186.897 106.534C186.844 106.483 186.772 106.442 186.683 106.409C186.596 106.376 186.489 106.36 186.364 106.36ZM187.692 109.713C187.532 109.88 187.375 110.022 187.22 110.14C187.067 110.258 186.911 110.356 186.752 110.434C186.594 110.513 186.427 110.57 186.252 110.606C186.077 110.642 185.89 110.66 185.69 110.66C185.416 110.66 185.17 110.615 184.954 110.523C184.738 110.433 184.554 110.304 184.401 110.135C184.251 109.968 184.135 109.764 184.054 109.525C183.971 109.286 183.931 109.019 183.931 108.725C183.931 108.479 183.957 108.235 184.008 107.991C184.06 107.748 184.135 107.517 184.234 107.297C184.334 107.077 184.455 106.873 184.597 106.685C184.741 106.497 184.905 106.334 185.088 106.197C185.271 106.06 185.474 105.953 185.697 105.874C185.918 105.796 186.156 105.756 186.411 105.756C186.652 105.756 186.861 105.791 187.038 105.86C187.213 105.929 187.358 106.017 187.471 106.124C187.584 106.231 187.668 106.349 187.724 106.478C187.778 106.606 187.806 106.728 187.806 106.844C187.806 107.052 187.763 107.243 187.679 107.417C187.594 107.591 187.438 107.748 187.212 107.888C186.986 108.028 186.675 108.15 186.278 108.253C185.882 108.357 185.373 108.44 184.751 108.503L184.749 108.604C184.747 108.637 184.746 108.67 184.746 108.705C184.746 109.126 184.838 109.448 185.022 109.669C185.206 109.89 185.483 110.001 185.853 110.001C186.005 110.001 186.139 109.985 186.257 109.954C186.376 109.922 186.481 109.884 186.573 109.838C186.665 109.793 186.747 109.743 186.819 109.688L187.011 109.537C187.07 109.491 187.124 109.452 187.173 109.422C187.223 109.39 187.274 109.374 187.324 109.374C187.384 109.374 187.438 109.4 187.485 109.454L187.692 109.713Z" fill="white"/>
<path d="M192.944 107.151C193.07 106.884 193.206 106.652 193.353 106.456C193.498 106.26 193.651 106.106 193.813 105.994C193.971 105.883 194.136 105.815 194.308 105.792C194.477 105.769 194.649 105.795 194.824 105.87L194.674 106.674C194.266 106.511 193.906 106.571 193.593 106.854C193.28 107.137 193.027 107.647 192.832 108.385L192.568 110.594H191.747L192.321 105.817H192.737C192.929 105.817 193.025 105.912 193.025 106.1L192.944 107.151Z" fill="white"/>
<path d="M16.9342 84.8607C16.9342 83.5728 16.764 82.4146 16.4237 81.3863C16.0856 80.3586 15.5999 79.4887 14.9667 78.7765C14.3328 78.0643 13.561 77.5162 12.6514 77.1322C11.7411 76.7482 10.709 76.5561 9.55492 76.5561H5.21303V93.1832H9.55492C10.709 93.1832 11.7411 92.9941 12.6514 92.6157C13.561 92.2374 14.3328 91.6893 14.9667 90.9714C15.5994 90.2535 16.085 89.3805 16.4237 88.3522C16.764 87.3244 16.9342 86.1606 16.9342 84.8607ZM22.1574 84.8607C22.1574 86.6582 21.8551 88.3108 21.2504 89.8184C20.6451 91.3272 19.7914 92.624 18.6892 93.7088C17.5866 94.793 16.2603 95.6404 14.7105 96.251C13.1619 96.8616 11.4433 97.1666 9.55492 97.166H0.0908203V72.5733H9.55492C11.4433 72.5733 13.1619 72.8784 14.7105 73.4884C16.2603 74.099 17.5866 74.9489 18.6892 76.0383C19.7914 77.1294 20.6451 78.4261 21.2504 79.9286C21.8545 81.4317 22.1569 83.0757 22.1574 84.8607Z" fill="white"/>
<path d="M35.3021 86.3694C35.3021 85.8838 35.2367 85.4205 35.1059 84.9794C34.9769 84.5388 34.7707 84.1491 34.4875 83.8101C34.2048 83.4712 33.8491 83.2027 33.4202 83.0047C32.9896 82.8078 32.4749 82.7091 31.8758 82.7085C30.7566 82.7085 29.8806 83.0249 29.2479 83.6578C28.6135 84.29 28.2001 85.1939 28.0076 86.3694H35.3021ZM27.9408 89.1488C28.0876 90.7871 28.5538 91.9848 29.3396 92.7421C30.1253 93.4993 31.1515 93.8777 32.418 93.8771C33.0633 93.8771 33.6204 93.8012 34.0892 93.6494C34.5574 93.4965 34.97 93.3267 35.3269 93.1401C35.6838 92.9541 36.0062 92.7846 36.294 92.6317C36.5823 92.4799 36.8678 92.4037 37.1505 92.4031C37.512 92.4031 37.7946 92.5387 37.9985 92.8097L39.3553 94.5054C38.8573 95.0811 38.3094 95.5585 37.7116 95.9374C37.1103 96.3157 36.4901 96.6153 35.8443 96.8362C35.2001 97.0559 34.5497 97.2082 33.893 97.2932C33.238 97.3777 32.6053 97.4199 31.9949 97.4199C30.7734 97.4199 29.6339 97.2193 28.5764 96.8182C27.5188 96.4176 26.5977 95.8244 25.8131 95.0386C25.0268 94.2534 24.4072 93.2791 23.9544 92.1155C23.5033 90.9514 23.2774 89.6007 23.2769 88.0634C23.2763 86.8776 23.4716 85.7594 23.8627 84.7089C24.2528 83.6578 24.8147 82.7424 25.5484 81.9629C26.2851 81.1823 27.1785 80.5637 28.2286 80.1072C29.2816 79.6484 30.4688 79.4193 31.7902 79.4199C32.9094 79.4199 33.9418 79.5979 34.8875 79.954C35.8303 80.3101 36.6437 80.8268 37.3278 81.5041C38.0125 82.1832 38.5441 83.0166 38.9227 84.0044C39.3019 84.9939 39.4915 86.1209 39.4915 87.3855C39.4915 87.737 39.4746 88.0254 39.4409 88.2508C39.4067 88.4768 39.3499 88.6574 39.2705 88.7927C39.1917 88.9291 39.0846 89.0224 38.9493 89.0726C38.8139 89.1239 38.6384 89.1493 38.4225 89.1488H27.9408Z" fill="white"/>
<path d="M55.2306 77.2836C55.0725 77.5433 54.912 77.7324 54.7493 77.8511C54.5837 77.9698 54.3709 78.0292 54.1111 78.0292C53.8633 78.0292 53.5952 77.9413 53.3068 77.7655C53.0173 77.5915 52.681 77.4023 52.2978 77.198C51.9129 76.9949 51.4718 76.8057 50.9744 76.6305C50.4765 76.4559 49.8943 76.3686 49.2279 76.3686C48.0504 76.3686 47.1682 76.6314 46.5811 77.1569C45.993 77.6819 45.6992 78.3681 45.6997 79.2155C45.6997 79.7576 45.8608 80.2067 46.1828 80.5628C46.5049 80.9183 46.9289 81.2262 47.4548 81.4864C47.9802 81.746 48.5769 81.978 49.245 82.1823C49.9109 82.3854 50.5944 82.6083 51.2956 82.8508C51.9969 83.0939 52.6812 83.3792 53.3488 83.7068C54.0152 84.0349 54.6119 84.4475 55.139 84.9445C55.6638 85.4415 56.0875 86.0487 56.4101 86.766C56.7328 87.4844 56.8938 88.3575 56.8932 89.3852C56.8932 90.5037 56.6982 91.5517 56.3082 92.5292C55.9182 93.5061 55.3554 94.3592 54.6199 95.0885C53.8861 95.8166 52.9788 96.3901 51.8978 96.809C50.8185 97.2267 49.5945 97.4355 48.2257 97.4355C47.4457 97.4355 46.6685 97.3568 45.8942 97.1993C45.1193 97.0401 44.3729 96.8195 43.6551 96.5376C42.9368 96.2557 42.2615 95.9168 41.6294 95.5208C40.9955 95.1253 40.4413 94.6848 39.9668 94.1992L41.4589 91.7913C41.5834 91.6104 41.7473 91.4609 41.9506 91.3428C42.1539 91.2241 42.3686 91.1648 42.5947 91.1648C42.9008 91.1648 43.2231 91.2778 43.5618 91.5037C43.901 91.7297 44.2913 91.9782 44.7327 92.2493C45.173 92.5209 45.6843 92.7694 46.2668 92.9948C46.8492 93.2214 47.5473 93.3343 48.3611 93.3338C49.5488 93.3338 50.4679 93.0627 51.1183 92.5206C51.7693 91.9785 52.0945 91.1708 52.0939 90.0974C52.0939 89.4754 51.9326 88.9724 51.61 88.5883C51.2868 88.2043 50.8659 87.8821 50.3474 87.6219C49.8266 87.3623 49.2327 87.1392 48.5658 86.9526C47.8977 86.7665 47.2133 86.5603 46.5126 86.3337C45.8114 86.1083 45.1278 85.8373 44.462 85.5205C43.7939 85.2044 43.2 84.7864 42.6804 84.2666C42.1596 83.7473 41.7384 83.103 41.4169 82.3338C41.0943 81.5663 40.9333 80.6116 40.9338 79.4697C40.9338 78.5539 41.1143 77.6668 41.4752 76.8086C41.8378 75.9503 42.3694 75.1876 43.0701 74.5206C43.7713 73.8535 44.6333 73.3168 45.656 72.9105C46.6799 72.5036 47.8534 72.3002 49.1765 72.3002C50.6572 72.3002 52.0283 72.529 53.2897 72.9867C54.5494 73.4443 55.6152 74.08 56.4872 74.8938L55.2306 77.2836Z" fill="white"/>
<path d="M58.7939 97.166V79.6915H61.6763C62.2644 79.6915 62.6547 79.9626 62.8472 80.5047L63.1187 81.6406C63.4236 81.3239 63.7369 81.03 64.0583 80.7589C64.3816 80.4879 64.7296 80.2536 65.1025 80.0562C65.4759 79.8582 65.8802 79.7027 66.3154 79.5897C66.7505 79.4767 67.2225 79.4202 67.7313 79.4202C68.8054 79.4202 69.6931 79.7055 70.3943 80.2762C71.095 80.8468 71.6263 81.6069 71.9884 82.5564C72.271 82.0023 72.6191 81.5247 73.0325 81.1236C73.4448 80.723 73.897 80.398 74.3893 80.1486C74.8804 79.9004 75.4 79.7169 75.9482 79.5982C76.4976 79.4795 77.0492 79.4202 77.6031 79.4202C78.5864 79.4202 79.457 79.5671 80.2147 79.861C80.9725 80.1543 81.6086 80.5866 82.1231 81.1578C82.6371 81.7284 83.0297 82.4261 83.3009 83.2506C83.5739 84.0758 83.7101 85.0136 83.7095 86.0642V97.166H79.0267V86.0642C79.0273 84.019 78.1513 82.9964 76.3988 82.9964C76.0019 82.9964 75.637 83.0615 75.3041 83.1916C74.9712 83.3217 74.6774 83.5165 74.4227 83.7762C74.1686 84.0364 73.9707 84.3582 73.8291 84.7417C73.688 85.1263 73.6172 85.5671 73.6167 86.0642V97.166H68.9356V86.0642C68.9356 84.9566 68.718 84.1685 68.2829 83.7C67.8478 83.2315 67.2059 82.997 66.3573 82.9964C65.8149 82.9964 65.3035 83.1237 64.8233 83.3782C64.3419 83.6321 63.8925 83.985 63.475 84.437V97.166H58.7939Z" fill="white"/>
<path d="M95.7008 89.8594C94.5587 89.9165 93.6085 90.0155 92.8501 90.1564C92.0929 90.2974 91.4911 90.4808 91.0445 90.7068C90.5974 90.9334 90.2808 91.1904 90.0946 91.478C89.9079 91.7662 89.8148 92.0798 89.8154 92.4187C89.8154 93.0967 90.0044 93.5769 90.3824 93.8593C90.7621 94.1418 91.2909 94.283 91.9687 94.283C92.7482 94.283 93.424 94.1447 93.9962 93.8679C94.5661 93.5906 95.1343 93.1583 95.7008 92.5711V89.8594ZM86.1681 82.113C87.196 81.1868 88.3327 80.4949 89.5781 80.0372C90.8207 79.5796 92.166 79.3508 93.6142 79.3508C94.6535 79.3508 95.5831 79.5202 96.4031 79.8592C97.2232 80.1982 97.9187 80.6701 98.4897 81.275C99.0619 81.8798 99.5002 82.6 99.8045 83.4354C100.109 84.272 100.262 85.1873 100.263 86.1813V97.1642H98.1248C97.6851 97.1642 97.3488 97.102 97.1158 96.9776C96.884 96.8538 96.6944 96.5939 96.547 96.1978L96.1744 95.0799C95.7342 95.464 95.3076 95.8029 94.8947 96.0968C94.4813 96.3901 94.0545 96.6358 93.6142 96.8338C93.1734 97.0312 92.7011 97.181 92.1974 97.2832C91.6944 97.3848 91.1316 97.4355 90.5092 97.4355C89.7417 97.4355 89.0408 97.3337 88.4063 97.13C87.7725 96.9268 87.2271 96.625 86.7703 96.2244C86.3123 95.8232 85.9589 95.323 85.7099 94.7239C85.4609 94.1247 85.3364 93.4353 85.3364 92.6559C85.3364 92.0116 85.5006 91.3676 85.8289 90.7239C86.1562 90.0791 86.7186 89.4942 87.5164 88.9692C88.3135 88.4442 89.3765 88.0094 90.7053 87.6647C92.0336 87.3201 93.6987 87.1249 95.7008 87.0793V86.1813C95.7008 85.0857 95.4689 84.2805 95.0052 83.7658C94.541 83.2517 93.874 82.9946 93.0043 82.9946C92.3591 82.9946 91.8214 83.0711 91.3914 83.224C90.962 83.3764 90.586 83.5401 90.2633 83.7153L89.3571 84.2066C89.0744 84.359 88.7464 84.4352 88.3729 84.4352C88.0451 84.4352 87.7708 84.3533 87.5498 84.1895C87.3293 84.0263 87.146 83.8314 86.9999 83.6049L86.1681 82.113Z" fill="white"/>
<path d="M107.471 82.5727C108.025 81.5786 108.664 80.7932 109.388 80.2162C110.111 79.6399 110.959 79.3517 111.932 79.3517C112.724 79.3517 113.368 79.5383 113.865 79.9115L113.56 83.3696C113.503 83.595 113.416 83.7502 113.298 83.8353C113.179 83.9203 113.018 83.9628 112.814 83.9628C112.633 83.9628 112.373 83.9371 112.034 83.8858C111.695 83.835 111.378 83.8096 111.084 83.8096C110.654 83.8101 110.272 83.8723 109.938 83.9962C109.605 84.1206 109.309 84.2958 109.048 84.5217C108.789 84.7477 108.554 85.0245 108.344 85.352C108.135 85.6801 107.941 86.0531 107.76 86.4708V97.166H103.079V79.6915H105.843C106.318 79.6915 106.646 79.7763 106.827 79.9458C107.008 80.1152 107.137 80.4088 107.216 80.8265L107.471 82.5727Z" fill="white"/>
<path d="M121.056 97.4355C120.265 97.4355 119.564 97.32 118.954 97.0889C118.343 96.8566 117.828 96.5262 117.409 96.0977C116.991 95.668 116.675 95.1478 116.459 94.5373C116.245 93.9272 116.138 93.2379 116.138 92.4693V83.046H114.492C114.243 83.046 114.031 82.9669 113.856 82.8089C113.681 82.6514 113.593 82.414 113.593 82.0967V80.2658L116.392 79.7582L117.341 75.2327C117.466 74.7243 117.812 74.4701 118.376 74.4701H120.819V79.7924H125.331V83.046H120.819V92.1645C120.819 92.6501 120.935 93.0342 121.167 93.3167C121.398 93.5997 121.728 93.7412 122.159 93.7412C122.385 93.7412 122.577 93.7158 122.734 93.665C122.893 93.6142 123.029 93.5575 123.143 93.4947C123.255 93.4331 123.359 93.3766 123.456 93.3252C123.552 93.275 123.651 93.2496 123.753 93.249C123.889 93.249 124.002 93.2804 124.091 93.3432C124.183 93.4048 124.273 93.5092 124.364 93.6565L125.771 95.8931C125.127 96.4021 124.397 96.7864 123.582 97.0461C122.769 97.3057 121.927 97.4355 121.056 97.4355Z" fill="white"/>
<path d="M151.789 75.6411H143.919V97.166H140.645V75.6411H132.759V72.8781H151.789V75.6411Z" fill="white"/>
<path d="M152.96 83.4372C153.502 82.2623 154.169 81.3441 154.96 80.6827C155.752 80.0219 156.719 79.6915 157.862 79.6915C158.223 79.6915 158.57 79.7312 158.903 79.8105C159.237 79.8893 159.534 80.0134 159.794 80.1829L159.575 82.4375C159.506 82.7199 159.336 82.8612 159.064 82.8612C158.907 82.8612 158.675 82.8272 158.37 82.7593C158.064 82.6914 157.719 82.6574 157.334 82.6574C156.792 82.6574 156.309 82.7365 155.884 82.8945C155.46 83.0532 155.082 83.2877 154.748 83.5981C154.415 83.9091 154.116 84.2932 153.85 84.7503C153.583 85.2085 153.343 85.7312 153.128 86.3184V97.166H150.092V79.9963H151.822C152.15 79.9963 152.376 80.0585 152.501 80.1829C152.625 80.3078 152.71 80.5224 152.756 80.8265L152.96 83.4372Z" fill="white"/>
<path d="M170.633 89.4357C169.243 89.4814 168.058 89.5915 167.08 89.7661C166.101 89.9413 165.304 90.1698 164.689 90.4517C164.072 90.7354 163.625 91.0689 163.349 91.4524C163.071 91.8376 162.933 92.267 162.933 92.7406C162.933 93.1931 163.006 93.5831 163.154 93.9107C163.3 94.2377 163.501 94.5059 163.756 94.7153C164.01 94.9247 164.309 95.0774 164.654 95.1732C165 95.2691 165.37 95.317 165.764 95.317C166.297 95.317 166.784 95.2634 167.224 95.1561C167.665 95.0488 168.081 94.8936 168.472 94.6905C168.861 94.4862 169.234 94.2431 169.591 93.9612C169.947 93.6787 170.294 93.3566 170.633 92.9948V89.4357ZM160.881 82.4185C161.83 81.5032 162.854 80.8196 163.951 80.3676C165.047 79.9157 166.263 79.6897 167.597 79.6897C168.558 79.6897 169.412 79.8481 170.158 80.1648C170.903 80.4809 171.532 80.9215 172.042 81.4864C172.55 82.0513 172.934 82.735 173.194 83.5373C173.454 84.3396 173.584 85.221 173.584 86.1813V97.1642H172.244C171.95 97.1642 171.724 97.1163 171.567 97.0204C171.408 96.924 171.284 96.7345 171.193 96.452L170.854 94.8257C170.402 95.244 169.961 95.6141 169.531 95.9359C169.101 96.2577 168.649 96.5288 168.174 96.7491C167.699 96.9699 167.193 97.1397 166.656 97.2584C166.119 97.3759 165.522 97.435 164.867 97.4355C164.199 97.4355 163.571 97.3425 162.984 97.1565C162.396 96.9699 161.884 96.69 161.448 96.3168C161.014 95.9447 160.669 95.4731 160.414 94.9019C160.16 94.3313 160.033 93.6562 160.033 92.8767C160.033 92.1988 160.219 91.546 160.592 90.9182C160.965 90.2917 161.57 89.7353 162.407 89.2491C163.243 88.7635 164.335 88.3652 165.681 88.0542C167.027 87.7432 168.677 87.5654 170.633 87.5209V86.1813C170.633 84.8483 170.345 83.8397 169.768 83.1555C169.191 82.4725 168.349 82.1309 167.242 82.1309C166.494 82.1309 165.869 82.2239 165.367 82.41C164.863 82.5971 164.428 82.806 164.062 83.0365C163.693 83.2694 163.377 83.4788 163.112 83.6648C162.846 83.8514 162.582 83.9444 162.322 83.9439C162.119 83.9439 161.944 83.8902 161.797 83.7829C161.65 83.6757 161.525 83.543 161.423 83.3849L160.881 82.4185Z" fill="white"/>
<path d="M188.527 84.081C187.96 83.3238 187.349 82.7953 186.694 82.4958C186.038 82.1967 185.303 82.0469 184.49 82.0464C182.895 82.0464 181.668 82.617 180.809 83.7583C179.949 84.8996 179.519 86.5268 179.519 88.6399C179.519 89.7583 179.615 90.7161 179.807 91.5133C179.999 92.3099 180.282 92.965 180.656 93.4786C181.028 93.9928 181.486 94.3685 182.03 94.6059C182.573 94.8433 183.189 94.962 183.879 94.962C184.872 94.962 185.74 94.736 186.482 94.2841C187.222 93.8321 187.904 93.1939 188.527 92.3693V84.081ZM191.544 72.1994V97.1652H189.746C189.318 97.1652 189.045 96.9564 188.933 96.5387L188.662 94.4536C187.926 95.3346 187.09 96.0465 186.151 96.5892C185.212 97.1313 184.127 97.4023 182.896 97.4023C181.912 97.4023 181.018 97.2132 180.215 96.8348C179.412 96.4565 178.728 95.8998 178.162 95.1649C177.597 94.431 177.161 93.516 176.856 92.4198C176.552 91.3242 176.399 90.0642 176.399 88.6399C176.399 87.3747 176.569 86.1966 176.908 85.1056C177.247 84.0157 177.733 83.0695 178.367 82.2672C179 81.4649 179.777 80.8349 180.698 80.3772C181.62 79.9202 182.657 79.6913 183.81 79.6908C184.863 79.6908 185.764 79.8688 186.515 80.2249C187.268 80.5804 187.938 81.0749 188.527 81.7083V72.1994H191.544Z" fill="white"/>
<path d="M206.98 86.7071C206.98 86.0069 206.881 85.3658 206.683 84.7837C206.484 84.2017 206.196 83.6987 205.819 83.2747C205.439 82.8513 204.978 82.5237 204.435 82.292C203.892 82.0604 203.276 81.9448 202.586 81.9454C201.14 81.9454 199.995 82.3659 199.151 83.2071C198.31 84.0493 197.787 85.216 197.582 86.7071H206.98ZM209.422 94.7583C209.05 95.2108 208.603 95.6034 208.082 95.9361C207.562 96.2699 207.005 96.5438 206.411 96.7578C205.819 96.9729 205.205 97.1341 204.57 97.2414C203.938 97.3487 203.311 97.4023 202.688 97.4023C201.5 97.4023 200.406 97.2018 199.406 96.8006C198.405 96.3994 197.541 95.8117 196.811 95.0373C196.082 94.2641 195.514 93.3066 195.107 92.1647C194.7 91.0234 194.496 89.7127 194.496 88.2324C194.496 87.0352 194.68 85.9167 195.048 84.877C195.414 83.8373 195.943 82.936 196.634 82.1731C197.323 81.4112 198.165 80.8124 199.16 80.3764C200.155 79.9421 201.275 79.7247 202.519 79.7241C203.547 79.7241 204.5 79.8965 205.377 80.2411C206.253 80.5864 207.011 81.0834 207.649 81.7322C208.288 82.3828 208.788 83.1851 209.151 84.1392C209.512 85.0945 209.693 86.1821 209.693 87.4021C209.693 87.8763 209.642 88.1928 209.541 88.3514C209.438 88.5095 209.246 88.5885 208.963 88.5885H197.482C197.515 89.6739 197.665 90.6174 197.931 91.4192C198.196 92.2215 198.566 92.8911 199.041 93.4281C199.516 93.9645 200.082 94.3657 200.738 94.6316C201.393 94.8964 202.128 95.029 202.943 95.0296C203.7 95.0296 204.353 94.942 204.902 94.7668C205.45 94.5911 205.923 94.4019 206.319 94.1993C206.713 93.9956 207.044 93.8062 207.311 93.631C207.575 93.4564 207.804 93.3688 207.996 93.3682C208.246 93.3682 208.438 93.4643 208.574 93.6567L209.422 94.7583Z" fill="white"/>
<path d="M215.409 83.4372C215.953 82.2623 216.62 81.3441 217.41 80.6827C218.202 80.0219 219.169 79.6915 220.312 79.6915C220.673 79.6915 221.021 79.7312 221.355 79.8105C221.688 79.8893 221.984 80.0134 222.245 80.1829L222.025 82.4375C221.956 82.7199 221.787 82.8612 221.516 82.8612C221.358 82.8612 221.126 82.8272 220.82 82.7593C220.515 82.6914 220.17 82.6574 219.786 82.6574C219.242 82.6574 218.759 82.7365 218.335 82.8945C217.912 83.0532 217.533 83.2877 217.2 83.5981C216.866 83.9091 216.566 84.2932 216.299 84.7503C216.034 85.2085 215.794 85.7312 215.578 86.3184V97.166H212.543V79.9963H214.274C214.601 79.9963 214.827 80.0585 214.951 80.1829C215.076 80.3078 215.161 80.5224 215.206 80.8265L215.409 83.4372Z" fill="white"/>
<path d="M78.6987 4.57764e-05H88.9166V30.522H85.4176V48.5811H88.9166V68.6816H78.6987V4.57764e-05Z" fill="white"/>
<path d="M90.7925 4.57764e-05H102.005V39.5447H98.5049V57.6166H102.005V68.6816H90.7925V48.5811H94.2915V30.522H90.7925V4.57764e-05Z" fill="white"/>
<path d="M105.393 4.57764e-05C109.032 4.57764e-05 112.447 0.392075 115.639 1.20267V26.885H112.153V44.9578H115.639V67.4782C112.447 68.2896 109.032 68.6816 105.393 68.6816H103.895V57.6166H107.381V39.5447H103.895V4.57764e-05H105.393Z" fill="white"/>
<path d="M119.993 2.58825C123.352 3.91671 126.348 5.6235 128.951 7.70777V16.2683H125.466V34.341H128.951V60.9889C126.348 63.1005 123.352 64.8073 119.993 66.1084C119.194 66.4294 118.369 66.7093 117.529 66.9609V44.9584H121.028V26.8856H117.529V1.73486C118.369 1.98651 119.194 2.26641 119.993 2.58825Z" fill="white"/>
<path d="M141.058 34.3119C141.058 39.2773 140.204 43.8653 138.483 48.0484C136.775 52.2443 134.353 55.8813 131.245 58.9448C131.12 59.0706 130.98 59.211 130.84 59.3223V34.3401H134.339V16.2673H130.84V9.37084C130.98 9.48297 131.12 9.6225 131.245 9.74918C134.353 12.7981 136.775 16.4214 138.483 20.6173C140.204 24.8141 141.058 29.3738 141.058 34.3119Z" fill="white"/>
<path d="M117.528 66.9607C116.912 67.1567 116.283 67.3381 115.639 67.4785L117.528 66.9607Z" fill="white"/>
</svg>
